<svg width="1266" height="523" viewBox="0 0 1266 523" fill="none" xmlns="http://www.w3.org/2000/svg">
<path d="M136.344 20C136.387 20 136.408 20.064 136.408 20.192C136.408 20.32 136.387 20.384 136.344 20.384C135.555 20.384 134.808 20.7253 134.104 21.408C133.421 22.0693 132.856 22.9867 132.408 24.16L126.488 39.968C126.467 40.0533 126.349 40.096 126.136 40.096C125.923 40.096 125.805 40.0533 125.784 39.968L121.688 31.296L118.456 39.968C118.435 40.0533 118.317 40.096 118.104 40.096C117.891 40.096 117.773 40.0533 117.752 39.968L109.592 22.656C109.272 21.9733 109.005 21.4827 108.792 21.184C108.6 20.8853 108.376 20.6827 108.12 20.576C107.885 20.448 107.565 20.384 107.16 20.384C107.096 20.384 107.064 20.32 107.064 20.192C107.064 20.064 107.096 20 107.16 20C107.48 20 107.704 20.0107 107.832 20.032C108.259 20.0747 108.813 20.096 109.496 20.096C110.925 20.096 112.131 20.0747 113.112 20.032C113.389 20.0107 113.731 20 114.136 20C114.2 20 114.232 20.064 114.232 20.192C114.232 20.32 114.2 20.384 114.136 20.384C113.603 20.384 113.219 20.4373 112.984 20.544C112.771 20.6507 112.664 20.8427 112.664 21.12C112.664 21.4827 112.909 22.1867 113.4 23.232L119.16 35.456L121.176 30.176L117.624 22.656C117.261 21.888 116.92 21.3227 116.6 20.96C116.28 20.576 115.939 20.384 115.576 20.384C115.512 20.384 115.48 20.32 115.48 20.192C115.48 20.064 115.512 20 115.576 20C115.789 20 116.035 20.0213 116.312 20.064C116.611 20.0853 117.027 20.096 117.56 20.096C118.776 20.096 119.789 20.0747 120.6 20.032C120.813 20.0107 121.091 20 121.432 20C121.496 20 121.528 20.064 121.528 20.192C121.528 20.32 121.496 20.384 121.432 20.384C121.133 20.384 120.909 20.4267 120.76 20.512C120.632 20.576 120.568 20.704 120.568 20.896C120.568 21.2587 120.856 22.0373 121.432 23.232L122.84 26.208L123.64 24.064C124.109 22.848 124.344 21.9307 124.344 21.312C124.344 20.6933 124.077 20.384 123.544 20.384C123.48 20.384 123.448 20.32 123.448 20.192C123.448 20.064 123.48 20 123.544 20C123.715 20 123.896 20.0213 124.088 20.064C124.301 20.0853 124.813 20.096 125.624 20.096C125.987 20.096 126.424 20.0747 126.936 20.032L128.12 20C128.163 20 128.184 20.064 128.184 20.192C128.184 20.32 128.163 20.384 128.12 20.384C126.691 20.384 125.507 21.6427 124.568 24.16L123.384 27.328L127.224 35.424L131.352 24.384C131.608 23.7013 131.736 23.0827 131.736 22.528C131.736 21.8667 131.565 21.344 131.224 20.96C130.904 20.576 130.467 20.384 129.912 20.384C129.848 20.384 129.816 20.32 129.816 20.192C129.816 20.064 129.848 20 129.912 20L131.384 20.032C132.152 20.0747 132.856 20.096 133.496 20.096C133.923 20.096 134.413 20.0747 134.968 20.032L136.344 20ZM148.078 35.744C148.121 35.68 148.196 35.648 148.302 35.648C148.409 35.648 148.462 35.68 148.462 35.744C148.313 37.28 148.238 38.5387 148.238 39.52C148.238 39.6907 148.206 39.8187 148.142 39.904C148.078 39.968 147.95 40 147.758 40H135.726C135.684 40 135.662 39.936 135.662 39.808C135.662 39.68 135.684 39.616 135.726 39.616C136.345 39.616 136.793 39.5627 137.07 39.456C137.348 39.3493 137.54 39.1467 137.646 38.848C137.753 38.528 137.806 38.048 137.806 37.408V27.616C137.806 26.976 137.753 26.5067 137.646 26.208C137.54 25.9093 137.337 25.7067 137.038 25.6C136.761 25.472 136.324 25.408 135.726 25.408C135.684 25.408 135.662 25.344 135.662 25.216C135.662 25.088 135.684 25.024 135.726 25.024H147.182C147.396 25.024 147.502 25.1093 147.502 25.28L147.534 27.264C147.556 27.6693 147.566 28.1813 147.566 28.8C147.566 28.864 147.502 28.896 147.374 28.896C147.268 28.896 147.204 28.864 147.182 28.8C146.777 27.8613 146.158 27.072 145.326 26.432C144.494 25.7707 143.652 25.44 142.798 25.44H142.574C142.105 25.44 141.753 25.504 141.518 25.632C141.305 25.7387 141.156 25.9413 141.07 26.24C141.006 26.5387 140.974 27.008 140.974 27.648V31.968C142.596 31.9467 143.79 31.8827 144.558 31.776C145.326 31.6693 145.764 31.616 145.87 31.616C146.02 31.616 146.094 31.8507 146.094 32.32C146.094 32.5333 146.073 32.7253 146.03 32.896C145.988 33.0667 145.934 33.152 145.87 33.152C145.742 33.152 145.294 33.0987 144.526 32.992C143.758 32.8853 142.574 32.8107 140.974 32.768V37.28C140.974 37.92 141.006 38.3893 141.07 38.688C141.156 38.9867 141.305 39.2 141.518 39.328C141.753 39.4347 142.105 39.488 142.574 39.488H142.926C143.929 39.488 144.921 39.136 145.902 38.432C146.884 37.7067 147.609 36.8107 148.078 35.744ZM167.35 28.768C169.142 28.9813 170.561 29.5787 171.606 30.56C172.673 31.5413 173.206 32.7573 173.206 34.208C173.206 35.3173 172.886 36.32 172.246 37.216C171.606 38.112 170.721 38.8267 169.59 39.36C168.459 39.872 167.201 40.128 165.814 40.128C165.217 40.128 164.534 40.096 163.766 40.032C163.467 40.0107 163.094 39.9893 162.646 39.968C162.219 39.9467 161.739 39.936 161.206 39.936L158.87 39.968C158.443 39.9893 157.867 40 157.142 40C157.078 40 157.046 39.936 157.046 39.808C157.046 39.68 157.078 39.616 157.142 39.616C157.761 39.616 158.23 39.5627 158.55 39.456C158.87 39.328 159.094 39.1147 159.222 38.816C159.371 38.496 159.446 38.0267 159.446 37.408V22.592C159.446 21.696 159.297 21.1093 158.998 20.832C158.699 20.5333 158.091 20.384 157.174 20.384C157.131 20.384 157.11 20.32 157.11 20.192C157.11 20.064 157.131 20 157.174 20L158.87 20.032C159.851 20.0747 160.63 20.096 161.206 20.096C161.803 20.096 162.422 20.064 163.062 20C163.275 19.9787 163.595 19.9573 164.022 19.936C164.449 19.9147 164.822 19.904 165.142 19.904C167.083 19.904 168.587 20.256 169.654 20.96C170.721 21.664 171.254 22.688 171.254 24.032C171.254 25.056 170.913 25.984 170.23 26.816C169.569 27.648 168.609 28.2987 167.35 28.768ZM164.662 20.608C164.043 20.608 163.617 20.7573 163.382 21.056C163.147 21.3333 163.03 21.8667 163.03 22.656V28.736L164.31 28.768C165.419 28.768 166.273 28.352 166.87 27.52C167.467 26.688 167.766 25.6213 167.766 24.32C167.766 23.104 167.499 22.1867 166.966 21.568C166.433 20.928 165.665 20.608 164.662 20.608ZM165.27 39.328C168.065 39.328 169.462 37.8773 169.462 34.976C169.462 33.3333 169.067 32.032 168.278 31.072C167.489 30.112 166.294 29.632 164.694 29.632C164.075 29.632 163.521 29.6533 163.03 29.696V37.408C163.03 38.112 163.169 38.6133 163.446 38.912C163.723 39.1893 164.331 39.328 165.27 39.328ZM187.533 35.744C187.576 35.68 187.651 35.648 187.757 35.648C187.864 35.648 187.917 35.68 187.917 35.744C187.768 37.28 187.693 38.5387 187.693 39.52C187.693 39.6907 187.661 39.8187 187.597 39.904C187.533 39.968 187.405 40 187.213 40H175.181C175.139 40 175.117 39.936 175.117 39.808C175.117 39.68 175.139 39.616 175.181 39.616C175.8 39.616 176.248 39.5627 176.525 39.456C176.803 39.3493 176.995 39.1467 177.101 38.848C177.208 38.528 177.261 38.048 177.261 37.408V27.616C177.261 26.976 177.208 26.5067 177.101 26.208C176.995 25.9093 176.792 25.7067 176.493 25.6C176.216 25.472 175.779 25.408 175.181 25.408C175.139 25.408 175.117 25.344 175.117 25.216C175.117 25.088 175.139 25.024 175.181 25.024H186.637C186.851 25.024 186.957 25.1093 186.957 25.28L186.989 27.264C187.011 27.6693 187.021 28.1813 187.021 28.8C187.021 28.864 186.957 28.896 186.829 28.896C186.723 28.896 186.659 28.864 186.637 28.8C186.232 27.8613 185.613 27.072 184.781 26.432C183.949 25.7707 183.107 25.44 182.253 25.44H182.029C181.56 25.44 181.208 25.504 180.973 25.632C180.76 25.7387 180.611 25.9413 180.525 26.24C180.461 26.5387 180.429 27.008 180.429 27.648V31.968C182.051 31.9467 183.245 31.8827 184.013 31.776C184.781 31.6693 185.219 31.616 185.325 31.616C185.475 31.616 185.549 31.8507 185.549 32.32C185.549 32.5333 185.528 32.7253 185.485 32.896C185.443 33.0667 185.389 33.152 185.325 33.152C185.197 33.152 184.749 33.0987 183.981 32.992C183.213 32.8853 182.029 32.8107 180.429 32.768V37.28C180.429 37.92 180.461 38.3893 180.525 38.688C180.611 38.9867 180.76 39.2 180.973 39.328C181.208 39.4347 181.56 39.488 182.029 39.488H182.381C183.384 39.488 184.376 39.136 185.357 38.432C186.339 37.7067 187.064 36.8107 187.533 35.744ZM194.473 37.28C194.473 37.856 194.526 38.2827 194.633 38.56C194.74 38.8373 194.942 39.04 195.241 39.168C195.561 39.2747 196.03 39.328 196.649 39.328H197.001C198.217 39.328 199.326 38.9333 200.329 38.144C201.332 37.3547 202.068 36.288 202.537 34.944C202.558 34.9013 202.622 34.8907 202.729 34.912C202.857 34.912 202.921 34.9333 202.921 34.976C202.772 36.1067 202.697 37.6213 202.697 39.52C202.697 39.6907 202.654 39.8187 202.569 39.904C202.505 39.968 202.377 40 202.185 40H189.385C189.342 40 189.321 39.936 189.321 39.808C189.321 39.68 189.342 39.616 189.385 39.616C189.94 39.616 190.345 39.5627 190.601 39.456C190.857 39.3493 191.028 39.1467 191.113 38.848C191.22 38.528 191.273 38.048 191.273 37.408V27.616C191.273 26.976 191.22 26.5067 191.113 26.208C191.028 25.9093 190.857 25.7067 190.601 25.6C190.345 25.472 189.94 25.408 189.385 25.408C189.342 25.408 189.321 25.344 189.321 25.216C189.321 25.088 189.342 25.024 189.385 25.024L190.953 25.056C191.849 25.0987 192.542 25.12 193.033 25.12C193.588 25.12 194.313 25.0987 195.209 25.056L196.681 25.024C196.745 25.024 196.777 25.088 196.777 25.216C196.777 25.344 196.745 25.408 196.681 25.408C196.041 25.408 195.561 25.472 195.241 25.6C194.942 25.7067 194.74 25.92 194.633 26.24C194.526 26.5387 194.473 27.008 194.473 27.648V37.28ZM209.218 37.408C209.218 38.048 209.271 38.528 209.378 38.848C209.484 39.1467 209.676 39.3493 209.954 39.456C210.231 39.5627 210.679 39.616 211.298 39.616C211.34 39.616 211.362 39.68 211.362 39.808C211.362 39.936 211.34 40 211.298 40C210.636 40 210.124 39.9893 209.762 39.968L207.586 39.936L205.506 39.968C205.122 39.9893 204.588 40 203.906 40C203.863 40 203.842 39.936 203.842 39.808C203.842 39.68 203.863 39.616 203.906 39.616C204.524 39.616 204.972 39.5627 205.25 39.456C205.548 39.3493 205.751 39.1467 205.858 38.848C205.964 38.528 206.018 38.048 206.018 37.408V27.616C206.018 26.976 205.964 26.5067 205.858 26.208C205.751 25.9093 205.548 25.7067 205.25 25.6C204.972 25.472 204.524 25.408 203.906 25.408C203.863 25.408 203.842 25.344 203.842 25.216C203.842 25.088 203.863 25.024 203.906 25.024L205.506 25.056C206.359 25.0987 207.052 25.12 207.586 25.12C208.162 25.12 208.898 25.0987 209.794 25.056L211.298 25.024C211.34 25.024 211.362 25.088 211.362 25.216C211.362 25.344 211.34 25.408 211.298 25.408C210.7 25.408 210.252 25.472 209.954 25.6C209.676 25.728 209.484 25.952 209.378 26.272C209.271 26.5707 209.218 27.04 209.218 27.68V37.408ZM225.113 35.744C225.156 35.68 225.231 35.648 225.337 35.648C225.444 35.648 225.497 35.68 225.497 35.744C225.348 37.28 225.273 38.5387 225.273 39.52C225.273 39.6907 225.241 39.8187 225.177 39.904C225.113 39.968 224.985 40 224.793 40H212.761C212.719 40 212.697 39.936 212.697 39.808C212.697 39.68 212.719 39.616 212.761 39.616C213.38 39.616 213.828 39.5627 214.105 39.456C214.383 39.3493 214.575 39.1467 214.681 38.848C214.788 38.528 214.841 38.048 214.841 37.408V27.616C214.841 26.976 214.788 26.5067 214.681 26.208C214.575 25.9093 214.372 25.7067 214.073 25.6C213.796 25.472 213.359 25.408 212.761 25.408C212.719 25.408 212.697 25.344 212.697 25.216C212.697 25.088 212.719 25.024 212.761 25.024H224.217C224.431 25.024 224.537 25.1093 224.537 25.28L224.569 27.264C224.591 27.6693 224.601 28.1813 224.601 28.8C224.601 28.864 224.537 28.896 224.409 28.896C224.303 28.896 224.239 28.864 224.217 28.8C223.812 27.8613 223.193 27.072 222.361 26.432C221.529 25.7707 220.687 25.44 219.833 25.44H219.609C219.14 25.44 218.788 25.504 218.553 25.632C218.34 25.7387 218.191 25.9413 218.105 26.24C218.041 26.5387 218.009 27.008 218.009 27.648V31.968C219.631 31.9467 220.825 31.8827 221.593 31.776C222.361 31.6693 222.799 31.616 222.905 31.616C223.055 31.616 223.129 31.8507 223.129 32.32C223.129 32.5333 223.108 32.7253 223.065 32.896C223.023 33.0667 222.969 33.152 222.905 33.152C222.777 33.152 222.329 33.0987 221.561 32.992C220.793 32.8853 219.609 32.8107 218.009 32.768V37.28C218.009 37.92 218.041 38.3893 218.105 38.688C218.191 38.9867 218.34 39.2 218.553 39.328C218.788 39.4347 219.14 39.488 219.609 39.488H219.961C220.964 39.488 221.956 39.136 222.937 38.432C223.919 37.7067 224.644 36.8107 225.113 35.744ZM242.517 25.024C242.56 25.024 242.581 25.088 242.581 25.216C242.581 25.344 242.56 25.408 242.517 25.408C241.898 25.408 241.333 25.664 240.821 26.176C240.309 26.688 239.882 27.392 239.541 28.288L235.029 39.968C235.008 40.0533 234.89 40.096 234.677 40.096C234.464 40.096 234.346 40.0533 234.325 39.968L228.405 27.68C227.978 26.784 227.605 26.1867 227.285 25.888C226.965 25.568 226.528 25.408 225.973 25.408C225.909 25.408 225.877 25.344 225.877 25.216C225.877 25.088 225.909 25.024 225.973 25.024L227.381 25.056C228.192 25.0987 228.97 25.12 229.717 25.12C230.314 25.12 231.018 25.0987 231.829 25.056L233.237 25.024C233.28 25.024 233.301 25.088 233.301 25.216C233.301 25.344 233.28 25.408 233.237 25.408C232.128 25.408 231.573 25.7387 231.573 26.4C231.573 26.6347 231.658 26.9547 231.829 27.36L235.829 35.744L238.677 28.096C238.848 27.6267 238.933 27.2213 238.933 26.88C238.933 25.8987 238.272 25.408 236.949 25.408C236.885 25.408 236.853 25.344 236.853 25.216C236.853 25.088 236.885 25.024 236.949 25.024L238.069 25.056C238.752 25.0987 239.424 25.12 240.085 25.12C240.448 25.12 240.864 25.0987 241.333 25.056L242.517 25.024ZM254.99 35.744C255.032 35.68 255.107 35.648 255.214 35.648C255.32 35.648 255.374 35.68 255.374 35.744C255.224 37.28 255.15 38.5387 255.15 39.52C255.15 39.6907 255.118 39.8187 255.054 39.904C254.99 39.968 254.862 40 254.67 40H242.638C242.595 40 242.574 39.936 242.574 39.808C242.574 39.68 242.595 39.616 242.638 39.616C243.256 39.616 243.704 39.5627 243.982 39.456C244.259 39.3493 244.451 39.1467 244.558 38.848C244.664 38.528 244.718 38.048 244.718 37.408V27.616C244.718 26.976 244.664 26.5067 244.558 26.208C244.451 25.9093 244.248 25.7067 243.95 25.6C243.672 25.472 243.235 25.408 242.638 25.408C242.595 25.408 242.574 25.344 242.574 25.216C242.574 25.088 242.595 25.024 242.638 25.024H254.094C254.307 25.024 254.414 25.1093 254.414 25.28L254.446 27.264C254.467 27.6693 254.478 28.1813 254.478 28.8C254.478 28.864 254.414 28.896 254.286 28.896C254.179 28.896 254.115 28.864 254.094 28.8C253.688 27.8613 253.07 27.072 252.238 26.432C251.406 25.7707 250.563 25.44 249.71 25.44H249.486C249.016 25.44 248.664 25.504 248.43 25.632C248.216 25.7387 248.067 25.9413 247.982 26.24C247.918 26.5387 247.886 27.008 247.886 27.648V31.968C249.507 31.9467 250.702 31.8827 251.47 31.776C252.238 31.6693 252.675 31.616 252.782 31.616C252.931 31.616 253.006 31.8507 253.006 32.32C253.006 32.5333 252.984 32.7253 252.942 32.896C252.899 33.0667 252.846 33.152 252.782 33.152C252.654 33.152 252.206 33.0987 251.438 32.992C250.67 32.8853 249.486 32.8107 247.886 32.768V37.28C247.886 37.92 247.918 38.3893 247.982 38.688C248.067 38.9867 248.216 39.2 248.43 39.328C248.664 39.4347 249.016 39.488 249.486 39.488H249.838C250.84 39.488 251.832 39.136 252.814 38.432C253.795 37.7067 254.52 36.8107 254.99 35.744ZM270.005 37.408C270.005 38.0693 270.059 38.5493 270.165 38.848C270.272 39.1467 270.475 39.3493 270.773 39.456C271.093 39.5627 271.595 39.616 272.277 39.616C272.341 39.616 272.373 39.68 272.373 39.808C272.373 39.936 272.341 40 272.277 40C271.573 40 271.019 39.9893 270.613 39.968L268.181 39.936L265.813 39.968C265.387 39.9893 264.811 40 264.085 40C264.043 40 264.021 39.936 264.021 39.808C264.021 39.68 264.043 39.616 264.085 39.616C264.768 39.616 265.269 39.5627 265.589 39.456C265.909 39.3493 266.123 39.1467 266.229 38.848C266.357 38.528 266.421 38.048 266.421 37.408V22.592C266.421 21.952 266.357 21.4827 266.229 21.184C266.123 20.8853 265.909 20.6827 265.589 20.576C265.269 20.448 264.768 20.384 264.085 20.384C264.043 20.384 264.021 20.32 264.021 20.192C264.021 20.064 264.043 20 264.085 20L265.813 20.032C266.795 20.0747 267.584 20.096 268.181 20.096C268.843 20.096 269.664 20.0747 270.645 20.032L272.277 20C272.341 20 272.373 20.064 272.373 20.192C272.373 20.32 272.341 20.384 272.277 20.384C271.616 20.384 271.125 20.448 270.805 20.576C270.485 20.704 270.272 20.928 270.165 21.248C270.059 21.5467 270.005 22.016 270.005 22.656V37.408ZM290.767 25.024C290.831 25.024 290.863 25.088 290.863 25.216C290.863 25.344 290.831 25.408 290.767 25.408C289.913 25.408 289.284 25.7067 288.879 26.304C288.473 26.9013 288.271 27.84 288.271 29.12V40.352C288.271 40.3947 288.217 40.4267 288.111 40.448C288.004 40.4693 287.929 40.4587 287.887 40.416L276.655 27.744V35.936C276.655 37.1947 276.847 38.1227 277.231 38.72C277.636 39.3173 278.255 39.616 279.087 39.616C279.151 39.616 279.183 39.68 279.183 39.808C279.183 39.936 279.151 40 279.087 40C278.575 40 278.18 39.9893 277.903 39.968L276.367 39.936L274.831 39.968C274.532 39.9893 274.105 40 273.551 40C273.508 40 273.487 39.936 273.487 39.808C273.487 39.68 273.508 39.616 273.551 39.616C274.404 39.616 275.033 39.3173 275.439 38.72C275.844 38.1227 276.047 37.1947 276.047 35.936V27.104C275.471 26.5067 274.959 26.08 274.511 25.824C274.084 25.5467 273.668 25.408 273.263 25.408C273.22 25.408 273.199 25.344 273.199 25.216C273.199 25.088 273.22 25.024 273.263 25.024L275.055 25.056C275.225 25.056 275.46 25.056 275.759 25.056C276.057 25.0347 276.815 25.024 278.031 25.024C278.201 25.024 278.34 25.0773 278.447 25.184C278.575 25.2907 278.767 25.4933 279.023 25.792C279.193 26.048 279.428 26.3467 279.727 26.688L287.631 35.52V29.12C287.631 27.84 287.439 26.9013 287.055 26.304C286.671 25.7067 286.052 25.408 285.199 25.408C285.156 25.408 285.135 25.344 285.135 25.216C285.135 25.088 285.156 25.024 285.199 25.024L286.415 25.056C287.055 25.0987 287.556 25.12 287.919 25.12C288.281 25.12 288.804 25.0987 289.487 25.056L290.767 25.024Z" fill="white"/>
<path d="M15.768 295.288L12.024 291.808C11.208 292.048 10.352 292.168 9.456 292.168C7.904 292.168 6.496 291.808 5.232 291.088C3.968 290.352 2.968 289.336 2.232 288.04C1.512 286.728 1.152 285.248 1.152 283.6C1.152 281.952 1.512 280.48 2.232 279.184C2.968 277.872 3.968 276.856 5.232 276.136C6.496 275.4 7.904 275.032 9.456 275.032C11.024 275.032 12.44 275.4 13.704 276.136C14.968 276.856 15.96 277.872 16.68 279.184C17.4 280.48 17.76 281.952 17.76 283.6C17.76 285.296 17.384 286.808 16.632 288.136C15.88 289.448 14.848 290.456 13.536 291.16L18.024 295.288H15.768ZM2.88 283.6C2.88 285.024 3.168 286.28 3.744 287.368C4.32 288.44 5.104 289.264 6.096 289.84C7.088 290.416 8.208 290.704 9.456 290.704C10.704 290.704 11.824 290.416 12.816 289.84C13.808 289.264 14.592 288.44 15.168 287.368C15.744 286.28 16.032 285.024 16.032 283.6C16.032 282.176 15.744 280.928 15.168 279.856C14.592 278.784 13.808 277.96 12.816 277.384C11.824 276.808 10.704 276.52 9.456 276.52C8.208 276.52 7.088 276.808 6.096 277.384C5.104 277.96 4.32 278.784 3.744 279.856C3.168 280.928 2.88 282.176 2.88 283.6ZM31.7295 278.896V292H30.0495V289.696C29.6655 290.512 29.0735 291.136 28.2735 291.568C27.4735 292 26.5775 292.216 25.5855 292.216C24.0175 292.216 22.7375 291.736 21.7455 290.776C20.7535 289.8 20.2575 288.392 20.2575 286.552V278.896H21.9135V286.36C21.9135 287.784 22.2655 288.872 22.9695 289.624C23.6895 290.376 24.6655 290.752 25.8975 290.752C27.1615 290.752 28.1695 290.352 28.9215 289.552C29.6735 288.752 30.0495 287.576 30.0495 286.024V278.896H31.7295ZM46.941 284.776C46.941 285.352 46.925 285.792 46.893 286.096H36.021C36.069 287.088 36.309 287.936 36.741 288.64C37.173 289.344 37.741 289.88 38.445 290.248C39.149 290.6 39.917 290.776 40.749 290.776C41.837 290.776 42.749 290.512 43.485 289.984C44.237 289.456 44.733 288.744 44.973 287.848H46.749C46.429 289.128 45.741 290.176 44.685 290.992C43.645 291.792 42.333 292.192 40.749 292.192C39.517 292.192 38.413 291.92 37.437 291.376C36.461 290.816 35.693 290.032 35.133 289.024C34.589 288 34.317 286.808 34.317 285.448C34.317 284.088 34.589 282.896 35.133 281.872C35.677 280.848 36.437 280.064 37.413 279.52C38.389 278.976 39.501 278.704 40.749 278.704C41.997 278.704 43.085 278.976 44.013 279.52C44.957 280.064 45.677 280.8 46.173 281.728C46.685 282.64 46.941 283.656 46.941 284.776ZM45.237 284.728C45.253 283.752 45.053 282.92 44.637 282.232C44.237 281.544 43.685 281.024 42.981 280.672C42.277 280.32 41.509 280.144 40.677 280.144C39.429 280.144 38.365 280.544 37.485 281.344C36.605 282.144 36.117 283.272 36.021 284.728H45.237ZM54.0467 292.192C52.5427 292.192 51.3107 291.848 50.3507 291.16C49.4067 290.456 48.8787 289.504 48.7667 288.304H50.4947C50.5747 289.04 50.9187 289.64 51.5267 290.104C52.1507 290.552 52.9827 290.776 54.0227 290.776C54.9347 290.776 55.6467 290.56 56.1587 290.128C56.6867 289.696 56.9507 289.16 56.9507 288.52C56.9507 288.072 56.8067 287.704 56.5187 287.416C56.2307 287.128 55.8627 286.904 55.4147 286.744C54.9827 286.568 54.3907 286.384 53.6387 286.192C52.6627 285.936 51.8707 285.68 51.2627 285.424C50.6547 285.168 50.1347 284.792 49.7027 284.296C49.2867 283.784 49.0787 283.104 49.0787 282.256C49.0787 281.616 49.2707 281.024 49.6547 280.48C50.0387 279.936 50.5827 279.504 51.2867 279.184C51.9907 278.864 52.7907 278.704 53.6867 278.704C55.0947 278.704 56.2307 279.064 57.0947 279.784C57.9587 280.488 58.4227 281.464 58.4867 282.712H56.8067C56.7587 281.944 56.4547 281.328 55.8947 280.864C55.3507 280.384 54.5987 280.144 53.6387 280.144C52.7907 280.144 52.1027 280.344 51.5747 280.744C51.0467 281.144 50.7827 281.64 50.7827 282.232C50.7827 282.744 50.9347 283.168 51.2387 283.504C51.5587 283.824 51.9507 284.08 52.4147 284.272C52.8787 284.448 53.5027 284.648 54.2867 284.872C55.2307 285.128 55.9827 285.376 56.5427 285.616C57.1027 285.856 57.5827 286.208 57.9827 286.672C58.3827 287.136 58.5907 287.752 58.6067 288.52C58.6067 289.224 58.4147 289.856 58.0307 290.416C57.6467 290.96 57.1107 291.392 56.4227 291.712C55.7347 292.032 54.9427 292.192 54.0467 292.192ZM63.4731 280.312V288.448C63.4731 289.248 63.6251 289.8 63.9291 290.104C64.2331 290.408 64.7691 290.56 65.5371 290.56H67.0731V292H65.2731C64.0891 292 63.2091 291.728 62.6331 291.184C62.0571 290.624 61.7691 289.712 61.7691 288.448V280.312H59.9451V278.896H61.7691V275.608H63.4731V278.896H67.0731V280.312H63.4731ZM70.2037 276.424C69.8677 276.424 69.5797 276.304 69.3397 276.064C69.0997 275.824 68.9797 275.528 68.9797 275.176C68.9797 274.824 69.0997 274.536 69.3397 274.312C69.5797 274.072 69.8677 273.952 70.2037 273.952C70.5397 273.952 70.8277 274.072 71.0677 274.312C71.3077 274.536 71.4277 274.824 71.4277 275.176C71.4277 275.528 71.3077 275.824 71.0677 276.064C70.8277 276.304 70.5397 276.424 70.2037 276.424ZM71.0437 278.896V292H69.3637V278.896H71.0437ZM80.1041 292.192C78.8721 292.192 77.7601 291.92 76.7681 291.376C75.7921 290.816 75.0161 290.032 74.4401 289.024C73.8801 288 73.6001 286.808 73.6001 285.448C73.6001 284.088 73.8881 282.904 74.4641 281.896C75.0401 280.872 75.8241 280.088 76.8161 279.544C77.8081 278.984 78.9201 278.704 80.1521 278.704C81.3841 278.704 82.4961 278.984 83.4881 279.544C84.4961 280.088 85.2801 280.872 85.8401 281.896C86.4161 282.904 86.7041 284.088 86.7041 285.448C86.7041 286.792 86.4161 287.976 85.8401 289C85.2641 290.024 84.4721 290.816 83.4641 291.376C82.4561 291.92 81.3361 292.192 80.1041 292.192ZM80.1041 290.728C80.9681 290.728 81.7681 290.536 82.5041 290.152C83.2401 289.752 83.8321 289.16 84.2801 288.376C84.7441 287.576 84.9761 286.6 84.9761 285.448C84.9761 284.296 84.7521 283.328 84.3041 282.544C83.8561 281.744 83.2641 281.152 82.5281 280.768C81.7921 280.368 80.9921 280.168 80.1281 280.168C79.2641 280.168 78.4641 280.368 77.7281 280.768C76.9921 281.152 76.4001 281.744 75.9521 282.544C75.5201 283.328 75.3041 284.296 75.3041 285.448C75.3041 286.6 75.5201 287.576 75.9521 288.376C76.4001 289.16 76.9841 289.752 77.7041 290.152C78.4401 290.536 79.2401 290.728 80.1041 290.728ZM95.4306 278.656C96.9986 278.656 98.2786 279.144 99.2706 280.12C100.263 281.08 100.759 282.48 100.759 284.32V292H99.1026V284.512C99.1026 283.088 98.7426 282 98.0226 281.248C97.3186 280.496 96.3506 280.12 95.1186 280.12C93.8546 280.12 92.8466 280.52 92.0946 281.32C91.3426 282.12 90.9666 283.296 90.9666 284.848V292H89.2866V278.896H90.9666V281.128C91.3826 280.328 91.9826 279.72 92.7666 279.304C93.5506 278.872 94.4386 278.656 95.4306 278.656ZM104.834 276.424C104.498 276.424 104.21 276.304 103.97 276.064C103.73 275.824 103.61 275.528 103.61 275.176C103.61 274.824 103.73 274.536 103.97 274.312C104.21 274.072 104.498 273.952 104.834 273.952C105.17 273.952 105.458 274.072 105.698 274.312C105.938 274.536 106.058 274.824 106.058 275.176C106.058 275.528 105.938 275.824 105.698 276.064C105.458 276.304 105.17 276.424 104.834 276.424ZM105.674 278.896V292H103.994V278.896H105.674ZM115.142 278.656C116.71 278.656 117.99 279.144 118.982 280.12C119.974 281.08 120.47 282.48 120.47 284.32V292H118.814V284.512C118.814 283.088 118.454 282 117.734 281.248C117.03 280.496 116.062 280.12 114.83 280.12C113.566 280.12 112.558 280.52 111.806 281.32C111.054 282.12 110.678 283.296 110.678 284.848V292H108.998V278.896H110.678V281.128C111.094 280.328 111.694 279.72 112.478 279.304C113.262 278.872 114.15 278.656 115.142 278.656ZM129.202 278.704C130.434 278.704 131.506 278.992 132.418 279.568C133.33 280.144 133.986 280.872 134.386 281.752V278.896H136.066V292.336C136.066 293.536 135.802 294.6 135.274 295.528C134.762 296.456 134.042 297.168 133.114 297.664C132.186 298.176 131.13 298.432 129.946 298.432C128.266 298.432 126.866 298.032 125.746 297.232C124.642 296.432 123.954 295.344 123.682 293.968H125.338C125.626 294.88 126.17 295.608 126.97 296.152C127.786 296.696 128.778 296.968 129.946 296.968C130.794 296.968 131.554 296.784 132.226 296.416C132.898 296.064 133.426 295.536 133.81 294.832C134.194 294.128 134.386 293.296 134.386 292.336V289.096C133.97 289.992 133.306 290.736 132.394 291.328C131.498 291.904 130.434 292.192 129.202 292.192C128.002 292.192 126.922 291.912 125.962 291.352C125.018 290.792 124.274 290 123.73 288.976C123.202 287.952 122.938 286.768 122.938 285.424C122.938 284.08 123.202 282.904 123.73 281.896C124.274 280.872 125.018 280.088 125.962 279.544C126.922 278.984 128.002 278.704 129.202 278.704ZM134.386 285.448C134.386 284.392 134.17 283.464 133.738 282.664C133.306 281.864 132.714 281.248 131.962 280.816C131.226 280.384 130.41 280.168 129.514 280.168C128.586 280.168 127.754 280.376 127.018 280.792C126.282 281.208 125.698 281.816 125.266 282.616C124.85 283.4 124.642 284.336 124.642 285.424C124.642 286.496 124.85 287.44 125.266 288.256C125.698 289.056 126.282 289.672 127.018 290.104C127.754 290.52 128.586 290.728 129.514 290.728C130.41 290.728 131.226 290.512 131.962 290.08C132.714 289.648 133.306 289.032 133.738 288.232C134.17 287.432 134.386 286.504 134.386 285.448ZM161.919 275.44V292H160.239V278.776L154.335 292H153.111L147.207 278.824V292H145.527V275.44H147.303L153.711 289.792L160.119 275.44H161.919ZM166.09 276.424C165.754 276.424 165.466 276.304 165.226 276.064C164.986 275.824 164.866 275.528 164.866 275.176C164.866 274.824 164.986 274.536 165.226 274.312C165.466 274.072 165.754 273.952 166.09 273.952C166.426 273.952 166.714 274.072 166.954 274.312C167.194 274.536 167.314 274.824 167.314 275.176C167.314 275.528 167.194 275.824 166.954 276.064C166.714 276.304 166.426 276.424 166.09 276.424ZM166.93 278.896V292H165.25V278.896H166.93ZM176.399 278.656C177.967 278.656 179.247 279.144 180.239 280.12C181.231 281.08 181.727 282.48 181.727 284.32V292H180.071V284.512C180.071 283.088 179.711 282 178.991 281.248C178.287 280.496 177.319 280.12 176.087 280.12C174.823 280.12 173.815 280.52 173.063 281.32C172.311 282.12 171.935 283.296 171.935 284.848V292H170.255V278.896H171.935V281.128C172.351 280.328 172.951 279.72 173.735 279.304C174.519 278.872 175.407 278.656 176.399 278.656ZM184.194 285.424C184.194 284.08 184.466 282.904 185.01 281.896C185.554 280.872 186.298 280.088 187.242 279.544C188.202 278.984 189.282 278.704 190.482 278.704C191.634 278.704 192.674 278.984 193.602 279.544C194.53 280.104 195.21 280.832 195.642 281.728V274.24H197.322V292H195.642V289.072C195.242 289.984 194.586 290.736 193.674 291.328C192.762 291.904 191.69 292.192 190.458 292.192C189.258 292.192 188.178 291.912 187.218 291.352C186.274 290.792 185.53 290 184.986 288.976C184.458 287.952 184.194 286.768 184.194 285.424ZM195.642 285.448C195.642 284.392 195.426 283.464 194.994 282.664C194.562 281.864 193.97 281.248 193.218 280.816C192.482 280.384 191.666 280.168 190.77 280.168C189.842 280.168 189.01 280.376 188.274 280.792C187.538 281.208 186.954 281.816 186.522 282.616C186.106 283.4 185.898 284.336 185.898 285.424C185.898 286.496 186.106 287.44 186.522 288.256C186.954 289.056 187.538 289.672 188.274 290.104C189.01 290.52 189.842 290.728 190.77 290.728C191.666 290.728 192.482 290.512 193.218 290.08C193.97 289.648 194.562 289.032 194.994 288.232C195.426 287.432 195.642 286.504 195.642 285.448Z" fill="white"/>
<path d="M295.216 275.224L288.856 292H286.936L280.576 275.224H282.4L287.896 290.176L293.44 275.224H295.216ZM309.116 284.776C309.116 285.352 309.1 285.792 309.068 286.096H298.196C298.244 287.088 298.484 287.936 298.916 288.64C299.348 289.344 299.916 289.88 300.62 290.248C301.324 290.6 302.092 290.776 302.924 290.776C304.012 290.776 304.924 290.512 305.66 289.984C306.412 289.456 306.908 288.744 307.148 287.848H308.924C308.604 289.128 307.916 290.176 306.86 290.992C305.82 291.792 304.508 292.192 302.924 292.192C301.692 292.192 300.588 291.92 299.612 291.376C298.636 290.816 297.868 290.032 297.308 289.024C296.764 288 296.492 286.808 296.492 285.448C296.492 284.088 296.764 282.896 297.308 281.872C297.852 280.848 298.612 280.064 299.588 279.52C300.564 278.976 301.676 278.704 302.924 278.704C304.172 278.704 305.26 278.976 306.188 279.52C307.132 280.064 307.852 280.8 308.348 281.728C308.86 282.64 309.116 283.656 309.116 284.776ZM307.412 284.728C307.428 283.752 307.228 282.92 306.812 282.232C306.412 281.544 305.86 281.024 305.156 280.672C304.452 280.32 303.684 280.144 302.852 280.144C301.604 280.144 300.54 280.544 299.66 281.344C298.78 282.144 298.292 283.272 298.196 284.728H307.412ZM313.39 281.224C313.758 280.408 314.318 279.776 315.07 279.328C315.838 278.88 316.774 278.656 317.878 278.656V280.408H317.422C316.206 280.408 315.23 280.736 314.494 281.392C313.758 282.048 313.39 283.144 313.39 284.68V292H311.71V278.896H313.39V281.224ZM324.437 292.192C322.933 292.192 321.701 291.848 320.741 291.16C319.797 290.456 319.269 289.504 319.157 288.304H320.885C320.965 289.04 321.309 289.64 321.917 290.104C322.541 290.552 323.373 290.776 324.413 290.776C325.325 290.776 326.037 290.56 326.549 290.128C327.077 289.696 327.341 289.16 327.341 288.52C327.341 288.072 327.197 287.704 326.909 287.416C326.621 287.128 326.253 286.904 325.805 286.744C325.373 286.568 324.781 286.384 324.029 286.192C323.053 285.936 322.261 285.68 321.653 285.424C321.045 285.168 320.525 284.792 320.093 284.296C319.677 283.784 319.469 283.104 319.469 282.256C319.469 281.616 319.661 281.024 320.045 280.48C320.429 279.936 320.973 279.504 321.677 279.184C322.381 278.864 323.181 278.704 324.077 278.704C325.485 278.704 326.621 279.064 327.485 279.784C328.349 280.488 328.813 281.464 328.877 282.712H327.197C327.149 281.944 326.845 281.328 326.285 280.864C325.741 280.384 324.989 280.144 324.029 280.144C323.181 280.144 322.493 280.344 321.965 280.744C321.437 281.144 321.173 281.64 321.173 282.232C321.173 282.744 321.325 283.168 321.629 283.504C321.949 283.824 322.341 284.08 322.805 284.272C323.269 284.448 323.893 284.648 324.677 284.872C325.621 285.128 326.373 285.376 326.933 285.616C327.493 285.856 327.973 286.208 328.373 286.672C328.773 287.136 328.981 287.752 328.997 288.52C328.997 289.224 328.805 289.856 328.421 290.416C328.037 290.96 327.501 291.392 326.813 291.712C326.125 292.032 325.333 292.192 324.437 292.192ZM330.912 285.424C330.912 284.08 331.176 282.904 331.704 281.896C332.248 280.872 332.992 280.088 333.936 279.544C334.896 278.984 335.976 278.704 337.176 278.704C338.424 278.704 339.496 278.992 340.392 279.568C341.304 280.144 341.96 280.88 342.36 281.776V278.896H344.04V292H342.36V289.096C341.944 289.992 341.28 290.736 340.368 291.328C339.472 291.904 338.4 292.192 337.152 292.192C335.968 292.192 334.896 291.912 333.936 291.352C332.992 290.792 332.248 290 331.704 288.976C331.176 287.952 330.912 286.768 330.912 285.424ZM342.36 285.448C342.36 284.392 342.144 283.464 341.712 282.664C341.28 281.864 340.688 281.248 339.936 280.816C339.2 280.384 338.384 280.168 337.488 280.168C336.56 280.168 335.728 280.376 334.992 280.792C334.256 281.208 333.672 281.816 333.24 282.616C332.824 283.4 332.616 284.336 332.616 285.424C332.616 286.496 332.824 287.44 333.24 288.256C333.672 289.056 334.256 289.672 334.992 290.104C335.728 290.52 336.56 290.728 337.488 290.728C338.384 290.728 339.2 290.512 339.936 290.08C340.688 289.648 341.28 289.032 341.712 288.232C342.144 287.432 342.36 286.504 342.36 285.448ZM349.579 280.312V288.448C349.579 289.248 349.731 289.8 350.035 290.104C350.339 290.408 350.875 290.56 351.643 290.56H353.179V292H351.379C350.195 292 349.315 291.728 348.739 291.184C348.163 290.624 347.875 289.712 347.875 288.448V280.312H346.051V278.896H347.875V275.608H349.579V278.896H353.179V280.312H349.579ZM356.31 276.424C355.974 276.424 355.686 276.304 355.446 276.064C355.206 275.824 355.086 275.528 355.086 275.176C355.086 274.824 355.206 274.536 355.446 274.312C355.686 274.072 355.974 273.952 356.31 273.952C356.646 273.952 356.934 274.072 357.174 274.312C357.414 274.536 357.534 274.824 357.534 275.176C357.534 275.528 357.414 275.824 357.174 276.064C356.934 276.304 356.646 276.424 356.31 276.424ZM357.15 278.896V292H355.47V278.896H357.15ZM362.154 274.24V292H360.474V274.24H362.154ZM377.334 284.776C377.334 285.352 377.318 285.792 377.286 286.096H366.414C366.462 287.088 366.702 287.936 367.134 288.64C367.566 289.344 368.134 289.88 368.838 290.248C369.542 290.6 370.31 290.776 371.142 290.776C372.23 290.776 373.142 290.512 373.878 289.984C374.63 289.456 375.126 288.744 375.366 287.848H377.142C376.822 289.128 376.134 290.176 375.078 290.992C374.038 291.792 372.726 292.192 371.142 292.192C369.91 292.192 368.806 291.92 367.83 291.376C366.854 290.816 366.086 290.032 365.526 289.024C364.982 288 364.71 286.808 364.71 285.448C364.71 284.088 364.982 282.896 365.526 281.872C366.07 280.848 366.83 280.064 367.806 279.52C368.782 278.976 369.894 278.704 371.142 278.704C372.39 278.704 373.478 278.976 374.406 279.52C375.35 280.064 376.07 280.8 376.566 281.728C377.078 282.64 377.334 283.656 377.334 284.776ZM375.63 284.728C375.646 283.752 375.446 282.92 375.03 282.232C374.63 281.544 374.078 281.024 373.374 280.672C372.67 280.32 371.902 280.144 371.07 280.144C369.822 280.144 368.758 280.544 367.878 281.344C366.998 282.144 366.51 283.272 366.414 284.728H375.63Z" fill="white"/>
<path d="M372.6 484.224V501H370.92V484.224H372.6ZM391.524 487.656C393.06 487.656 394.308 488.144 395.268 489.12C396.244 490.08 396.732 491.48 396.732 493.32V501H395.076V493.512C395.076 492.088 394.732 491 394.044 490.248C393.356 489.496 392.42 489.12 391.236 489.12C390.004 489.12 389.02 489.528 388.284 490.344C387.548 491.16 387.18 492.344 387.18 493.896V501H385.524V493.512C385.524 492.088 385.18 491 384.492 490.248C383.804 489.496 382.86 489.12 381.66 489.12C380.428 489.12 379.444 489.528 378.708 490.344C377.972 491.16 377.604 492.344 377.604 493.896V501H375.924V487.896H377.604V490.152C378.02 489.336 378.612 488.72 379.38 488.304C380.148 487.872 381.004 487.656 381.948 487.656C383.084 487.656 384.076 487.928 384.924 488.472C385.788 489.016 386.412 489.816 386.796 490.872C387.148 489.832 387.748 489.04 388.596 488.496C389.46 487.936 390.436 487.656 391.524 487.656ZM401.639 490.776C402.055 489.896 402.711 489.168 403.607 488.592C404.519 488 405.599 487.704 406.847 487.704C408.031 487.704 409.095 487.984 410.039 488.544C410.999 489.088 411.743 489.872 412.271 490.896C412.815 491.904 413.087 493.08 413.087 494.424C413.087 495.768 412.815 496.952 412.271 497.976C411.743 499 410.999 499.792 410.039 500.352C409.095 500.912 408.031 501.192 406.847 501.192C405.615 501.192 404.543 500.904 403.631 500.328C402.719 499.736 402.055 499 401.639 498.12V507.192H399.983V487.896H401.639V490.776ZM411.383 494.424C411.383 493.336 411.167 492.4 410.735 491.616C410.319 490.816 409.743 490.208 409.007 489.792C408.271 489.376 407.439 489.168 406.511 489.168C405.615 489.168 404.791 489.384 404.039 489.816C403.303 490.248 402.719 490.864 402.287 491.664C401.855 492.464 401.639 493.392 401.639 494.448C401.639 495.504 401.855 496.432 402.287 497.232C402.719 498.032 403.303 498.648 404.039 499.08C404.791 499.512 405.615 499.728 406.511 499.728C407.439 499.728 408.271 499.52 409.007 499.104C409.743 498.672 410.319 498.056 410.735 497.256C411.167 496.44 411.383 495.496 411.383 494.424ZM417.379 490.224C417.747 489.408 418.307 488.776 419.059 488.328C419.827 487.88 420.763 487.656 421.867 487.656V489.408H421.411C420.195 489.408 419.219 489.736 418.483 490.392C417.747 491.048 417.379 492.144 417.379 493.68V501H415.699V487.896H417.379V490.224ZM429.65 501.192C428.418 501.192 427.306 500.92 426.314 500.376C425.338 499.816 424.562 499.032 423.986 498.024C423.426 497 423.146 495.808 423.146 494.448C423.146 493.088 423.434 491.904 424.01 490.896C424.586 489.872 425.37 489.088 426.362 488.544C427.354 487.984 428.466 487.704 429.698 487.704C430.93 487.704 432.042 487.984 433.034 488.544C434.042 489.088 434.826 489.872 435.386 490.896C435.962 491.904 436.25 493.088 436.25 494.448C436.25 495.792 435.962 496.976 435.386 498C434.81 499.024 434.018 499.816 433.01 500.376C432.002 500.92 430.882 501.192 429.65 501.192ZM429.65 499.728C430.514 499.728 431.314 499.536 432.05 499.152C432.786 498.752 433.378 498.16 433.826 497.376C434.29 496.576 434.522 495.6 434.522 494.448C434.522 493.296 434.298 492.328 433.85 491.544C433.402 490.744 432.81 490.152 432.074 489.768C431.338 489.368 430.538 489.168 429.674 489.168C428.81 489.168 428.01 489.368 427.274 489.768C426.538 490.152 425.946 490.744 425.498 491.544C425.066 492.328 424.85 493.296 424.85 494.448C424.85 495.6 425.066 496.576 425.498 497.376C425.946 498.16 426.53 498.752 427.25 499.152C427.986 499.536 428.786 499.728 429.65 499.728ZM443.488 499.368L447.904 487.896H449.68L444.424 501H442.528L437.272 487.896H439.072L443.488 499.368ZM452.318 485.424C451.982 485.424 451.694 485.304 451.454 485.064C451.214 484.824 451.094 484.528 451.094 484.176C451.094 483.824 451.214 483.536 451.454 483.312C451.694 483.072 451.982 482.952 452.318 482.952C452.654 482.952 452.942 483.072 453.182 483.312C453.422 483.536 453.542 483.824 453.542 484.176C453.542 484.528 453.422 484.824 453.182 485.064C452.942 485.304 452.654 485.424 452.318 485.424ZM453.158 487.896V501H451.478V487.896H453.158ZM462.626 487.656C464.194 487.656 465.474 488.144 466.466 489.12C467.458 490.08 467.954 491.48 467.954 493.32V501H466.298V493.512C466.298 492.088 465.938 491 465.218 490.248C464.514 489.496 463.546 489.12 462.314 489.12C461.05 489.12 460.042 489.52 459.29 490.32C458.538 491.12 458.162 492.296 458.162 493.848V501H456.482V487.896H458.162V490.128C458.578 489.328 459.178 488.72 459.962 488.304C460.746 487.872 461.634 487.656 462.626 487.656ZM476.685 487.704C477.917 487.704 478.989 487.992 479.901 488.568C480.813 489.144 481.469 489.872 481.869 490.752V487.896H483.549V501.336C483.549 502.536 483.285 503.6 482.757 504.528C482.245 505.456 481.525 506.168 480.597 506.664C479.669 507.176 478.613 507.432 477.429 507.432C475.749 507.432 474.349 507.032 473.229 506.232C472.125 505.432 471.437 504.344 471.165 502.968H472.821C473.109 503.88 473.653 504.608 474.453 505.152C475.269 505.696 476.261 505.968 477.429 505.968C478.277 505.968 479.037 505.784 479.709 505.416C480.381 505.064 480.909 504.536 481.293 503.832C481.677 503.128 481.869 502.296 481.869 501.336V498.096C481.453 498.992 480.789 499.736 479.877 500.328C478.981 500.904 477.917 501.192 476.685 501.192C475.485 501.192 474.405 500.912 473.445 500.352C472.501 499.792 471.757 499 471.213 497.976C470.685 496.952 470.421 495.768 470.421 494.424C470.421 493.08 470.685 491.904 471.213 490.896C471.757 489.872 472.501 489.088 473.445 488.544C474.405 487.984 475.485 487.704 476.685 487.704ZM481.869 494.448C481.869 493.392 481.653 492.464 481.221 491.664C480.789 490.864 480.197 490.248 479.445 489.816C478.709 489.384 477.893 489.168 476.997 489.168C476.069 489.168 475.237 489.376 474.501 489.792C473.765 490.208 473.181 490.816 472.749 491.616C472.333 492.4 472.125 493.336 472.125 494.424C472.125 495.496 472.333 496.44 472.749 497.256C473.181 498.056 473.765 498.672 474.501 499.104C475.237 499.52 476.069 499.728 476.997 499.728C477.893 499.728 478.709 499.512 479.445 499.08C480.197 498.648 480.789 498.032 481.221 497.232C481.653 496.432 481.869 495.504 481.869 494.448ZM502.731 497.016H495.099L493.635 501H491.859L497.979 484.44H499.875L505.971 501H504.195L502.731 497.016ZM502.227 495.624L498.915 486.552L495.603 495.624H502.227ZM509.867 483.24V501H508.187V483.24H509.867ZM530.471 487.896L526.367 501H524.687L521.063 490.008L517.439 501H515.735L511.631 487.896H513.335L516.599 499.296L520.271 487.896H521.951L525.575 499.32L528.815 487.896H530.471ZM531.514 494.424C531.514 493.08 531.778 491.904 532.306 490.896C532.85 489.872 533.594 489.088 534.538 488.544C535.498 487.984 536.578 487.704 537.778 487.704C539.026 487.704 540.098 487.992 540.994 488.568C541.906 489.144 542.562 489.88 542.962 490.776V487.896H544.642V501H542.962V498.096C542.546 498.992 541.882 499.736 540.97 500.328C540.074 500.904 539.002 501.192 537.754 501.192C536.57 501.192 535.498 500.912 534.538 500.352C533.594 499.792 532.85 499 532.306 497.976C531.778 496.952 531.514 495.768 531.514 494.424ZM542.962 494.448C542.962 493.392 542.746 492.464 542.314 491.664C541.882 490.864 541.29 490.248 540.538 489.816C539.802 489.384 538.986 489.168 538.09 489.168C537.162 489.168 536.33 489.376 535.594 489.792C534.858 490.208 534.274 490.816 533.842 491.616C533.426 492.4 533.218 493.336 533.218 494.424C533.218 495.496 533.426 496.44 533.842 497.256C534.274 498.056 534.858 498.672 535.594 499.104C536.33 499.52 537.162 499.728 538.09 499.728C538.986 499.728 539.802 499.512 540.538 499.08C541.29 498.648 541.882 498.032 542.314 497.232C542.746 496.432 542.962 495.504 542.962 494.448ZM558.797 487.896L551.021 507.168H549.269L551.813 500.928L546.437 487.896H548.285L552.749 499.08L557.069 487.896H558.797ZM565.107 501.192C563.603 501.192 562.371 500.848 561.411 500.16C560.467 499.456 559.939 498.504 559.827 497.304H561.555C561.635 498.04 561.979 498.64 562.587 499.104C563.211 499.552 564.043 499.776 565.083 499.776C565.995 499.776 566.707 499.56 567.219 499.128C567.747 498.696 568.011 498.16 568.011 497.52C568.011 497.072 567.867 496.704 567.579 496.416C567.291 496.128 566.923 495.904 566.475 495.744C566.043 495.568 565.451 495.384 564.699 495.192C563.723 494.936 562.931 494.68 562.323 494.424C561.715 494.168 561.195 493.792 560.763 493.296C560.347 492.784 560.139 492.104 560.139 491.256C560.139 490.616 560.331 490.024 560.715 489.48C561.099 488.936 561.643 488.504 562.347 488.184C563.051 487.864 563.851 487.704 564.747 487.704C566.155 487.704 567.291 488.064 568.155 488.784C569.019 489.488 569.483 490.464 569.547 491.712H567.867C567.819 490.944 567.515 490.328 566.955 489.864C566.411 489.384 565.659 489.144 564.699 489.144C563.851 489.144 563.163 489.344 562.635 489.744C562.107 490.144 561.843 490.64 561.843 491.232C561.843 491.744 561.995 492.168 562.299 492.504C562.619 492.824 563.011 493.08 563.475 493.272C563.939 493.448 564.563 493.648 565.347 493.872C566.291 494.128 567.043 494.376 567.603 494.616C568.163 494.856 568.643 495.208 569.043 495.672C569.443 496.136 569.651 496.752 569.667 497.52C569.667 498.224 569.475 498.856 569.091 499.416C568.707 499.96 568.171 500.392 567.483 500.712C566.795 501.032 566.003 501.192 565.107 501.192Z" fill="white"/>
<path d="M683.648 489.048C683.648 490.488 683.176 491.648 682.232 492.528C681.288 493.408 679.872 493.848 677.984 493.848H674.6V501H672.92V484.224H677.984C679.856 484.224 681.264 484.664 682.208 485.544C683.168 486.424 683.648 487.592 683.648 489.048ZM677.984 492.408C680.608 492.408 681.92 491.288 681.92 489.048C681.92 487.928 681.608 487.08 680.984 486.504C680.36 485.928 679.36 485.64 677.984 485.64H674.6V492.408H677.984ZM691.723 501.192C690.491 501.192 689.379 500.92 688.387 500.376C687.411 499.816 686.635 499.032 686.059 498.024C685.499 497 685.219 495.808 685.219 494.448C685.219 493.088 685.507 491.904 686.083 490.896C686.659 489.872 687.443 489.088 688.435 488.544C689.427 487.984 690.539 487.704 691.771 487.704C693.003 487.704 694.115 487.984 695.107 488.544C696.115 489.088 696.899 489.872 697.459 490.896C698.035 491.904 698.323 493.088 698.323 494.448C698.323 495.792 698.035 496.976 697.459 498C696.883 499.024 696.091 499.816 695.083 500.376C694.075 500.92 692.955 501.192 691.723 501.192ZM691.723 499.728C692.587 499.728 693.387 499.536 694.123 499.152C694.859 498.752 695.451 498.16 695.899 497.376C696.363 496.576 696.595 495.6 696.595 494.448C696.595 493.296 696.371 492.328 695.923 491.544C695.475 490.744 694.883 490.152 694.147 489.768C693.411 489.368 692.611 489.168 691.747 489.168C690.883 489.168 690.083 489.368 689.347 489.768C688.611 490.152 688.019 490.744 687.571 491.544C687.139 492.328 686.923 493.296 686.923 494.448C686.923 495.6 687.139 496.576 687.571 497.376C688.019 498.16 688.603 498.752 689.323 499.152C690.059 499.536 690.859 499.728 691.723 499.728ZM702.585 483.24V501H700.905V483.24H702.585ZM706.75 485.424C706.414 485.424 706.126 485.304 705.886 485.064C705.646 484.824 705.526 484.528 705.526 484.176C705.526 483.824 705.646 483.536 705.886 483.312C706.126 483.072 706.414 482.952 706.75 482.952C707.086 482.952 707.374 483.072 707.614 483.312C707.854 483.536 707.974 483.824 707.974 484.176C707.974 484.528 707.854 484.824 707.614 485.064C707.374 485.304 707.086 485.424 706.75 485.424ZM707.59 487.896V501H705.91V487.896H707.59ZM713.098 489.312V497.448C713.098 498.248 713.25 498.8 713.554 499.104C713.858 499.408 714.394 499.56 715.162 499.56H716.698V501H714.898C713.714 501 712.834 500.728 712.258 500.184C711.682 499.624 711.394 498.712 711.394 497.448V489.312H709.57V487.896H711.394V484.608H713.098V487.896H716.698V489.312H713.098ZM730.845 493.776C730.845 494.352 730.829 494.792 730.797 495.096H719.925C719.973 496.088 720.213 496.936 720.645 497.64C721.077 498.344 721.645 498.88 722.349 499.248C723.053 499.6 723.821 499.776 724.653 499.776C725.741 499.776 726.653 499.512 727.389 498.984C728.141 498.456 728.637 497.744 728.877 496.848H730.653C730.333 498.128 729.645 499.176 728.589 499.992C727.549 500.792 726.237 501.192 724.653 501.192C723.421 501.192 722.317 500.92 721.341 500.376C720.365 499.816 719.597 499.032 719.037 498.024C718.493 497 718.221 495.808 718.221 494.448C718.221 493.088 718.493 491.896 719.037 490.872C719.581 489.848 720.341 489.064 721.317 488.52C722.293 487.976 723.405 487.704 724.653 487.704C725.901 487.704 726.989 487.976 727.917 488.52C728.861 489.064 729.581 489.8 730.077 490.728C730.589 491.64 730.845 492.656 730.845 493.776ZM729.141 493.728C729.157 492.752 728.957 491.92 728.541 491.232C728.141 490.544 727.589 490.024 726.885 489.672C726.181 489.32 725.413 489.144 724.581 489.144C723.333 489.144 722.269 489.544 721.389 490.344C720.509 491.144 720.021 492.272 719.925 493.728H729.141ZM752.312 501L750.032 498.672C749.216 499.568 748.344 500.232 747.416 500.664C746.488 501.08 745.44 501.288 744.272 501.288C743.152 501.288 742.16 501.08 741.296 500.664C740.432 500.232 739.76 499.632 739.28 498.864C738.8 498.096 738.56 497.208 738.56 496.2C738.56 495.016 738.896 493.984 739.568 493.104C740.24 492.224 741.224 491.536 742.52 491.04C741.96 490.416 741.552 489.84 741.296 489.312C741.04 488.768 740.912 488.184 740.912 487.56C740.912 486.488 741.296 485.624 742.064 484.968C742.832 484.296 743.856 483.96 745.136 483.96C746.336 483.96 747.312 484.304 748.064 484.992C748.816 485.68 749.168 486.576 749.12 487.68H747.44C747.456 486.96 747.232 486.392 746.768 485.976C746.32 485.56 745.752 485.352 745.064 485.352C744.328 485.352 743.728 485.56 743.264 485.976C742.816 486.376 742.592 486.896 742.592 487.536C742.592 488.048 742.728 488.544 743 489.024C743.288 489.504 743.736 490.072 744.344 490.728L749.864 496.32C750.088 496.016 750.392 495.536 750.776 494.88L752.312 492.312H754.112L752.288 495.456C751.856 496.208 751.424 496.88 750.992 497.472L754.496 501H752.312ZM744.272 499.824C745.216 499.824 746.056 499.64 746.792 499.272C747.544 498.904 748.256 498.328 748.928 497.544L743.576 492.12C741.352 492.936 740.24 494.28 740.24 496.152C740.24 496.856 740.408 497.488 740.744 498.048C741.096 498.592 741.576 499.024 742.184 499.344C742.792 499.664 743.488 499.824 744.272 499.824ZM773.148 489.048C773.148 490.488 772.676 491.648 771.732 492.528C770.788 493.408 769.372 493.848 767.484 493.848H764.1V501H762.42V484.224H767.484C769.356 484.224 770.764 484.664 771.708 485.544C772.668 486.424 773.148 487.592 773.148 489.048ZM767.484 492.408C770.108 492.408 771.42 491.288 771.42 489.048C771.42 487.928 771.108 487.08 770.484 486.504C769.86 485.928 768.86 485.64 767.484 485.64H764.1V492.408H767.484ZM777.167 490.224C777.535 489.408 778.095 488.776 778.847 488.328C779.615 487.88 780.551 487.656 781.655 487.656V489.408H781.199C779.983 489.408 779.007 489.736 778.271 490.392C777.535 491.048 777.167 492.144 777.167 493.68V501H775.487V487.896H777.167V490.224ZM789.439 501.192C788.207 501.192 787.095 500.92 786.103 500.376C785.127 499.816 784.351 499.032 783.775 498.024C783.215 497 782.935 495.808 782.935 494.448C782.935 493.088 783.223 491.904 783.799 490.896C784.375 489.872 785.159 489.088 786.151 488.544C787.143 487.984 788.255 487.704 789.487 487.704C790.719 487.704 791.831 487.984 792.823 488.544C793.831 489.088 794.615 489.872 795.175 490.896C795.751 491.904 796.039 493.088 796.039 494.448C796.039 495.792 795.751 496.976 795.175 498C794.599 499.024 793.807 499.816 792.799 500.376C791.791 500.92 790.671 501.192 789.439 501.192ZM789.439 499.728C790.303 499.728 791.103 499.536 791.839 499.152C792.575 498.752 793.167 498.16 793.615 497.376C794.079 496.576 794.311 495.6 794.311 494.448C794.311 493.296 794.087 492.328 793.639 491.544C793.191 490.744 792.599 490.152 791.863 489.768C791.127 489.368 790.327 489.168 789.463 489.168C788.599 489.168 787.799 489.368 787.063 489.768C786.327 490.152 785.735 490.744 785.287 491.544C784.855 492.328 784.639 493.296 784.639 494.448C784.639 495.6 784.855 496.576 785.287 497.376C785.735 498.16 786.319 498.752 787.039 499.152C787.775 499.536 788.575 499.728 789.439 499.728ZM803.781 489.312H800.733V501H799.053V489.312H797.229V487.896H799.053V486.984C799.053 485.56 799.413 484.512 800.133 483.84C800.869 483.168 802.053 482.832 803.685 482.832V484.272C802.597 484.272 801.829 484.48 801.381 484.896C800.949 485.312 800.733 486.008 800.733 486.984V487.896H803.781V489.312ZM817.802 493.776C817.802 494.352 817.786 494.792 817.754 495.096H806.882C806.93 496.088 807.17 496.936 807.602 497.64C808.034 498.344 808.602 498.88 809.306 499.248C810.01 499.6 810.778 499.776 811.61 499.776C812.698 499.776 813.61 499.512 814.346 498.984C815.098 498.456 815.594 497.744 815.834 496.848H817.61C817.29 498.128 816.602 499.176 815.546 499.992C814.506 500.792 813.194 501.192 811.61 501.192C810.378 501.192 809.274 500.92 808.298 500.376C807.322 499.816 806.554 499.032 805.994 498.024C805.45 497 805.178 495.808 805.178 494.448C805.178 493.088 805.45 491.896 805.994 490.872C806.538 489.848 807.298 489.064 808.274 488.52C809.25 487.976 810.362 487.704 811.61 487.704C812.858 487.704 813.946 487.976 814.874 488.52C815.818 489.064 816.538 489.8 817.034 490.728C817.546 491.64 817.802 492.656 817.802 493.776ZM816.098 493.728C816.114 492.752 815.914 491.92 815.498 491.232C815.098 490.544 814.546 490.024 813.842 489.672C813.138 489.32 812.37 489.144 811.538 489.144C810.29 489.144 809.226 489.544 808.346 490.344C807.466 491.144 806.978 492.272 806.882 493.728H816.098ZM824.907 501.192C823.403 501.192 822.171 500.848 821.211 500.16C820.267 499.456 819.739 498.504 819.627 497.304H821.355C821.435 498.04 821.779 498.64 822.387 499.104C823.011 499.552 823.843 499.776 824.883 499.776C825.795 499.776 826.507 499.56 827.019 499.128C827.547 498.696 827.811 498.16 827.811 497.52C827.811 497.072 827.667 496.704 827.379 496.416C827.091 496.128 826.723 495.904 826.275 495.744C825.843 495.568 825.251 495.384 824.499 495.192C823.523 494.936 822.731 494.68 822.123 494.424C821.515 494.168 820.995 493.792 820.563 493.296C820.147 492.784 819.939 492.104 819.939 491.256C819.939 490.616 820.131 490.024 820.515 489.48C820.899 488.936 821.443 488.504 822.147 488.184C822.851 487.864 823.651 487.704 824.547 487.704C825.955 487.704 827.091 488.064 827.955 488.784C828.819 489.488 829.283 490.464 829.347 491.712H827.667C827.619 490.944 827.315 490.328 826.755 489.864C826.211 489.384 825.459 489.144 824.499 489.144C823.651 489.144 822.963 489.344 822.435 489.744C821.907 490.144 821.643 490.64 821.643 491.232C821.643 491.744 821.795 492.168 822.099 492.504C822.419 492.824 822.811 493.08 823.275 493.272C823.739 493.448 824.363 493.648 825.147 493.872C826.091 494.128 826.843 494.376 827.403 494.616C827.963 494.856 828.443 495.208 828.843 495.672C829.243 496.136 829.451 496.752 829.467 497.52C829.467 498.224 829.275 498.856 828.891 499.416C828.507 499.96 827.971 500.392 827.283 500.712C826.595 501.032 825.803 501.192 824.907 501.192ZM836.662 501.192C835.158 501.192 833.926 500.848 832.966 500.16C832.022 499.456 831.494 498.504 831.382 497.304H833.11C833.19 498.04 833.534 498.64 834.142 499.104C834.766 499.552 835.598 499.776 836.638 499.776C837.55 499.776 838.262 499.56 838.774 499.128C839.302 498.696 839.566 498.16 839.566 497.52C839.566 497.072 839.422 496.704 839.134 496.416C838.846 496.128 838.478 495.904 838.03 495.744C837.598 495.568 837.006 495.384 836.254 495.192C835.278 494.936 834.486 494.68 833.878 494.424C833.27 494.168 832.75 493.792 832.318 493.296C831.902 492.784 831.694 492.104 831.694 491.256C831.694 490.616 831.886 490.024 832.27 489.48C832.654 488.936 833.198 488.504 833.902 488.184C834.606 487.864 835.406 487.704 836.302 487.704C837.71 487.704 838.846 488.064 839.71 488.784C840.574 489.488 841.038 490.464 841.102 491.712H839.422C839.374 490.944 839.07 490.328 838.51 489.864C837.966 489.384 837.214 489.144 836.254 489.144C835.406 489.144 834.718 489.344 834.19 489.744C833.662 490.144 833.398 490.64 833.398 491.232C833.398 491.744 833.55 492.168 833.854 492.504C834.174 492.824 834.566 493.08 835.03 493.272C835.494 493.448 836.118 493.648 836.902 493.872C837.846 494.128 838.598 494.376 839.158 494.616C839.718 494.856 840.198 495.208 840.598 495.672C840.998 496.136 841.206 496.752 841.222 497.52C841.222 498.224 841.03 498.856 840.646 499.416C840.262 499.96 839.726 500.392 839.038 500.712C838.35 501.032 837.558 501.192 836.662 501.192ZM844.744 485.424C844.408 485.424 844.12 485.304 843.88 485.064C843.64 484.824 843.52 484.528 843.52 484.176C843.52 483.824 843.64 483.536 843.88 483.312C844.12 483.072 844.408 482.952 844.744 482.952C845.08 482.952 845.368 483.072 845.608 483.312C845.848 483.536 845.968 483.824 845.968 484.176C845.968 484.528 845.848 484.824 845.608 485.064C845.368 485.304 845.08 485.424 844.744 485.424ZM845.584 487.896V501H843.904V487.896H845.584ZM854.644 501.192C853.412 501.192 852.3 500.92 851.308 500.376C850.332 499.816 849.556 499.032 848.98 498.024C848.42 497 848.14 495.808 848.14 494.448C848.14 493.088 848.428 491.904 849.004 490.896C849.58 489.872 850.364 489.088 851.356 488.544C852.348 487.984 853.46 487.704 854.692 487.704C855.924 487.704 857.036 487.984 858.028 488.544C859.036 489.088 859.82 489.872 860.38 490.896C860.956 491.904 861.244 493.088 861.244 494.448C861.244 495.792 860.956 496.976 860.38 498C859.804 499.024 859.012 499.816 858.004 500.376C856.996 500.92 855.876 501.192 854.644 501.192ZM854.644 499.728C855.508 499.728 856.308 499.536 857.044 499.152C857.78 498.752 858.372 498.16 858.82 497.376C859.284 496.576 859.516 495.6 859.516 494.448C859.516 493.296 859.292 492.328 858.844 491.544C858.396 490.744 857.804 490.152 857.068 489.768C856.332 489.368 855.532 489.168 854.668 489.168C853.804 489.168 853.004 489.368 852.268 489.768C851.532 490.152 850.94 490.744 850.492 491.544C850.06 492.328 849.844 493.296 849.844 494.448C849.844 495.6 850.06 496.576 850.492 497.376C850.94 498.16 851.524 498.752 852.244 499.152C852.98 499.536 853.78 499.728 854.644 499.728ZM869.971 487.656C871.539 487.656 872.819 488.144 873.811 489.12C874.803 490.08 875.299 491.48 875.299 493.32V501H873.643V493.512C873.643 492.088 873.283 491 872.563 490.248C871.859 489.496 870.891 489.12 869.659 489.12C868.395 489.12 867.387 489.52 866.635 490.32C865.883 491.12 865.507 492.296 865.507 493.848V501H863.827V487.896H865.507V490.128C865.923 489.328 866.523 488.72 867.307 488.304C868.091 487.872 868.979 487.656 869.971 487.656ZM877.766 494.424C877.766 493.08 878.03 491.904 878.558 490.896C879.102 489.872 879.846 489.088 880.79 488.544C881.75 487.984 882.83 487.704 884.03 487.704C885.278 487.704 886.35 487.992 887.246 488.568C888.158 489.144 888.814 489.88 889.214 490.776V487.896H890.894V501H889.214V498.096C888.798 498.992 888.134 499.736 887.222 500.328C886.326 500.904 885.254 501.192 884.006 501.192C882.822 501.192 881.75 500.912 880.79 500.352C879.846 499.792 879.102 499 878.558 497.976C878.03 496.952 877.766 495.768 877.766 494.424ZM889.214 494.448C889.214 493.392 888.998 492.464 888.566 491.664C888.134 490.864 887.542 490.248 886.79 489.816C886.054 489.384 885.238 489.168 884.342 489.168C883.414 489.168 882.582 489.376 881.846 489.792C881.11 490.208 880.526 490.816 880.094 491.616C879.678 492.4 879.47 493.336 879.47 494.424C879.47 495.496 879.678 496.44 880.094 497.256C880.526 498.056 881.11 498.672 881.846 499.104C882.582 499.52 883.414 499.728 884.342 499.728C885.238 499.728 886.054 499.512 886.79 499.08C887.542 498.648 888.134 498.032 888.566 497.232C888.998 496.432 889.214 495.504 889.214 494.448ZM895.93 483.24V501H894.25V483.24H895.93Z" fill="white"/>
<path d="M813.6 290.632H819.624V292H811.92V275.224H813.6V290.632ZM827.278 292.192C826.046 292.192 824.934 291.92 823.942 291.376C822.966 290.816 822.19 290.032 821.614 289.024C821.054 288 820.774 286.808 820.774 285.448C820.774 284.088 821.062 282.904 821.638 281.896C822.214 280.872 822.998 280.088 823.99 279.544C824.982 278.984 826.094 278.704 827.326 278.704C828.558 278.704 829.67 278.984 830.662 279.544C831.67 280.088 832.454 280.872 833.014 281.896C833.59 282.904 833.878 284.088 833.878 285.448C833.878 286.792 833.59 287.976 833.014 289C832.438 290.024 831.646 290.816 830.638 291.376C829.63 291.92 828.51 292.192 827.278 292.192ZM827.278 290.728C828.142 290.728 828.942 290.536 829.678 290.152C830.414 289.752 831.006 289.16 831.454 288.376C831.918 287.576 832.15 286.6 832.15 285.448C832.15 284.296 831.926 283.328 831.478 282.544C831.03 281.744 830.438 281.152 829.702 280.768C828.966 280.368 828.166 280.168 827.302 280.168C826.438 280.168 825.638 280.368 824.902 280.768C824.166 281.152 823.574 281.744 823.126 282.544C822.694 283.328 822.478 284.296 822.478 285.448C822.478 286.6 822.694 287.576 823.126 288.376C823.574 289.16 824.158 289.752 824.878 290.152C825.614 290.536 826.414 290.728 827.278 290.728ZM847.26 278.896L839.484 298.168H837.732L840.276 291.928L834.9 278.896H836.748L841.212 290.08L845.532 278.896H847.26ZM848.29 285.424C848.29 284.08 848.554 282.904 849.082 281.896C849.626 280.872 850.37 280.088 851.314 279.544C852.274 278.984 853.354 278.704 854.554 278.704C855.802 278.704 856.874 278.992 857.77 279.568C858.682 280.144 859.338 280.88 859.738 281.776V278.896H861.418V292H859.738V289.096C859.322 289.992 858.658 290.736 857.746 291.328C856.85 291.904 855.778 292.192 854.53 292.192C853.346 292.192 852.274 291.912 851.314 291.352C850.37 290.792 849.626 290 849.082 288.976C848.554 287.952 848.29 286.768 848.29 285.424ZM859.738 285.448C859.738 284.392 859.522 283.464 859.09 282.664C858.658 281.864 858.066 281.248 857.314 280.816C856.578 280.384 855.762 280.168 854.866 280.168C853.938 280.168 853.106 280.376 852.37 280.792C851.634 281.208 851.05 281.816 850.618 282.616C850.202 283.4 849.994 284.336 849.994 285.424C849.994 286.496 850.202 287.44 850.618 288.256C851.05 289.056 851.634 289.672 852.37 290.104C853.106 290.52 853.938 290.728 854.866 290.728C855.762 290.728 856.578 290.512 857.314 290.08C858.066 289.648 858.658 289.032 859.09 288.232C859.522 287.432 859.738 286.504 859.738 285.448ZM866.453 274.24V292H864.773V274.24H866.453ZM878.068 280.312V288.448C878.068 289.248 878.22 289.8 878.524 290.104C878.828 290.408 879.364 290.56 880.132 290.56H881.668V292H879.868C878.684 292 877.804 291.728 877.228 291.184C876.652 290.624 876.364 289.712 876.364 288.448V280.312H874.54V278.896H876.364V275.608H878.068V278.896H881.668V280.312H878.068ZM889.694 292.192C888.462 292.192 887.35 291.92 886.358 291.376C885.382 290.816 884.606 290.032 884.03 289.024C883.47 288 883.19 286.808 883.19 285.448C883.19 284.088 883.478 282.904 884.054 281.896C884.63 280.872 885.414 280.088 886.406 279.544C887.398 278.984 888.51 278.704 889.742 278.704C890.974 278.704 892.086 278.984 893.078 279.544C894.086 280.088 894.87 280.872 895.43 281.896C896.006 282.904 896.294 284.088 896.294 285.448C896.294 286.792 896.006 287.976 895.43 289C894.854 290.024 894.062 290.816 893.054 291.376C892.046 291.92 890.926 292.192 889.694 292.192ZM889.694 290.728C890.558 290.728 891.358 290.536 892.094 290.152C892.83 289.752 893.422 289.16 893.87 288.376C894.334 287.576 894.566 286.6 894.566 285.448C894.566 284.296 894.342 283.328 893.894 282.544C893.446 281.744 892.854 281.152 892.118 280.768C891.382 280.368 890.582 280.168 889.718 280.168C888.854 280.168 888.054 280.368 887.318 280.768C886.582 281.152 885.99 281.744 885.542 282.544C885.11 283.328 884.894 284.296 884.894 285.448C884.894 286.6 885.11 287.576 885.542 288.376C885.99 289.16 886.574 289.752 887.294 290.152C888.03 290.536 888.83 290.728 889.694 290.728ZM912.519 292.168C910.967 292.168 909.559 291.808 908.295 291.088C907.031 290.352 906.031 289.336 905.295 288.04C904.575 286.728 904.215 285.248 904.215 283.6C904.215 281.952 904.575 280.48 905.295 279.184C906.031 277.872 907.031 276.856 908.295 276.136C909.559 275.4 910.967 275.032 912.519 275.032C914.087 275.032 915.503 275.4 916.767 276.136C918.031 276.856 919.023 277.872 919.743 279.184C920.463 280.48 920.823 281.952 920.823 283.6C920.823 285.248 920.463 286.728 919.743 288.04C919.023 289.336 918.031 290.352 916.767 291.088C915.503 291.808 914.087 292.168 912.519 292.168ZM912.519 290.704C913.767 290.704 914.887 290.416 915.879 289.84C916.871 289.264 917.655 288.44 918.231 287.368C918.807 286.28 919.095 285.024 919.095 283.6C919.095 282.176 918.807 280.928 918.231 279.856C917.655 278.784 916.871 277.96 915.879 277.384C914.887 276.808 913.767 276.52 912.519 276.52C911.271 276.52 910.151 276.808 909.159 277.384C908.167 277.96 907.383 278.784 906.807 279.856C906.231 280.928 905.943 282.176 905.943 283.6C905.943 285.024 906.231 286.28 906.807 287.368C907.383 288.44 908.167 289.264 909.159 289.84C910.151 290.416 911.271 290.704 912.519 290.704ZM925.097 281.224C925.465 280.408 926.025 279.776 926.777 279.328C927.545 278.88 928.481 278.656 929.585 278.656V280.408H929.129C927.913 280.408 926.937 280.736 926.201 281.392C925.465 282.048 925.097 283.144 925.097 284.68V292H923.417V278.896H925.097V281.224ZM937.128 278.704C938.36 278.704 939.432 278.992 940.344 279.568C941.256 280.144 941.912 280.872 942.312 281.752V278.896H943.992V292.336C943.992 293.536 943.728 294.6 943.2 295.528C942.688 296.456 941.968 297.168 941.04 297.664C940.112 298.176 939.056 298.432 937.872 298.432C936.192 298.432 934.792 298.032 933.672 297.232C932.568 296.432 931.88 295.344 931.608 293.968H933.264C933.552 294.88 934.096 295.608 934.896 296.152C935.712 296.696 936.704 296.968 937.872 296.968C938.72 296.968 939.48 296.784 940.152 296.416C940.824 296.064 941.352 295.536 941.736 294.832C942.12 294.128 942.312 293.296 942.312 292.336V289.096C941.896 289.992 941.232 290.736 940.32 291.328C939.424 291.904 938.36 292.192 937.128 292.192C935.928 292.192 934.848 291.912 933.888 291.352C932.944 290.792 932.2 290 931.656 288.976C931.128 287.952 930.864 286.768 930.864 285.424C930.864 284.08 931.128 282.904 931.656 281.896C932.2 280.872 932.944 280.088 933.888 279.544C934.848 278.984 935.928 278.704 937.128 278.704ZM942.312 285.448C942.312 284.392 942.096 283.464 941.664 282.664C941.232 281.864 940.64 281.248 939.888 280.816C939.152 280.384 938.336 280.168 937.44 280.168C936.512 280.168 935.68 280.376 934.944 280.792C934.208 281.208 933.624 281.816 933.192 282.616C932.776 283.4 932.568 284.336 932.568 285.424C932.568 286.496 932.776 287.44 933.192 288.256C933.624 289.056 934.208 289.672 934.944 290.104C935.68 290.52 936.512 290.728 937.44 290.728C938.336 290.728 939.152 290.512 939.888 290.08C940.64 289.648 941.232 289.032 941.664 288.232C942.096 287.432 942.312 286.504 942.312 285.448ZM953.492 278.656C955.06 278.656 956.34 279.144 957.332 280.12C958.324 281.08 958.82 282.48 958.82 284.32V292H957.164V284.512C957.164 283.088 956.804 282 956.084 281.248C955.38 280.496 954.412 280.12 953.18 280.12C951.916 280.12 950.908 280.52 950.156 281.32C949.404 282.12 949.028 283.296 949.028 284.848V292H947.348V278.896H949.028V281.128C949.444 280.328 950.044 279.72 950.828 279.304C951.612 278.872 952.5 278.656 953.492 278.656ZM961.287 285.424C961.287 284.08 961.551 282.904 962.079 281.896C962.623 280.872 963.367 280.088 964.311 279.544C965.271 278.984 966.351 278.704 967.551 278.704C968.799 278.704 969.871 278.992 970.767 279.568C971.679 280.144 972.335 280.88 972.735 281.776V278.896H974.415V292H972.735V289.096C972.319 289.992 971.655 290.736 970.743 291.328C969.847 291.904 968.775 292.192 967.527 292.192C966.343 292.192 965.271 291.912 964.311 291.352C963.367 290.792 962.623 290 962.079 288.976C961.551 287.952 961.287 286.768 961.287 285.424ZM972.735 285.448C972.735 284.392 972.519 283.464 972.087 282.664C971.655 281.864 971.063 281.248 970.311 280.816C969.575 280.384 968.759 280.168 967.863 280.168C966.935 280.168 966.103 280.376 965.367 280.792C964.631 281.208 964.047 281.816 963.615 282.616C963.199 283.4 962.991 284.336 962.991 285.424C962.991 286.496 963.199 287.44 963.615 288.256C964.047 289.056 964.631 289.672 965.367 290.104C966.103 290.52 966.935 290.728 967.863 290.728C968.759 290.728 969.575 290.512 970.311 290.08C971.063 289.648 971.655 289.032 972.087 288.232C972.519 287.432 972.735 286.504 972.735 285.448ZM978.61 276.424C978.274 276.424 977.986 276.304 977.746 276.064C977.506 275.824 977.386 275.528 977.386 275.176C977.386 274.824 977.506 274.536 977.746 274.312C977.986 274.072 978.274 273.952 978.61 273.952C978.946 273.952 979.234 274.072 979.474 274.312C979.714 274.536 979.834 274.824 979.834 275.176C979.834 275.528 979.714 275.824 979.474 276.064C979.234 276.304 978.946 276.424 978.61 276.424ZM979.45 278.896V292H977.77V278.896H979.45ZM983.663 290.608H990.527V292H981.743V290.608L988.487 280.288H981.863V278.896H990.407V280.288L983.663 290.608ZM992.12 285.424C992.12 284.08 992.384 282.904 992.912 281.896C993.456 280.872 994.2 280.088 995.144 279.544C996.104 278.984 997.184 278.704 998.384 278.704C999.632 278.704 1000.7 278.992 1001.6 279.568C1002.51 280.144 1003.17 280.88 1003.57 281.776V278.896H1005.25V292H1003.57V289.096C1003.15 289.992 1002.49 290.736 1001.58 291.328C1000.68 291.904 999.608 292.192 998.36 292.192C997.176 292.192 996.104 291.912 995.144 291.352C994.2 290.792 993.456 290 992.912 288.976C992.384 287.952 992.12 286.768 992.12 285.424ZM1003.57 285.448C1003.57 284.392 1003.35 283.464 1002.92 282.664C1002.49 281.864 1001.9 281.248 1001.14 280.816C1000.41 280.384 999.592 280.168 998.696 280.168C997.768 280.168 996.936 280.376 996.2 280.792C995.464 281.208 994.88 281.816 994.448 282.616C994.032 283.4 993.824 284.336 993.824 285.424C993.824 286.496 994.032 287.44 994.448 288.256C994.88 289.056 995.464 289.672 996.2 290.104C996.936 290.52 997.768 290.728 998.696 290.728C999.592 290.728 1000.41 290.512 1001.14 290.08C1001.9 289.648 1002.49 289.032 1002.92 288.232C1003.35 287.432 1003.57 286.504 1003.57 285.448ZM1010.79 280.312V288.448C1010.79 289.248 1010.94 289.8 1011.24 290.104C1011.55 290.408 1012.08 290.56 1012.85 290.56H1014.39V292H1012.59C1011.4 292 1010.52 291.728 1009.95 291.184C1009.37 290.624 1009.08 289.712 1009.08 288.448V280.312H1007.26V278.896H1009.08V275.608H1010.79V278.896H1014.39V280.312H1010.79ZM1017.52 276.424C1017.18 276.424 1016.89 276.304 1016.65 276.064C1016.41 275.824 1016.29 275.528 1016.29 275.176C1016.29 274.824 1016.41 274.536 1016.65 274.312C1016.89 274.072 1017.18 273.952 1017.52 273.952C1017.85 273.952 1018.14 274.072 1018.38 274.312C1018.62 274.536 1018.74 274.824 1018.74 275.176C1018.74 275.528 1018.62 275.824 1018.38 276.064C1018.14 276.304 1017.85 276.424 1017.52 276.424ZM1018.36 278.896V292H1016.68V278.896H1018.36ZM1027.42 292.192C1026.19 292.192 1025.07 291.92 1024.08 291.376C1023.11 290.816 1022.33 290.032 1021.75 289.024C1021.19 288 1020.91 286.808 1020.91 285.448C1020.91 284.088 1021.2 282.904 1021.78 281.896C1022.35 280.872 1023.14 280.088 1024.13 279.544C1025.12 278.984 1026.23 278.704 1027.47 278.704C1028.7 278.704 1029.81 278.984 1030.8 279.544C1031.81 280.088 1032.59 280.872 1033.15 281.896C1033.73 282.904 1034.02 284.088 1034.02 285.448C1034.02 286.792 1033.73 287.976 1033.15 289C1032.58 290.024 1031.79 290.816 1030.78 291.376C1029.77 291.92 1028.65 292.192 1027.42 292.192ZM1027.42 290.728C1028.28 290.728 1029.08 290.536 1029.82 290.152C1030.55 289.752 1031.15 289.16 1031.59 288.376C1032.06 287.576 1032.29 286.6 1032.29 285.448C1032.29 284.296 1032.07 283.328 1031.62 282.544C1031.17 281.744 1030.58 281.152 1029.84 280.768C1029.11 280.368 1028.31 280.168 1027.44 280.168C1026.58 280.168 1025.78 280.368 1025.04 280.768C1024.31 281.152 1023.71 281.744 1023.27 282.544C1022.83 283.328 1022.62 284.296 1022.62 285.448C1022.62 286.6 1022.83 287.576 1023.27 288.376C1023.71 289.16 1024.3 289.752 1025.02 290.152C1025.75 290.536 1026.55 290.728 1027.42 290.728ZM1042.75 278.656C1044.31 278.656 1045.59 279.144 1046.59 280.12C1047.58 281.08 1048.07 282.48 1048.07 284.32V292H1046.42V284.512C1046.42 283.088 1046.06 282 1045.34 281.248C1044.63 280.496 1043.67 280.12 1042.43 280.12C1041.17 280.12 1040.16 280.52 1039.41 281.32C1038.66 282.12 1038.28 283.296 1038.28 284.848V292H1036.6V278.896H1038.28V281.128C1038.7 280.328 1039.3 279.72 1040.08 279.304C1040.87 278.872 1041.75 278.656 1042.75 278.656Z" fill="white"/>
<path d="M1133.6 276.592V282.856H1139.96V284.248H1133.6V290.608H1140.68V292H1131.92V275.2H1140.68V276.592H1133.6ZM1149.65 278.656C1151.22 278.656 1152.5 279.144 1153.49 280.12C1154.49 281.08 1154.98 282.48 1154.98 284.32V292H1153.33V284.512C1153.33 283.088 1152.97 282 1152.25 281.248C1151.54 280.496 1150.57 280.12 1149.34 280.12C1148.08 280.12 1147.07 280.52 1146.32 281.32C1145.57 282.12 1145.19 283.296 1145.19 284.848V292H1143.51V278.896H1145.19V281.128C1145.61 280.328 1146.21 279.72 1146.99 279.304C1147.77 278.872 1148.66 278.656 1149.65 278.656ZM1160.4 280.312V288.448C1160.4 289.248 1160.55 289.8 1160.86 290.104C1161.16 290.408 1161.7 290.56 1162.47 290.56H1164V292H1162.2C1161.02 292 1160.14 291.728 1159.56 291.184C1158.99 290.624 1158.7 289.712 1158.7 288.448V280.312H1156.87V278.896H1158.7V275.608H1160.4V278.896H1164V280.312H1160.4ZM1172.53 278.656C1173.52 278.656 1174.41 278.864 1175.2 279.28C1176 279.696 1176.62 280.336 1177.07 281.2C1177.53 282.048 1177.76 283.088 1177.76 284.32V292H1176.11V284.512C1176.11 283.088 1175.75 282 1175.03 281.248C1174.32 280.496 1173.36 280.12 1172.12 280.12C1170.86 280.12 1169.85 280.52 1169.1 281.32C1168.35 282.12 1167.97 283.296 1167.97 284.848V292H1166.29V274.24H1167.97V281.128C1168.39 280.344 1169 279.736 1169.8 279.304C1170.61 278.872 1171.52 278.656 1172.53 278.656ZM1192.35 278.896V292H1190.67V289.696C1190.29 290.512 1189.7 291.136 1188.9 291.568C1188.1 292 1187.2 292.216 1186.21 292.216C1184.64 292.216 1183.36 291.736 1182.37 290.776C1181.38 289.8 1180.88 288.392 1180.88 286.552V278.896H1182.54V286.36C1182.54 287.784 1182.89 288.872 1183.59 289.624C1184.31 290.376 1185.29 290.752 1186.52 290.752C1187.78 290.752 1188.79 290.352 1189.54 289.552C1190.3 288.752 1190.67 287.576 1190.67 286.024V278.896H1192.35ZM1200.22 292.192C1198.72 292.192 1197.48 291.848 1196.52 291.16C1195.58 290.456 1195.05 289.504 1194.94 288.304H1196.67C1196.75 289.04 1197.09 289.64 1197.7 290.104C1198.32 290.552 1199.16 290.776 1200.2 290.776C1201.11 290.776 1201.82 290.56 1202.33 290.128C1202.86 289.696 1203.12 289.16 1203.12 288.52C1203.12 288.072 1202.98 287.704 1202.69 287.416C1202.4 287.128 1202.04 286.904 1201.59 286.744C1201.16 286.568 1200.56 286.384 1199.81 286.192C1198.84 285.936 1198.04 285.68 1197.44 285.424C1196.83 285.168 1196.31 284.792 1195.88 284.296C1195.46 283.784 1195.25 283.104 1195.25 282.256C1195.25 281.616 1195.44 281.024 1195.83 280.48C1196.21 279.936 1196.76 279.504 1197.46 279.184C1198.16 278.864 1198.96 278.704 1199.86 278.704C1201.27 278.704 1202.4 279.064 1203.27 279.784C1204.13 280.488 1204.6 281.464 1204.66 282.712H1202.98C1202.93 281.944 1202.63 281.328 1202.07 280.864C1201.52 280.384 1200.77 280.144 1199.81 280.144C1198.96 280.144 1198.28 280.344 1197.75 280.744C1197.22 281.144 1196.96 281.64 1196.96 282.232C1196.96 282.744 1197.11 283.168 1197.41 283.504C1197.73 283.824 1198.12 284.08 1198.59 284.272C1199.05 284.448 1199.68 284.648 1200.46 284.872C1201.4 285.128 1202.16 285.376 1202.72 285.616C1203.28 285.856 1203.76 286.208 1204.16 286.672C1204.56 287.136 1204.76 287.752 1204.78 288.52C1204.78 289.224 1204.59 289.856 1204.2 290.416C1203.82 290.96 1203.28 291.392 1202.6 291.712C1201.91 292.032 1201.12 292.192 1200.22 292.192ZM1208.3 276.424C1207.97 276.424 1207.68 276.304 1207.44 276.064C1207.2 275.824 1207.08 275.528 1207.08 275.176C1207.08 274.824 1207.2 274.536 1207.44 274.312C1207.68 274.072 1207.97 273.952 1208.3 273.952C1208.64 273.952 1208.93 274.072 1209.17 274.312C1209.41 274.536 1209.53 274.824 1209.53 275.176C1209.53 275.528 1209.41 275.824 1209.17 276.064C1208.93 276.304 1208.64 276.424 1208.3 276.424ZM1209.14 278.896V292H1207.46V278.896H1209.14ZM1211.7 285.424C1211.7 284.08 1211.96 282.904 1212.49 281.896C1213.03 280.872 1213.78 280.088 1214.72 279.544C1215.68 278.984 1216.76 278.704 1217.96 278.704C1219.21 278.704 1220.28 278.992 1221.18 279.568C1222.09 280.144 1222.75 280.88 1223.15 281.776V278.896H1224.83V292H1223.15V289.096C1222.73 289.992 1222.07 290.736 1221.15 291.328C1220.26 291.904 1219.19 292.192 1217.94 292.192C1216.75 292.192 1215.68 291.912 1214.72 291.352C1213.78 290.792 1213.03 290 1212.49 288.976C1211.96 287.952 1211.7 286.768 1211.7 285.424ZM1223.15 285.448C1223.15 284.392 1222.93 283.464 1222.5 282.664C1222.07 281.864 1221.47 281.248 1220.72 280.816C1219.99 280.384 1219.17 280.168 1218.27 280.168C1217.35 280.168 1216.51 280.376 1215.78 280.792C1215.04 281.208 1214.46 281.816 1214.03 282.616C1213.61 283.4 1213.4 284.336 1213.4 285.424C1213.4 286.496 1213.61 287.44 1214.03 288.256C1214.46 289.056 1215.04 289.672 1215.78 290.104C1216.51 290.52 1217.35 290.728 1218.27 290.728C1219.17 290.728 1219.99 290.512 1220.72 290.08C1221.47 289.648 1222.07 289.032 1222.5 288.232C1222.93 287.432 1223.15 286.504 1223.15 285.448ZM1232.69 292.192C1231.19 292.192 1229.96 291.848 1229 291.16C1228.05 290.456 1227.53 289.504 1227.41 288.304H1229.14C1229.22 289.04 1229.57 289.64 1230.17 290.104C1230.8 290.552 1231.63 290.776 1232.67 290.776C1233.58 290.776 1234.29 290.56 1234.81 290.128C1235.33 289.696 1235.6 289.16 1235.6 288.52C1235.6 288.072 1235.45 287.704 1235.17 287.416C1234.88 287.128 1234.51 286.904 1234.06 286.744C1233.63 286.568 1233.04 286.384 1232.29 286.192C1231.31 285.936 1230.52 285.68 1229.91 285.424C1229.3 285.168 1228.78 284.792 1228.35 284.296C1227.93 283.784 1227.73 283.104 1227.73 282.256C1227.73 281.616 1227.92 281.024 1228.3 280.48C1228.69 279.936 1229.23 279.504 1229.93 279.184C1230.64 278.864 1231.44 278.704 1232.33 278.704C1233.74 278.704 1234.88 279.064 1235.74 279.784C1236.61 280.488 1237.07 281.464 1237.13 282.712H1235.45C1235.41 281.944 1235.1 281.328 1234.54 280.864C1234 280.384 1233.25 280.144 1232.29 280.144C1231.44 280.144 1230.75 280.344 1230.22 280.744C1229.69 281.144 1229.43 281.64 1229.43 282.232C1229.43 282.744 1229.58 283.168 1229.89 283.504C1230.21 283.824 1230.6 284.08 1231.06 284.272C1231.53 284.448 1232.15 284.648 1232.93 284.872C1233.88 285.128 1234.63 285.376 1235.19 285.616C1235.75 285.856 1236.23 286.208 1236.63 286.672C1237.03 287.136 1237.24 287.752 1237.25 288.52C1237.25 289.224 1237.06 289.856 1236.68 290.416C1236.29 290.96 1235.76 291.392 1235.07 291.712C1234.38 292.032 1233.59 292.192 1232.69 292.192ZM1242.12 280.312V288.448C1242.12 289.248 1242.27 289.8 1242.58 290.104C1242.88 290.408 1243.42 290.56 1244.18 290.56H1245.72V292H1243.92C1242.74 292 1241.86 291.728 1241.28 291.184C1240.7 290.624 1240.42 289.712 1240.42 288.448V280.312H1238.59V278.896H1240.42V275.608H1242.12V278.896H1245.72V280.312H1242.12ZM1248.85 276.424C1248.51 276.424 1248.23 276.304 1247.99 276.064C1247.75 275.824 1247.63 275.528 1247.63 275.176C1247.63 274.824 1247.75 274.536 1247.99 274.312C1248.23 274.072 1248.51 273.952 1248.85 273.952C1249.19 273.952 1249.47 274.072 1249.71 274.312C1249.95 274.536 1250.07 274.824 1250.07 275.176C1250.07 275.528 1249.95 275.824 1249.71 276.064C1249.47 276.304 1249.19 276.424 1248.85 276.424ZM1249.69 278.896V292H1248.01V278.896H1249.69ZM1252.25 285.448C1252.25 284.088 1252.52 282.904 1253.06 281.896C1253.61 280.872 1254.36 280.088 1255.32 279.544C1256.28 278.984 1257.38 278.704 1258.61 278.704C1260.22 278.704 1261.55 279.104 1262.59 279.904C1263.65 280.704 1264.33 281.792 1264.63 283.168H1262.83C1262.61 282.224 1262.12 281.488 1261.37 280.96C1260.63 280.416 1259.71 280.144 1258.61 280.144C1257.73 280.144 1256.94 280.344 1256.23 280.744C1255.53 281.144 1254.97 281.744 1254.55 282.544C1254.15 283.328 1253.95 284.296 1253.95 285.448C1253.95 286.6 1254.15 287.576 1254.55 288.376C1254.97 289.176 1255.53 289.776 1256.23 290.176C1256.94 290.576 1257.73 290.776 1258.61 290.776C1259.71 290.776 1260.63 290.512 1261.37 289.984C1262.12 289.44 1262.61 288.688 1262.83 287.728H1264.63C1264.33 289.072 1263.65 290.152 1262.59 290.968C1261.54 291.784 1260.21 292.192 1258.61 292.192C1257.38 292.192 1256.28 291.92 1255.32 291.376C1254.36 290.816 1253.61 290.032 1253.06 289.024C1252.52 288 1252.25 286.808 1252.25 285.448Z" fill="white"/>
<path d="M611.479 95.8498C612.43 97.0622 613.38 98.2746 614.331 99.4783C614.54 99.74 614.567 99.9929 614.41 100.289C614.061 100.952 613.721 101.615 613.389 102.287C612.517 104.058 611.688 105.846 610.781 107.599C610.066 108.986 609.482 110.425 609.307 111.951C609.063 114.088 609.202 116.234 610.005 118.266C611.348 121.659 613.537 124.354 616.739 126.169C617.401 126.544 617.384 126.535 617.811 125.881C619.791 122.863 621.771 119.845 623.769 116.836C624.423 115.85 625.086 114.856 625.731 113.861L611.479 95.8498Z" fill="#420789"/>
<path d="M630.05 92.4967C629.082 90.3772 627.826 88.3798 626.631 86.3649C625.34 84.1931 623.962 82.0648 622.627 79.9191C621.327 77.8258 620.028 75.7324 618.728 73.639C617.411 71.5282 616.094 69.4174 614.777 67.2979C613.704 65.5622 612.657 63.8177 611.585 62.082C610.363 60.1107 609.134 58.1482 607.904 56.1857C607.128 54.9471 606.36 53.7085 605.566 52.4351C605.444 52.5048 605.392 52.5223 605.357 52.5659C604.171 54.0749 603.202 55.7147 602.426 57.4678C601.624 59.2734 600.97 61.1399 600.682 63.1025C600.429 64.8208 600.158 66.5478 600.054 68.2835C599.932 70.1763 600.01 72.0865 600.368 73.9618C600.656 75.4358 600.891 76.9274 601.231 78.3927C601.441 79.3086 601.728 80.207 602.086 81.0792C602.775 82.7713 603.473 84.4635 604.293 86.0945C605.331 88.153 606.77 89.9498 608.218 91.7466C609.317 93.1073 610.398 94.4854 611.48 95.8548L625.645 114.015C626.936 112.026 628.253 109.863 629.256 107.7C630.137 105.807 630.835 103.862 631.227 101.786C631.838 98.5326 631.393 95.4274 630.05 92.4967Z" fill="#A884D2"/>
<path d="M665.063 66.7931C665.002 65.5632 664.836 64.4904 664.618 63.2605C664.583 63.0774 664.539 62.8942 664.505 62.7023C664.4 62.083 664.199 61.298 664.025 60.7049C663.371 58.533 662.533 56.4309 661.338 54.4859C660.832 53.666 660.257 52.881 659.664 52C658.46 53.9189 657.335 55.6808 656.227 57.4602C654.875 59.632 653.549 61.8213 652.206 64.0019C651.133 65.7377 650.052 67.4734 648.979 69.2092C647.688 71.2938 646.397 73.3784 645.097 75.4543C643.894 77.382 642.638 79.2834 641.478 81.2373L650.636 99.8856C650.601 99.6937 650.636 99.5018 650.81 99.2925C651.526 98.429 652.189 97.5306 652.878 96.6496C654.683 94.3556 656.497 92.0617 658.303 89.7677C659.751 87.9186 660.963 85.9124 661.897 83.7667C662.568 82.2229 663.231 80.6529 663.685 79.0305C664.182 77.2599 664.426 75.4195 664.784 73.6052C665.229 71.3549 665.176 69.0696 665.063 66.7931Z" fill="#420789"/>
<g opacity="0.55" filter="url(#filter0_d_407_2197)">
<path d="M650.528 99.7501L652.026 97.6868L641.483 81.25L650.528 99.7501Z" fill="#121212" fill-opacity="0.8" shape-rendering="crispEdges"/>
</g>
<path d="M653.506 106.011C653.165 105.304 652.904 104.563 652.564 103.856C651.97 102.618 651.351 101.405 650.74 100.175C650.697 100.08 650.662 99.9923 650.645 99.9051L641.486 81.2567C642.646 79.3029 643.902 77.4102 645.106 75.4738C643.789 77.5846 642.402 79.6518 641.155 81.8062C639.698 84.327 638.32 86.8913 636.968 89.4644C635.555 92.1596 634.482 94.9857 633.88 97.9949C633.2 101.423 633.732 104.641 635.424 107.607C636.898 110.18 638.608 112.614 640.23 115.099C641.661 117.289 643.117 119.452 644.556 121.624C645.612 123.22 646.676 124.825 647.749 126.447C648.202 126.177 648.63 125.95 649.022 125.68C649.467 125.383 649.912 125.069 650.322 124.72C653.689 121.85 655.756 118.335 655.878 113.8C655.93 111.715 655.346 109.814 654.543 107.912C654.212 107.275 653.82 106.656 653.506 106.011Z" fill="#A884D2"/>
<path opacity="0.3" d="M625.579 113.897L614.563 99.9153L613.534 102.026L625.579 113.897Z" fill="#121212" fill-opacity="0.8"/>
<path d="M570.051 165.496C570.051 160.369 571.438 156.288 574.214 153.253C576.989 150.218 580.749 148.7 585.493 148.7C589.909 148.7 593.464 150.184 596.157 153.15C598.851 156.117 600.197 159.979 600.197 164.737C600.197 169.892 598.816 173.979 596.055 177.001C595.398 177.712 594.694 178.341 593.942 178.888L602.863 185.286H596.116L590.087 180.815C588.528 181.294 586.826 181.533 584.98 181.533C580.469 181.533 576.853 180.05 574.132 177.083C571.411 174.116 570.051 170.254 570.051 165.496ZM574.357 165.168C574.357 169.01 575.335 172.093 577.29 174.417C579.259 176.728 581.822 177.883 584.98 177.883C588.371 177.883 591.03 176.775 592.958 174.561C594.899 172.332 595.87 169.222 595.87 165.229C595.87 161.128 594.92 157.963 593.02 155.734C591.133 153.506 588.542 152.392 585.247 152.392C582.007 152.392 579.382 153.567 577.372 155.919C575.362 158.271 574.357 161.354 574.357 165.168ZM624.109 158.318L615.127 181H611.066L602.535 158.318H606.924L612.461 174.52C612.912 175.818 613.179 176.905 613.261 177.78H613.363C613.5 176.632 613.739 175.572 614.081 174.602L619.885 158.318H624.109ZM627.411 150.32C627.411 149.609 627.65 149.015 628.129 148.536C628.621 148.044 629.223 147.798 629.934 147.798C630.658 147.798 631.267 148.037 631.759 148.516C632.265 148.994 632.518 149.596 632.518 150.32C632.518 151.031 632.265 151.626 631.759 152.104C631.267 152.569 630.658 152.802 629.934 152.802C629.209 152.802 628.607 152.569 628.129 152.104C627.65 151.626 627.411 151.031 627.411 150.32ZM627.883 181V158.318H631.902V181H627.883ZM643.12 177.801V191.438H639.101V158.318H643.12V162.235H643.202C644.979 159.269 647.577 157.785 650.995 157.785C653.894 157.785 656.163 158.804 657.804 160.841C659.458 162.864 660.285 165.585 660.285 169.003C660.285 172.776 659.349 175.812 657.476 178.108C655.616 180.392 653.107 181.533 649.949 181.533C647.037 181.533 644.788 180.289 643.202 177.801H643.12ZM643.1 171.648C643.1 173.494 643.694 175.053 644.884 176.324C646.073 177.582 647.563 178.211 649.354 178.211C651.487 178.211 653.155 177.391 654.358 175.75C655.562 174.109 656.163 171.84 656.163 168.941C656.163 166.494 655.603 164.58 654.481 163.199C653.36 161.805 651.829 161.107 649.888 161.107C647.905 161.107 646.278 161.812 645.007 163.22C643.735 164.628 643.1 166.433 643.1 168.634V171.648ZM665.904 181V147.429H669.924V181H665.904ZM695.6 170.685H679.727C679.795 173.104 680.458 174.978 681.716 176.304C682.974 177.616 684.73 178.272 686.986 178.272C689.529 178.272 691.86 177.459 693.979 175.832V179.421C691.983 180.829 689.338 181.533 686.043 181.533C682.762 181.533 680.198 180.494 678.353 178.416C676.521 176.338 675.604 173.453 675.604 169.762C675.604 166.289 676.609 163.425 678.619 161.169C680.643 158.913 683.151 157.785 686.146 157.785C689.112 157.785 691.43 158.742 693.098 160.656C694.766 162.557 695.6 165.223 695.6 168.654V170.685ZM691.58 167.465C691.566 165.414 691.081 163.828 690.124 162.707C689.167 161.586 687.82 161.025 686.084 161.025C684.484 161.025 683.097 161.62 681.921 162.81C680.759 163.999 680.027 165.551 679.727 167.465H691.58Z" fill="white"/>
<circle cx="329.5" cy="248.5" r="4.5" fill="white" fill-opacity="0.6"/>
<line x1="329.5" y1="244" x2="329.5" y2="224" stroke="white" stroke-opacity="0.6"/>
<line x1="330" y1="224.5" x2="614" y2="224.5" stroke="white" stroke-opacity="0.6"/>
<line x1="613.5" y1="224" x2="613.5" y2="200" stroke="white" stroke-opacity="0.6"/>
<circle cx="930.5" cy="248.5" r="4.5" fill="white" fill-opacity="0.6"/>
<line x1="930.5" y1="245" x2="930.5" y2="224" stroke="white" stroke-opacity="0.6"/>
<line x1="667" y1="224.5" x2="930" y2="224.5" stroke="white" stroke-opacity="0.6"/>
<line x1="667.5" y1="224" x2="667.5" y2="200" stroke="white" stroke-opacity="0.6"/>
<circle cx="470.5" cy="458.5" r="4.5" fill="white" fill-opacity="0.6"/>
<line x1="470.5" y1="455" x2="470.5" y2="238" stroke="white" stroke-opacity="0.6"/>
<line x1="470" y1="238.5" x2="630" y2="238.5" stroke="white" stroke-opacity="0.6"/>
<line x1="629.5" y1="239" x2="629.5" y2="200" stroke="white" stroke-opacity="0.6"/>
<circle cx="784.5" cy="458.5" r="4.5" fill="white" fill-opacity="0.6"/>
<line x1="784.5" y1="455" x2="784.5" y2="238" stroke="white" stroke-opacity="0.6"/>
<line x1="650" y1="238.5" x2="785" y2="238.5" stroke="white" stroke-opacity="0.6"/>
<line x1="650.5" y1="239" x2="650.5" y2="200" stroke="white" stroke-opacity="0.6"/>
<circle cx="100.5" cy="249.5" r="4.5" fill="white" fill-opacity="0.6"/>
<line x1="100.5" y1="245" x2="100.5" y2="210" stroke="white" stroke-opacity="0.6"/>
<line x1="100" y1="210.5" x2="600" y2="210.5" stroke="white" stroke-opacity="0.6"/>
<line x1="599.5" y1="210" x2="599.5" y2="200" stroke="white" stroke-opacity="0.6"/>
<circle cx="1198.5" cy="248.5" r="4.5" fill="white" fill-opacity="0.6"/>
<line x1="1198.5" y1="245" x2="1198.5" y2="210" stroke="white" stroke-opacity="0.6"/>
<line x1="685" y1="210.5" x2="1198" y2="210.5" stroke="white" stroke-opacity="0.6"/>
<line x1="685.5" y1="210" x2="685.5" y2="200" stroke="white" stroke-opacity="0.6"/>
<defs>
<filter id="filter0_d_407_2197" x="632.595" y="81.25" width="28.3178" height="36.2759" filterUnits="userSpaceOnUse" color-interpolation-filters="sRGB">
<feFlood flood-opacity="0" result="BackgroundImageFix"/>
<feColorMatrix in="SourceAlpha" type="matrix" values="0 0 0 0 0 0 0 0 0 0 0 0 0 0 0 0 0 0 127 0" result="hardAlpha"/>
<feOffset dy="8.88792"/>
<feGaussianBlur stdDeviation="4.44396"/>
<feComposite in2="hardAlpha" operator="out"/>
<feColorMatrix type="matrix" values="0 0 0 0 0 0 0 0 0 0 0 0 0 0 0 0 0 0 0.25 0"/>
<feBlend mode="normal" in2="BackgroundImageFix" result="effect1_dropShadow_407_2197"/>
<feBlend mode="normal" in="SourceGraphic" in2="effect1_dropShadow_407_2197" result="shape"/>
</filter>
</defs>
</svg>
