<svg width="215" height="78" viewBox="0 0 215 78" fill="none" xmlns="http://www.w3.org/2000/svg">
<path d="M9.78306 47.7273C10.5933 48.7606 11.4036 49.7938 12.2138 50.8197C12.3923 51.0427 12.4146 51.2582 12.2808 51.511C11.9835 52.0759 11.6935 52.6409 11.4111 53.2133C10.6677 54.7223 9.96152 56.2462 9.18843 57.7403C8.57888 58.9222 8.08078 60.1488 7.93211 61.4496C7.72397 63.2709 7.84294 65.0995 8.52683 66.8315C9.6716 69.7232 11.5374 72.0202 14.2655 73.5663C14.8305 73.886 14.8156 73.8785 15.1798 73.321C16.8672 70.749 18.5547 68.177 20.257 65.6124C20.8145 64.7724 21.3795 63.925 21.9296 63.0776L9.78306 47.7273Z" fill="#420789"/>
<path d="M25.6098 44.8696C24.7847 43.0633 23.7142 41.361 22.6958 39.6438C21.5956 37.7929 20.4212 35.9791 19.2838 34.1504C18.1762 32.3664 17.0686 30.5823 15.961 28.7983C14.8386 26.9993 13.7161 25.2004 12.5936 23.3941C11.6793 21.9148 10.7872 20.4281 9.87292 18.9488C8.83222 17.2688 7.78411 15.5963 6.73598 13.9237C6.07439 12.8682 5.42029 11.8126 4.74383 10.7273C4.63976 10.7868 4.59517 10.8016 4.56544 10.8388C3.55447 12.1248 2.72927 13.5223 2.06768 15.0165C1.3838 16.5552 0.826279 18.146 0.580971 19.8185C0.365398 21.2829 0.13498 22.7548 0.0457771 24.2341C-0.0582927 25.8471 0.00859843 27.4751 0.313374 29.0733C0.558682 30.3296 0.75938 31.6007 1.04929 32.8496C1.22769 33.6301 1.47308 34.3957 1.77785 35.1391C2.3651 36.5812 2.95972 38.0233 3.65847 39.4134C4.54307 41.1677 5.7696 42.699 7.00357 44.2303C7.9402 45.39 8.86195 46.5645 9.78372 47.7315L21.8559 63.2082C22.9561 61.5133 24.0784 59.6698 24.9333 57.8263C25.6841 56.2132 26.2788 54.5555 26.6133 52.7863C27.1336 50.0136 26.7546 47.3673 25.6098 44.8696Z" fill="#A884D2"/>
<path d="M55.4495 22.9639C55.3974 21.9157 55.2562 21.0014 55.0704 19.9533C55.0406 19.7972 55.0035 19.6411 54.9737 19.4775C54.8845 18.9498 54.7136 18.2807 54.5649 17.7753C54.0074 15.9243 53.2937 14.1328 52.2753 12.4751C51.8442 11.7764 51.3536 11.1074 50.8482 10.3566C49.8223 11.9919 48.8634 13.4935 47.9193 15.01C46.7671 16.8609 45.6372 18.7268 44.4924 20.5851C43.5781 22.0644 42.6564 23.5437 41.7421 25.023C40.6419 26.7996 39.5417 28.5762 38.4341 30.3454C37.4082 31.9882 36.3378 33.6087 35.3491 35.2738L43.1544 51.1668C43.1246 51.0032 43.1544 50.8397 43.3031 50.6613C43.9126 49.9254 44.4776 49.1597 45.0648 48.4089C46.6036 46.4539 48.1497 44.4989 49.6885 42.5439C50.9224 40.9679 51.9557 39.2582 52.7511 37.4296C53.3235 36.1138 53.8885 34.7758 54.275 33.3932C54.6987 31.8841 54.9069 30.3157 55.2116 28.7695C55.5908 26.8516 55.5461 24.904 55.4495 22.9639Z" fill="#420789"/>
<g opacity="0.55" filter="url(#filter0_d_441_69)">
<path d="M43.0626 51.0514L44.3386 49.293L35.354 35.2848L43.0626 51.0514Z" fill="#121212" fill-opacity="0.8" shape-rendering="crispEdges"/>
</g>
<path d="M45.5999 56.3869C45.31 55.7848 45.087 55.153 44.7971 54.5509C44.2916 53.4953 43.7638 52.462 43.2434 51.4139C43.2063 51.3321 43.1765 51.2578 43.1617 51.1835L35.3564 35.2905C36.3451 33.6254 37.4156 32.0123 38.4414 30.3621C37.3189 32.161 36.137 33.9227 35.074 35.7588C33.8326 37.9071 32.6581 40.0926 31.5059 42.2855C30.3017 44.5825 29.3873 46.9909 28.8744 49.5555C28.2946 52.4769 28.7481 55.2199 30.1902 57.7473C31.4464 59.9402 32.9034 62.0141 34.2861 64.1327C35.5052 65.9985 36.7465 67.842 37.9731 69.693C38.8725 71.0533 39.7795 72.4211 40.6938 73.8038C41.0803 73.5733 41.4445 73.3801 41.7791 73.1496C42.1582 72.8969 42.5373 72.6293 42.8866 72.3319C45.756 69.8863 47.5177 66.8906 47.6218 63.0251C47.6664 61.2485 47.1683 59.628 46.4845 58.0075C46.202 57.4648 45.8675 56.937 45.5999 56.3869Z" fill="#A884D2"/>
<path opacity="0.3" d="M21.7999 63.1081L12.4113 51.1921L11.5342 52.9911L21.7999 63.1081Z" fill="#121212" fill-opacity="0.8"/>
<path d="M82.3966 27.2961C82.3966 22.5523 83.6806 18.7762 86.2486 15.9678C88.8165 13.1595 92.2954 11.7553 96.685 11.7553C100.771 11.7553 104.06 13.1279 106.552 15.873C109.044 18.6181 110.29 22.1918 110.29 26.594C110.29 31.3632 109.013 35.1456 106.457 37.9413C105.85 38.5991 105.199 39.181 104.503 39.687L112.757 45.6073H106.514L100.935 41.4707C99.4933 41.9135 97.9184 42.1348 96.2106 42.1348C92.036 42.1348 88.69 40.7623 86.1727 38.0172C83.6553 35.2721 82.3966 31.6984 82.3966 27.2961ZM86.3814 26.9925C86.3814 30.5472 87.2859 33.3999 89.0949 35.5504C90.9165 37.6883 93.2884 38.7572 96.2106 38.7572C99.3479 38.7572 101.808 37.7326 103.592 35.6832C105.388 33.6212 106.287 30.7433 106.287 27.0494C106.287 23.2544 105.407 20.3258 103.649 18.2639C101.903 16.2019 99.506 15.1709 96.4573 15.1709C93.4592 15.1709 91.0303 16.2588 89.1708 18.4346C87.3112 20.6105 86.3814 23.4631 86.3814 26.9925ZM132.416 20.6548L124.104 41.6415H120.347L112.453 20.6548H116.514L121.638 35.6453C122.055 36.847 122.302 37.8527 122.378 38.6624H122.472C122.599 37.5997 122.82 36.6193 123.137 35.7212L128.507 20.6548H132.416ZM135.471 13.2544C135.471 12.5966 135.692 12.0463 136.135 11.6035C136.59 11.1481 137.147 10.9204 137.805 10.9204C138.475 10.9204 139.038 11.1418 139.493 11.5845C139.961 12.0273 140.195 12.5839 140.195 13.2544C140.195 13.9122 139.961 14.4625 139.493 14.9052C139.038 15.3353 138.475 15.5504 137.805 15.5504C137.134 15.5504 136.577 15.3353 136.135 14.9052C135.692 14.4625 135.471 13.9122 135.471 13.2544ZM135.907 41.6415V20.6548H139.626V41.6415H135.907ZM150.006 38.6813V51.2999H146.287V20.6548H150.006V24.279H150.082C151.726 21.5339 154.13 20.1614 157.292 20.1614C159.974 20.1614 162.074 21.1038 163.592 22.9887C165.123 24.861 165.888 27.3783 165.888 30.5409C165.888 34.0324 165.022 36.8407 163.288 38.966C161.568 41.0785 159.247 42.1348 156.324 42.1348C153.63 42.1348 151.549 40.9837 150.082 38.6813H150.006ZM149.987 32.9887C149.987 34.6965 150.537 36.1386 151.638 37.3151C152.738 38.4789 154.117 39.0608 155.774 39.0608C157.748 39.0608 159.291 38.3018 160.404 36.7838C161.517 35.2658 162.074 33.1658 162.074 30.484C162.074 28.2196 161.555 26.4486 160.518 25.1709C159.481 23.8806 158.064 23.2354 156.268 23.2354C154.433 23.2354 152.928 23.8869 151.751 25.1899C150.575 26.4928 149.987 28.1627 149.987 30.1993V32.9887ZM171.087 41.6415V10.5788H174.806V41.6415H171.087ZM198.564 32.0969H183.877C183.94 34.336 184.553 36.0691 185.717 37.2961C186.881 38.5105 188.507 39.1178 190.594 39.1178C192.947 39.1178 195.104 38.3651 197.065 36.8597V40.1804C195.218 41.4834 192.77 42.1348 189.721 42.1348C186.685 42.1348 184.313 41.1734 182.605 39.2506C180.91 37.3278 180.063 34.6586 180.063 31.243C180.063 28.0298 180.992 25.3796 182.852 23.2923C184.724 21.205 187.046 20.1614 189.816 20.1614C192.561 20.1614 194.705 21.0469 196.249 22.8179C197.792 24.5763 198.564 27.0431 198.564 30.2183V32.0969ZM194.844 29.1178C194.832 27.2202 194.383 25.7528 193.497 24.7155C192.612 23.6782 191.366 23.1595 189.759 23.1595C188.279 23.1595 186.995 23.7098 185.907 24.8104C184.832 25.9109 184.155 27.3467 183.877 29.1178H194.844Z" fill="#420789"/>
<path d="M68.3753 73.5458V61.4331H75.6855V62.7343H69.8421V66.827H75.307V68.1282H69.8421V72.2446H75.7802V73.5458H68.3753ZM78.14 73.5458V64.4613H79.4885V65.8807H79.6068C79.796 65.3957 80.1016 65.0192 80.5235 64.7511C80.9454 64.479 81.4521 64.343 82.0435 64.343C82.6428 64.343 83.1416 64.479 83.5398 64.7511C83.942 65.0192 84.2555 65.3957 84.4802 65.8807H84.5749C84.8075 65.4115 85.1564 65.0389 85.6217 64.7629C86.087 64.483 86.6449 64.343 87.2955 64.343C88.1077 64.343 88.7721 64.5973 89.2886 65.1059C89.8051 65.6106 90.0634 66.3972 90.0634 67.4658V73.5458H88.6676V67.4658C88.6676 66.7955 88.4843 66.3164 88.1176 66.0286C87.7509 65.7407 87.3191 65.5968 86.8223 65.5968C86.1836 65.5968 85.6887 65.79 85.3378 66.1764C84.9869 66.5589 84.8114 67.0439 84.8114 67.6314V73.5458H83.392V67.3238C83.392 66.8073 83.2244 66.3913 82.8892 66.0759C82.5541 65.7565 82.1224 65.5968 81.594 65.5968C81.2312 65.5968 80.8922 65.6934 80.5767 65.8866C80.2652 66.0798 80.0129 66.348 79.8197 66.691C79.6304 67.0301 79.5358 67.4224 79.5358 67.868V73.5458H78.14ZM92.8047 73.5458V61.4331H94.2005V65.9044H94.3188C94.4213 65.7467 94.5633 65.5456 94.7446 65.3011C94.93 65.0527 95.1941 64.8319 95.5372 64.6387C95.8842 64.4416 96.3534 64.343 96.9448 64.343C97.7097 64.343 98.384 64.5342 98.9675 64.9167C99.5511 65.2991 100.006 65.8413 100.334 66.5431C100.661 67.245 100.825 68.073 100.825 69.0272C100.825 69.9893 100.661 70.8232 100.334 71.529C100.006 72.2308 99.5531 72.7749 98.9734 73.1613C98.3938 73.5438 97.7255 73.735 96.9685 73.735C96.3849 73.735 95.9177 73.6384 95.5667 73.4452C95.2158 73.2481 94.9457 73.0253 94.7565 72.7769C94.5672 72.5246 94.4213 72.3156 94.3188 72.15H94.1532V73.5458H92.8047ZM94.1769 69.0035C94.1769 69.6896 94.2774 70.2948 94.4785 70.8192C94.6796 71.3397 94.9733 71.7478 95.3597 72.0435C95.7462 72.3353 96.2193 72.4812 96.7792 72.4812C97.3628 72.4812 97.8497 72.3274 98.2401 72.0199C98.6343 71.7084 98.9301 71.2904 99.1272 70.766C99.3283 70.2377 99.4288 69.6502 99.4288 69.0035C99.4288 68.3648 99.3303 67.7891 99.1331 67.2765C98.9399 66.76 98.6462 66.3519 98.2519 66.0522C97.8615 65.7486 97.3706 65.5968 96.7792 65.5968C96.2114 65.5968 95.7343 65.7407 95.3479 66.0286C94.9615 66.3125 94.6697 66.7107 94.4726 67.2233C94.2754 67.7319 94.1769 68.3253 94.1769 69.0035ZM102.96 73.5458V64.4613H104.308V65.8334H104.403C104.568 65.3839 104.868 65.0192 105.302 64.7392C105.736 64.4593 106.224 64.3193 106.769 64.3193C106.871 64.3193 106.999 64.3213 107.153 64.3252C107.307 64.3292 107.423 64.3351 107.502 64.343V65.7624C107.455 65.7506 107.346 65.7329 107.177 65.7092C107.011 65.6816 106.836 65.6678 106.65 65.6678C106.209 65.6678 105.814 65.7605 105.467 65.9458C105.124 66.1272 104.852 66.3795 104.651 66.7028C104.454 67.0222 104.356 67.3869 104.356 67.797V73.5458H102.96ZM111.83 73.7587C111.254 73.7587 110.732 73.6503 110.263 73.4334C109.793 73.2126 109.421 72.8952 109.145 72.4812C108.869 72.0632 108.731 71.5585 108.731 70.9671C108.731 70.4466 108.833 70.0247 109.038 69.7014C109.243 69.3742 109.517 69.1179 109.86 68.9326C110.203 68.7472 110.582 68.6092 110.996 68.5185C111.414 68.4239 111.834 68.349 112.256 68.2938C112.808 68.2228 113.255 68.1696 113.598 68.1341C113.945 68.0947 114.198 68.0296 114.355 67.9389C114.517 67.8482 114.598 67.6905 114.598 67.4658V67.4185C114.598 66.8349 114.438 66.3815 114.119 66.0582C113.803 65.7348 113.324 65.5732 112.682 65.5732C112.015 65.5732 111.493 65.7191 111.114 66.0108C110.736 66.3026 110.47 66.6141 110.316 66.9453L108.991 66.4722C109.228 65.9202 109.543 65.4904 109.937 65.1828C110.335 64.8713 110.769 64.6545 111.238 64.5322C111.712 64.4061 112.177 64.343 112.634 64.343C112.926 64.343 113.261 64.3785 113.64 64.4494C114.022 64.5165 114.391 64.6564 114.746 64.8694C115.104 65.0823 115.402 65.4036 115.639 65.8334C115.875 66.2632 115.994 66.8389 115.994 67.5604V73.5458H114.598V72.3156H114.527C114.432 72.5127 114.274 72.7237 114.054 72.9484C113.833 73.1732 113.539 73.3644 113.172 73.5221C112.806 73.6798 112.358 73.7587 111.83 73.7587ZM112.043 72.5048C112.595 72.5048 113.06 72.3964 113.439 72.1796C113.821 71.9627 114.109 71.6827 114.302 71.3397C114.499 70.9967 114.598 70.6359 114.598 70.2574V68.9799C114.539 69.0508 114.409 69.1159 114.207 69.175C114.01 69.2302 113.782 69.2795 113.521 69.3229C113.265 69.3623 113.015 69.3978 112.77 69.4294C112.53 69.457 112.335 69.4806 112.185 69.5003C111.822 69.5476 111.483 69.6245 111.167 69.731C110.856 69.8335 110.604 69.9893 110.41 70.1982C110.221 70.4033 110.127 70.6832 110.127 71.0381C110.127 71.5231 110.306 71.8897 110.665 72.1382C111.027 72.3826 111.487 72.5048 112.043 72.5048ZM122.232 73.735C121.38 73.735 120.647 73.5339 120.032 73.1318C119.417 72.7296 118.943 72.1756 118.612 71.4698C118.281 70.764 118.115 69.9577 118.115 69.0508C118.115 68.1282 118.285 67.314 118.624 66.6082C118.967 65.8985 119.444 65.3445 120.055 64.9462C120.67 64.5441 121.388 64.343 122.208 64.343C122.847 64.343 123.423 64.4613 123.935 64.6978C124.448 64.9344 124.868 65.2656 125.195 65.6915C125.522 66.1173 125.725 66.6141 125.804 67.1819H124.408C124.302 66.7679 124.065 66.4012 123.699 66.0818C123.336 65.7585 122.847 65.5968 122.232 65.5968C121.688 65.5968 121.211 65.7388 120.801 66.0227C120.394 66.3026 120.077 66.6989 119.848 67.2115C119.624 67.7201 119.511 68.3175 119.511 69.0035C119.511 69.7054 119.622 70.3165 119.842 70.837C120.067 71.3575 120.383 71.7616 120.789 72.0494C121.199 72.3373 121.68 72.4812 122.232 72.4812C122.595 72.4812 122.924 72.4181 123.219 72.2919C123.515 72.1658 123.766 71.9844 123.971 71.7478C124.176 71.5112 124.322 71.2273 124.408 70.8961H125.804C125.725 71.4324 125.53 71.9154 125.219 72.3452C124.911 72.771 124.503 73.1101 123.994 73.3624C123.49 73.6108 122.902 73.735 122.232 73.735ZM131.653 73.735C130.778 73.735 130.023 73.5418 129.388 73.1554C128.757 72.7651 128.27 72.221 127.927 71.5231C127.588 70.8212 127.419 70.005 127.419 69.0745C127.419 68.144 127.588 67.3238 127.927 66.6141C128.27 65.9004 128.747 65.3445 129.359 64.9462C129.974 64.5441 130.691 64.343 131.511 64.343C131.985 64.343 132.452 64.4218 132.913 64.5796C133.375 64.7373 133.794 64.9936 134.173 65.3484C134.551 65.6993 134.853 66.1646 135.078 66.7442C135.303 67.3238 135.415 68.0375 135.415 68.8852V69.4767H128.412V68.2701H133.996C133.996 67.7576 133.893 67.3002 133.688 66.898C133.487 66.4958 133.199 66.1784 132.824 65.9458C132.454 65.7131 132.016 65.5968 131.511 65.5968C130.956 65.5968 130.474 65.7348 130.068 66.0108C129.666 66.2829 129.357 66.6378 129.14 67.0754C128.923 67.5131 128.815 67.9823 128.815 68.4831V69.2874C128.815 69.9735 128.933 70.5551 129.169 71.0322C129.41 71.5053 129.743 71.8661 130.169 72.1145C130.595 72.359 131.09 72.4812 131.653 72.4812C132.02 72.4812 132.351 72.4299 132.647 72.3274C132.947 72.221 133.205 72.0632 133.422 71.8543C133.639 71.6413 133.806 71.3772 133.925 71.0617L135.273 71.4403C135.131 71.8976 134.893 72.2998 134.557 72.6468C134.222 72.9898 133.808 73.2579 133.315 73.4511C132.822 73.6404 132.269 73.735 131.653 73.735ZM142.412 73.5458V61.4331H149.722V62.7343H143.878V66.827H149.343V68.1282H143.878V72.2446H149.817V73.5458H142.412ZM159.605 64.4613L156.245 73.5458H154.826L151.467 64.4613H152.981L155.488 71.7005H155.583L158.091 64.4613H159.605ZM164.931 73.735C164.055 73.735 163.3 73.5418 162.666 73.1554C162.035 72.7651 161.548 72.221 161.205 71.5231C160.866 70.8212 160.696 70.005 160.696 69.0745C160.696 68.144 160.866 67.3238 161.205 66.6141C161.548 65.9004 162.025 65.3445 162.636 64.9462C163.251 64.5441 163.969 64.343 164.789 64.343C165.262 64.343 165.729 64.4218 166.191 64.5796C166.652 64.7373 167.072 64.9936 167.45 65.3484C167.829 65.6993 168.13 66.1646 168.355 66.7442C168.58 67.3238 168.692 68.0375 168.692 68.8852V69.4767H161.69V68.2701H167.273C167.273 67.7576 167.17 67.3002 166.965 66.898C166.764 66.4958 166.476 66.1784 166.102 65.9458C165.731 65.7131 165.293 65.5968 164.789 65.5968C164.233 65.5968 163.752 65.7348 163.346 66.0108C162.944 66.2829 162.634 66.6378 162.417 67.0754C162.2 67.5131 162.092 67.9823 162.092 68.4831V69.2874C162.092 69.9735 162.21 70.5551 162.447 71.0322C162.687 71.5053 163.02 71.8661 163.446 72.1145C163.872 72.359 164.367 72.4812 164.931 72.4812C165.297 72.4812 165.629 72.4299 165.924 72.3274C166.224 72.221 166.482 72.0632 166.699 71.8543C166.916 71.6413 167.084 71.3772 167.202 71.0617L168.55 71.4403C168.408 71.8976 168.17 72.2998 167.835 72.6468C167.5 72.9898 167.086 73.2579 166.593 73.4511C166.1 73.6404 165.546 73.735 164.931 73.735ZM170.816 73.5458V64.4613H172.164V65.8334H172.259C172.424 65.3839 172.724 65.0192 173.158 64.7392C173.591 64.4593 174.08 64.3193 174.624 64.3193C174.727 64.3193 174.855 64.3213 175.009 64.3252C175.163 64.3292 175.279 64.3351 175.358 64.343V65.7624C175.31 65.7506 175.202 65.7329 175.033 65.7092C174.867 65.6816 174.691 65.6678 174.506 65.6678C174.065 65.6678 173.67 65.7605 173.323 65.9458C172.98 66.1272 172.708 66.3795 172.507 66.7028C172.31 67.0222 172.211 67.3869 172.211 67.797V73.5458H170.816ZM178.188 76.9525C177.951 76.9525 177.74 76.9328 177.555 76.8933C177.37 76.8578 177.242 76.8223 177.171 76.7869L177.525 75.5567C177.865 75.6434 178.164 75.675 178.424 75.6513C178.685 75.6276 178.915 75.5113 179.116 75.3024C179.321 75.0973 179.509 74.7641 179.678 74.3028L179.939 73.5931L176.579 64.4613H178.093L180.601 71.7005H180.696L183.203 64.4613H184.717L180.861 74.8706C180.688 75.3398 180.473 75.7282 180.216 76.0357C179.96 76.3472 179.663 76.5779 179.323 76.7277C178.988 76.8776 178.61 76.9525 178.188 76.9525ZM189.925 73.735C189.105 73.735 188.385 73.5399 187.766 73.1495C187.151 72.7592 186.67 72.2131 186.323 71.5112C185.98 70.8094 185.809 69.9893 185.809 69.0508C185.809 68.1045 185.98 67.2785 186.323 66.5727C186.67 65.8669 187.151 65.3189 187.766 64.9285C188.385 64.5382 189.105 64.343 189.925 64.343C190.745 64.343 191.463 64.5382 192.078 64.9285C192.697 65.3189 193.178 65.8669 193.521 66.5727C193.868 67.2785 194.041 68.1045 194.041 69.0508C194.041 69.9893 193.868 70.8094 193.521 71.5112C193.178 72.2131 192.697 72.7592 192.078 73.1495C191.463 73.5399 190.745 73.735 189.925 73.735ZM189.925 72.4812C190.548 72.4812 191.061 72.3215 191.463 72.0021C191.865 71.6827 192.163 71.2628 192.356 70.7424C192.549 70.2219 192.646 69.658 192.646 69.0508C192.646 68.4436 192.549 67.8778 192.356 67.3534C192.163 66.829 191.865 66.4051 191.463 66.0818C191.061 65.7585 190.548 65.5968 189.925 65.5968C189.302 65.5968 188.789 65.7585 188.387 66.0818C187.985 66.4051 187.687 66.829 187.494 67.3534C187.301 67.8778 187.204 68.4436 187.204 69.0508C187.204 69.658 187.301 70.2219 187.494 70.7424C187.687 71.2628 187.985 71.6827 188.387 72.0021C188.789 72.3215 189.302 72.4812 189.925 72.4812ZM197.568 68.0809V73.5458H196.172V64.4613H197.521V65.8807H197.639C197.852 65.4194 198.175 65.0488 198.609 64.7688C199.042 64.4849 199.602 64.343 200.288 64.343C200.904 64.343 201.442 64.4692 201.903 64.7215C202.364 64.9699 202.723 65.3484 202.98 65.8571C203.236 66.3618 203.364 67.0005 203.364 67.7733V73.5458H201.968V67.868C201.968 67.1543 201.783 66.5983 201.412 66.2001C201.042 65.7979 200.533 65.5968 199.886 65.5968C199.441 65.5968 199.042 65.6934 198.692 65.8866C198.345 66.0798 198.071 66.3618 197.869 66.7324C197.668 67.103 197.568 67.5525 197.568 68.0809ZM209.723 73.735C208.848 73.735 208.093 73.5418 207.458 73.1554C206.827 72.7651 206.34 72.221 205.997 71.5231C205.658 70.8212 205.489 70.005 205.489 69.0745C205.489 68.144 205.658 67.3238 205.997 66.6141C206.34 65.9004 206.817 65.3445 207.429 64.9462C208.044 64.5441 208.761 64.343 209.581 64.343C210.055 64.343 210.522 64.4218 210.983 64.5796C211.444 64.7373 211.864 64.9936 212.243 65.3484C212.621 65.6993 212.923 66.1646 213.148 66.7442C213.373 67.3238 213.485 68.0375 213.485 68.8852V69.4767H206.482V68.2701H212.066C212.066 67.7576 211.963 67.3002 211.758 66.898C211.557 66.4958 211.269 66.1784 210.894 65.9458C210.524 65.7131 210.086 65.5968 209.581 65.5968C209.026 65.5968 208.544 65.7348 208.138 66.0108C207.736 66.2829 207.427 66.6378 207.21 67.0754C206.993 67.5131 206.884 67.9823 206.884 68.4831V69.2874C206.884 69.9735 207.003 70.5551 207.239 71.0322C207.48 71.5053 207.813 71.8661 208.239 72.1145C208.665 72.359 209.16 72.4812 209.723 72.4812C210.09 72.4812 210.421 72.4299 210.717 72.3274C211.017 72.221 211.275 72.0632 211.492 71.8543C211.709 71.6413 211.876 71.3772 211.995 71.0617L213.343 71.4403C213.201 71.8976 212.963 72.2998 212.627 72.6468C212.292 72.9898 211.878 73.2579 211.385 73.4511C210.892 73.6404 210.338 73.735 209.723 73.735Z" fill="#121212"/>
<defs>
<filter id="filter0_d_441_69" x="27.7793" y="35.2848" width="24.1337" height="30.916" filterUnits="userSpaceOnUse" color-interpolation-filters="sRGB">
<feFlood flood-opacity="0" result="BackgroundImageFix"/>
<feColorMatrix in="SourceAlpha" type="matrix" values="0 0 0 0 0 0 0 0 0 0 0 0 0 0 0 0 0 0 127 0" result="hardAlpha"/>
<feOffset dy="7.57468"/>
<feGaussianBlur stdDeviation="3.78734"/>
<feComposite in2="hardAlpha" operator="out"/>
<feColorMatrix type="matrix" values="0 0 0 0 0 0 0 0 0 0 0 0 0 0 0 0 0 0 0.25 0"/>
<feBlend mode="normal" in2="BackgroundImageFix" result="effect1_dropShadow_441_69"/>
<feBlend mode="normal" in="SourceGraphic" in2="effect1_dropShadow_441_69" result="shape"/>
</filter>
</defs>
</svg>
