<svg width="94" height="28" viewBox="0 0 94 28" fill="none" xmlns="http://www.w3.org/2000/svg">
<path d="M38.824 16.1867H33.96L33.064 18.6667H31.528L35.56 7.57875H37.24L41.256 18.6667H39.72L38.824 16.1867ZM38.408 15.0027L36.392 9.37075L34.376 15.0027H38.408ZM47.2853 9.73875C48.3519 9.73875 49.2159 10.0641 49.8773 10.7147C50.5386 11.3547 50.8693 12.2827 50.8693 13.4987V18.6667H49.4293V13.7067C49.4293 12.8321 49.2106 12.1654 48.7733 11.7067C48.3359 11.2374 47.7386 11.0027 46.9813 11.0027C46.2133 11.0027 45.5999 11.2427 45.1413 11.7227C44.6933 12.2027 44.4693 12.9014 44.4693 13.8187V18.6667H43.0133V9.89875H44.4693V11.1467C44.7573 10.6987 45.1466 10.3521 45.6373 10.1067C46.1386 9.86141 46.6879 9.73875 47.2853 9.73875ZM52.7036 14.2507C52.7036 13.3547 52.885 12.5707 53.2476 11.8987C53.6103 11.2161 54.1063 10.6881 54.7356 10.3147C55.3756 9.94141 56.0903 9.75475 56.8796 9.75475C57.5623 9.75475 58.197 9.91475 58.7836 10.2347C59.3703 10.5441 59.8183 10.9547 60.1276 11.4667V6.82675H61.5996V18.6667H60.1276V17.0187C59.8396 17.5414 59.413 17.9734 58.8476 18.3147C58.2823 18.6454 57.621 18.8107 56.8636 18.8107C56.085 18.8107 55.3756 18.6187 54.7356 18.2347C54.1063 17.8507 53.6103 17.3121 53.2476 16.6187C52.885 15.9254 52.7036 15.1361 52.7036 14.2507ZM60.1276 14.2667C60.1276 13.6054 59.9943 13.0294 59.7276 12.5387C59.461 12.0481 59.0983 11.6747 58.6396 11.4187C58.1916 11.1521 57.6956 11.0187 57.1516 11.0187C56.6076 11.0187 56.1116 11.1467 55.6636 11.4027C55.2156 11.6587 54.8583 12.0321 54.5916 12.5227C54.325 13.0134 54.1916 13.5894 54.1916 14.2507C54.1916 14.9227 54.325 15.5094 54.5916 16.0107C54.8583 16.5014 55.2156 16.8801 55.6636 17.1467C56.1116 17.4027 56.6076 17.5307 57.1516 17.5307C57.6956 17.5307 58.1916 17.4027 58.6396 17.1467C59.0983 16.8801 59.461 16.5014 59.7276 16.0107C59.9943 15.5094 60.1276 14.9281 60.1276 14.2667ZM65.5161 11.3227C65.7721 10.8214 66.1348 10.4321 66.6041 10.1547C67.0841 9.87741 67.6655 9.73875 68.3481 9.73875V11.2427H67.9641C66.3321 11.2427 65.5161 12.1281 65.5161 13.8987V18.6667H64.0601V9.89875H65.5161V11.3227ZM70.7809 8.47475C70.5035 8.47475 70.2689 8.37875 70.0769 8.18675C69.8849 7.99475 69.7889 7.76008 69.7889 7.48275C69.7889 7.20541 69.8849 6.97075 70.0769 6.77875C70.2689 6.58675 70.5035 6.49075 70.7809 6.49075C71.0475 6.49075 71.2715 6.58675 71.4529 6.77875C71.6449 6.97075 71.7409 7.20541 71.7409 7.48275C71.7409 7.76008 71.6449 7.99475 71.4529 8.18675C71.2715 8.37875 71.0475 8.47475 70.7809 8.47475ZM71.4849 9.89875V18.6667H70.0289V9.89875H71.4849ZM77.7904 18.8107C76.969 18.8107 76.2224 18.6241 75.5504 18.2507C74.889 17.8774 74.3664 17.3494 73.9824 16.6667C73.609 15.9734 73.4224 15.1734 73.4224 14.2667C73.4224 13.3707 73.6144 12.5814 73.9984 11.8987C74.393 11.2054 74.9264 10.6774 75.5984 10.3147C76.2704 9.94141 77.0224 9.75475 77.8544 9.75475C78.6864 9.75475 79.4384 9.94141 80.1104 10.3147C80.7824 10.6774 81.3104 11.2001 81.6944 11.8827C82.089 12.5654 82.2864 13.3601 82.2864 14.2667C82.2864 15.1734 82.0837 15.9734 81.6784 16.6667C81.2837 17.3494 80.745 17.8774 80.0624 18.2507C79.3797 18.6241 78.6224 18.8107 77.7904 18.8107ZM77.7904 17.5307C78.313 17.5307 78.8037 17.4081 79.2624 17.1627C79.721 16.9174 80.089 16.5494 80.3664 16.0587C80.6544 15.5681 80.7984 14.9707 80.7984 14.2667C80.7984 13.5627 80.6597 12.9654 80.3824 12.4747C80.105 11.9841 79.7424 11.6214 79.2944 11.3867C78.8464 11.1414 78.361 11.0187 77.8384 11.0187C77.305 11.0187 76.8144 11.1414 76.3664 11.3867C75.929 11.6214 75.577 11.9841 75.3104 12.4747C75.0437 12.9654 74.9104 13.5627 74.9104 14.2667C74.9104 14.9814 75.0384 15.5841 75.2944 16.0747C75.561 16.5654 75.913 16.9334 76.3504 17.1787C76.7877 17.4134 77.2677 17.5307 77.7904 17.5307ZM83.6568 14.2507C83.6568 13.3547 83.8381 12.5707 84.2008 11.8987C84.5634 11.2161 85.0594 10.6881 85.6888 10.3147C86.3288 9.94141 87.0434 9.75475 87.8328 9.75475C88.5154 9.75475 89.1501 9.91475 89.7368 10.2347C90.3234 10.5441 90.7714 10.9547 91.0808 11.4667V6.82675H92.5528V18.6667H91.0808V17.0187C90.7928 17.5414 90.3661 17.9734 89.8008 18.3147C89.2354 18.6454 88.5741 18.8107 87.8168 18.8107C87.0381 18.8107 86.3288 18.6187 85.6888 18.2347C85.0594 17.8507 84.5634 17.3121 84.2008 16.6187C83.8381 15.9254 83.6568 15.1361 83.6568 14.2507ZM91.0808 14.2667C91.0808 13.6054 90.9474 13.0294 90.6808 12.5387C90.4141 12.0481 90.0514 11.6747 89.5928 11.4187C89.1448 11.1521 88.6488 11.0187 88.1048 11.0187C87.5608 11.0187 87.0648 11.1467 86.6168 11.4027C86.1688 11.6587 85.8114 12.0321 85.5448 12.5227C85.2781 13.0134 85.1448 13.5894 85.1448 14.2507C85.1448 14.9227 85.2781 15.5094 85.5448 16.0107C85.8114 16.5014 86.1688 16.8801 86.6168 17.1467C87.0648 17.4027 87.5608 17.5307 88.1048 17.5307C88.6488 17.5307 89.1448 17.4027 89.5928 17.1467C90.0514 16.8801 90.4141 16.5014 90.6808 16.0107C90.9474 15.5094 91.0808 14.9281 91.0808 14.2667Z" fill="white"/>
<path d="M38.824 16.1867H33.96L33.064 18.6667H31.528L35.56 7.57875H37.24L41.256 18.6667H39.72L38.824 16.1867ZM38.408 15.0027L36.392 9.37075L34.376 15.0027H38.408ZM47.2853 9.73875C48.3519 9.73875 49.2159 10.0641 49.8773 10.7147C50.5386 11.3547 50.8693 12.2827 50.8693 13.4987V18.6667H49.4293V13.7067C49.4293 12.8321 49.2106 12.1654 48.7733 11.7067C48.3359 11.2374 47.7386 11.0027 46.9813 11.0027C46.2133 11.0027 45.5999 11.2427 45.1413 11.7227C44.6933 12.2027 44.4693 12.9014 44.4693 13.8187V18.6667H43.0133V9.89875H44.4693V11.1467C44.7573 10.6987 45.1466 10.3521 45.6373 10.1067C46.1386 9.86141 46.6879 9.73875 47.2853 9.73875ZM52.7036 14.2507C52.7036 13.3547 52.885 12.5707 53.2476 11.8987C53.6103 11.2161 54.1063 10.6881 54.7356 10.3147C55.3756 9.94141 56.0903 9.75475 56.8796 9.75475C57.5623 9.75475 58.197 9.91475 58.7836 10.2347C59.3703 10.5441 59.8183 10.9547 60.1276 11.4667V6.82675H61.5996V18.6667H60.1276V17.0187C59.8396 17.5414 59.413 17.9734 58.8476 18.3147C58.2823 18.6454 57.621 18.8107 56.8636 18.8107C56.085 18.8107 55.3756 18.6187 54.7356 18.2347C54.1063 17.8507 53.6103 17.3121 53.2476 16.6187C52.885 15.9254 52.7036 15.1361 52.7036 14.2507ZM60.1276 14.2667C60.1276 13.6054 59.9943 13.0294 59.7276 12.5387C59.461 12.0481 59.0983 11.6747 58.6396 11.4187C58.1916 11.1521 57.6956 11.0187 57.1516 11.0187C56.6076 11.0187 56.1116 11.1467 55.6636 11.4027C55.2156 11.6587 54.8583 12.0321 54.5916 12.5227C54.325 13.0134 54.1916 13.5894 54.1916 14.2507C54.1916 14.9227 54.325 15.5094 54.5916 16.0107C54.8583 16.5014 55.2156 16.8801 55.6636 17.1467C56.1116 17.4027 56.6076 17.5307 57.1516 17.5307C57.6956 17.5307 58.1916 17.4027 58.6396 17.1467C59.0983 16.8801 59.461 16.5014 59.7276 16.0107C59.9943 15.5094 60.1276 14.9281 60.1276 14.2667ZM65.5161 11.3227C65.7721 10.8214 66.1348 10.4321 66.6041 10.1547C67.0841 9.87741 67.6655 9.73875 68.3481 9.73875V11.2427H67.9641C66.3321 11.2427 65.5161 12.1281 65.5161 13.8987V18.6667H64.0601V9.89875H65.5161V11.3227ZM70.7809 8.47475C70.5035 8.47475 70.2689 8.37875 70.0769 8.18675C69.8849 7.99475 69.7889 7.76008 69.7889 7.48275C69.7889 7.20541 69.8849 6.97075 70.0769 6.77875C70.2689 6.58675 70.5035 6.49075 70.7809 6.49075C71.0475 6.49075 71.2715 6.58675 71.4529 6.77875C71.6449 6.97075 71.7409 7.20541 71.7409 7.48275C71.7409 7.76008 71.6449 7.99475 71.4529 8.18675C71.2715 8.37875 71.0475 8.47475 70.7809 8.47475ZM71.4849 9.89875V18.6667H70.0289V9.89875H71.4849ZM77.7904 18.8107C76.969 18.8107 76.2224 18.6241 75.5504 18.2507C74.889 17.8774 74.3664 17.3494 73.9824 16.6667C73.609 15.9734 73.4224 15.1734 73.4224 14.2667C73.4224 13.3707 73.6144 12.5814 73.9984 11.8987C74.393 11.2054 74.9264 10.6774 75.5984 10.3147C76.2704 9.94141 77.0224 9.75475 77.8544 9.75475C78.6864 9.75475 79.4384 9.94141 80.1104 10.3147C80.7824 10.6774 81.3104 11.2001 81.6944 11.8827C82.089 12.5654 82.2864 13.3601 82.2864 14.2667C82.2864 15.1734 82.0837 15.9734 81.6784 16.6667C81.2837 17.3494 80.745 17.8774 80.0624 18.2507C79.3797 18.6241 78.6224 18.8107 77.7904 18.8107ZM77.7904 17.5307C78.313 17.5307 78.8037 17.4081 79.2624 17.1627C79.721 16.9174 80.089 16.5494 80.3664 16.0587C80.6544 15.5681 80.7984 14.9707 80.7984 14.2667C80.7984 13.5627 80.6597 12.9654 80.3824 12.4747C80.105 11.9841 79.7424 11.6214 79.2944 11.3867C78.8464 11.1414 78.361 11.0187 77.8384 11.0187C77.305 11.0187 76.8144 11.1414 76.3664 11.3867C75.929 11.6214 75.577 11.9841 75.3104 12.4747C75.0437 12.9654 74.9104 13.5627 74.9104 14.2667C74.9104 14.9814 75.0384 15.5841 75.2944 16.0747C75.561 16.5654 75.913 16.9334 76.3504 17.1787C76.7877 17.4134 77.2677 17.5307 77.7904 17.5307ZM83.6568 14.2507C83.6568 13.3547 83.8381 12.5707 84.2008 11.8987C84.5634 11.2161 85.0594 10.6881 85.6888 10.3147C86.3288 9.94141 87.0434 9.75475 87.8328 9.75475C88.5154 9.75475 89.1501 9.91475 89.7368 10.2347C90.3234 10.5441 90.7714 10.9547 91.0808 11.4667V6.82675H92.5528V18.6667H91.0808V17.0187C90.7928 17.5414 90.3661 17.9734 89.8008 18.3147C89.2354 18.6454 88.5741 18.8107 87.8168 18.8107C87.0381 18.8107 86.3288 18.6187 85.6888 18.2347C85.0594 17.8507 84.5634 17.3121 84.2008 16.6187C83.8381 15.9254 83.6568 15.1361 83.6568 14.2507ZM91.0808 14.2667C91.0808 13.6054 90.9474 13.0294 90.6808 12.5387C90.4141 12.0481 90.0514 11.6747 89.5928 11.4187C89.1448 11.1521 88.6488 11.0187 88.1048 11.0187C87.5608 11.0187 87.0648 11.1467 86.6168 11.4027C86.1688 11.6587 85.8114 12.0321 85.5448 12.5227C85.2781 13.0134 85.1448 13.5894 85.1448 14.2507C85.1448 14.9227 85.2781 15.5094 85.5448 16.0107C85.8114 16.5014 86.1688 16.8801 86.6168 17.1467C87.0648 17.4027 87.5608 17.5307 88.1048 17.5307C88.6488 17.5307 89.1448 17.4027 89.5928 17.1467C90.0514 16.8801 90.4141 16.5014 90.6808 16.0107C90.9474 15.5094 91.0808 14.9281 91.0808 14.2667Z" fill="white"/>
<path d="M16.61 16.6874C16.15 16.6874 15.77 16.2763 15.77 15.7652C15.77 15.2541 16.15 14.8541 16.61 14.8541C17.07 14.8541 17.45 15.2541 17.45 15.7652C17.45 16.2763 17.07 16.6874 16.61 16.6874ZM7.41 16.6874C6.95 16.6874 6.57 16.2763 6.57 15.7652C6.57 15.2541 6.95 14.8541 7.41 14.8541C7.87 14.8541 8.24 15.2541 8.24 15.7652C8.24 16.2763 7.87 16.6874 7.41 16.6874ZM16.91 11.1207L18.58 7.92075C18.67 7.73186 18.61 7.49852 18.45 7.39852C18.28 7.28741 18.07 7.35408 18 7.54297L16.29 10.7763C14.95 10.0985 13.5 9.74297 12 9.75408C10.47 9.75408 9 10.1207 7.73 10.7652L6.04 7.53186C5.95 7.34297 5.74 7.2763 5.57 7.38741C5.4 7.48741 5.35 7.72075 5.44 7.90963L7.1 11.1096C4.25 12.843 2.29 16.0541 2 19.8541H22C21.72 16.0652 19.77 12.8541 16.91 11.1207Z" fill="#198907"/>
</svg>
