<svg width="180" height="45" viewBox="0 0 180 45" fill="none" xmlns="http://www.w3.org/2000/svg">
<rect width="180" height="45" rx="6" fill="#100F0F"/>
<path d="M57.9999 15.2201C59.2159 15.2201 60.2666 15.4494 61.1519 15.9081C62.0479 16.3561 62.7306 17.0014 63.1999 17.8441C63.6799 18.6867 63.9199 19.6787 63.9199 20.8201C63.9199 21.9614 63.6799 22.9534 63.1999 23.7961C62.7306 24.6281 62.0479 25.2681 61.1519 25.7161C60.2666 26.1534 59.2159 26.3721 57.9999 26.3721H54.5279V15.2201H57.9999ZM57.9999 25.1721C59.4399 25.1721 60.5386 24.7934 61.2959 24.0361C62.0532 23.2681 62.4319 22.1961 62.4319 20.8201C62.4319 19.4334 62.0479 18.3507 61.2799 17.5721C60.5226 16.7934 59.4292 16.4041 57.9999 16.4041H55.9839V25.1721H57.9999ZM69.6644 26.5161C68.8431 26.5161 68.0964 26.3294 67.4244 25.9561C66.7631 25.5827 66.2404 25.0547 65.8564 24.3721C65.4831 23.6787 65.2964 22.8787 65.2964 21.9721C65.2964 21.0761 65.4884 20.2867 65.8724 19.6041C66.2671 18.9107 66.8004 18.3827 67.4724 18.0201C68.1444 17.6467 68.8964 17.4601 69.7284 17.4601C70.5604 17.4601 71.3124 17.6467 71.9844 18.0201C72.6564 18.3827 73.1844 18.9054 73.5684 19.5881C73.9631 20.2707 74.1604 21.0654 74.1604 21.9721C74.1604 22.8787 73.9577 23.6787 73.5524 24.3721C73.1577 25.0547 72.6191 25.5827 71.9364 25.9561C71.2537 26.3294 70.4964 26.5161 69.6644 26.5161ZM69.6644 25.2361C70.1871 25.2361 70.6777 25.1134 71.1364 24.8681C71.5951 24.6227 71.9631 24.2547 72.2404 23.7641C72.5284 23.2734 72.6724 22.6761 72.6724 21.9721C72.6724 21.2681 72.5337 20.6707 72.2564 20.1801C71.9791 19.6894 71.6164 19.3267 71.1684 19.0921C70.7204 18.8467 70.2351 18.7241 69.7124 18.7241C69.1791 18.7241 68.6884 18.8467 68.2404 19.0921C67.8031 19.3267 67.4511 19.6894 67.1844 20.1801C66.9177 20.6707 66.7844 21.2681 66.7844 21.9721C66.7844 22.6867 66.9124 23.2894 67.1684 23.7801C67.4351 24.2707 67.7871 24.6387 68.2244 24.8841C68.6617 25.1187 69.1417 25.2361 69.6644 25.2361ZM87.7548 17.6041L85.0188 26.3721H83.5148L81.4028 19.4121L79.2908 26.3721H77.7868L75.0348 17.6041H76.5228L78.5388 24.9641L80.7148 17.6041H82.2028L84.3308 24.9801L86.3148 17.6041H87.7548ZM93.4718 17.4441C94.5384 17.4441 95.4024 17.7694 96.0638 18.4201C96.7251 19.0601 97.0558 19.9881 97.0558 21.2041V26.3721H95.6158V21.4121C95.6158 20.5374 95.3971 19.8707 94.9598 19.4121C94.5224 18.9427 93.9251 18.7081 93.1678 18.7081C92.3998 18.7081 91.7864 18.9481 91.3278 19.4281C90.8798 19.9081 90.6558 20.6067 90.6558 21.5241V26.3721H89.1998V17.6041H90.6558V18.8521C90.9438 18.4041 91.3331 18.0574 91.8238 17.8121C92.3251 17.5667 92.8744 17.4441 93.4718 17.4441ZM100.89 14.5321V26.3721H99.4341V14.5321H100.89ZM107.196 26.5161C106.374 26.5161 105.628 26.3294 104.956 25.9561C104.294 25.5827 103.772 25.0547 103.388 24.3721C103.014 23.6787 102.828 22.8787 102.828 21.9721C102.828 21.0761 103.02 20.2867 103.404 19.6041C103.798 18.9107 104.332 18.3827 105.004 18.0201C105.676 17.6467 106.428 17.4601 107.26 17.4601C108.092 17.4601 108.844 17.6467 109.516 18.0201C110.188 18.3827 110.716 18.9054 111.1 19.5881C111.494 20.2707 111.692 21.0654 111.692 21.9721C111.692 22.8787 111.489 23.6787 111.084 24.3721C110.689 25.0547 110.15 25.5827 109.468 25.9561C108.785 26.3294 108.028 26.5161 107.196 26.5161ZM107.196 25.2361C107.718 25.2361 108.209 25.1134 108.668 24.8681C109.126 24.6227 109.494 24.2547 109.772 23.7641C110.06 23.2734 110.204 22.6761 110.204 21.9721C110.204 21.2681 110.065 20.6707 109.788 20.1801C109.51 19.6894 109.148 19.3267 108.7 19.0921C108.252 18.8467 107.766 18.7241 107.244 18.7241C106.71 18.7241 106.22 18.8467 105.772 19.0921C105.334 19.3267 104.982 19.6894 104.716 20.1801C104.449 20.6707 104.316 21.2681 104.316 21.9721C104.316 22.6867 104.444 23.2894 104.7 23.7801C104.966 24.2707 105.318 24.6387 105.756 24.8841C106.193 25.1187 106.673 25.2361 107.196 25.2361ZM113.062 21.9561C113.062 21.0601 113.243 20.2761 113.606 19.6041C113.969 18.9214 114.465 18.3934 115.094 18.0201C115.734 17.6467 116.443 17.4601 117.222 17.4601C117.99 17.4601 118.657 17.6254 119.222 17.9561C119.787 18.2867 120.209 18.7027 120.486 19.2041V17.6041H121.958V26.3721H120.486V24.7401C120.198 25.2521 119.766 25.6787 119.19 26.0201C118.625 26.3507 117.963 26.5161 117.206 26.5161C116.427 26.5161 115.723 26.3241 115.094 25.9401C114.465 25.5561 113.969 25.0174 113.606 24.3241C113.243 23.6307 113.062 22.8414 113.062 21.9561ZM120.486 21.9721C120.486 21.3107 120.353 20.7347 120.086 20.2441C119.819 19.7534 119.457 19.3801 118.998 19.1241C118.55 18.8574 118.054 18.7241 117.51 18.7241C116.966 18.7241 116.47 18.8521 116.022 19.1081C115.574 19.3641 115.217 19.7374 114.95 20.2281C114.683 20.7187 114.55 21.2947 114.55 21.9561C114.55 22.6281 114.683 23.2147 114.95 23.7161C115.217 24.2067 115.574 24.5854 116.022 24.8521C116.47 25.1081 116.966 25.2361 117.51 25.2361C118.054 25.2361 118.55 25.1081 118.998 24.8521C119.457 24.5854 119.819 24.2067 120.086 23.7161C120.353 23.2147 120.486 22.6334 120.486 21.9721ZM123.875 21.9561C123.875 21.0601 124.056 20.2761 124.419 19.6041C124.781 18.9214 125.277 18.3934 125.907 18.0201C126.547 17.6467 127.261 17.4601 128.051 17.4601C128.733 17.4601 129.368 17.6201 129.955 17.9401C130.541 18.2494 130.989 18.6601 131.299 19.1721V14.5321H132.771V26.3721H131.299V24.7241C131.011 25.2467 130.584 25.6787 130.019 26.0201C129.453 26.3507 128.792 26.5161 128.035 26.5161C127.256 26.5161 126.547 26.3241 125.907 25.9401C125.277 25.5561 124.781 25.0174 124.419 24.3241C124.056 23.6307 123.875 22.8414 123.875 21.9561ZM131.299 21.9721C131.299 21.3107 131.165 20.7347 130.899 20.2441C130.632 19.7534 130.269 19.3801 129.811 19.1241C129.363 18.8574 128.867 18.7241 128.323 18.7241C127.779 18.7241 127.283 18.8521 126.835 19.1081C126.387 19.3641 126.029 19.7374 125.763 20.2281C125.496 20.7187 125.363 21.2947 125.363 21.9561C125.363 22.6281 125.496 23.2147 125.763 23.7161C126.029 24.2067 126.387 24.5854 126.835 24.8521C127.283 25.1081 127.779 25.2361 128.323 25.2361C128.867 25.2361 129.363 25.1081 129.811 24.8521C130.269 24.5854 130.632 24.2067 130.899 23.7161C131.165 23.2147 131.299 22.6334 131.299 21.9721ZM146.089 23.8921H141.225L140.329 26.3721H138.793L142.825 15.2841H144.505L148.521 26.3721H146.985L146.089 23.8921ZM145.673 22.7081L143.657 17.0761L141.641 22.7081H145.673ZM157.734 18.4841C157.734 19.4121 157.414 20.1854 156.774 20.8041C156.145 21.4121 155.179 21.7161 153.878 21.7161H151.734V26.3721H150.278V15.2201H153.878C155.137 15.2201 156.091 15.5241 156.742 16.1321C157.403 16.7401 157.734 17.5241 157.734 18.4841ZM153.878 20.5161C154.689 20.5161 155.286 20.3401 155.67 19.9881C156.054 19.6361 156.246 19.1347 156.246 18.4841C156.246 17.1081 155.457 16.4201 153.878 16.4201H151.734V20.5161H153.878ZM165.592 26.3721L161 21.2841V26.3721H159.544V15.2201H161V20.3881L165.608 15.2201H167.448L162.392 20.8041L167.496 26.3721H165.592Z" fill="white"/>
<path d="M31.011 23.6803C30.375 23.6803 29.8496 23.0995 29.8496 22.3774C29.8496 21.6553 30.375 21.0902 31.011 21.0902C31.6471 21.0902 32.1725 21.6553 32.1725 22.3774C32.1725 23.0995 31.6471 23.6803 31.011 23.6803ZM18.2904 23.6803C17.6543 23.6803 17.1289 23.0995 17.1289 22.3774C17.1289 21.6553 17.6543 21.0902 18.2904 21.0902C18.9264 21.0902 19.438 21.6553 19.438 22.3774C19.438 23.0995 18.9264 23.6803 18.2904 23.6803ZM31.4258 15.8158L33.7349 11.2949C33.8594 11.028 33.7764 10.6984 33.5552 10.5571C33.3201 10.4001 33.0298 10.4943 32.933 10.7612L30.5686 15.3292C28.7158 14.3716 26.7109 13.8693 24.6369 13.885C22.5214 13.885 20.4888 14.403 18.7328 15.3135L16.3961 10.7455C16.2717 10.4786 15.9813 10.3844 15.7462 10.5414C15.5112 10.6827 15.442 11.0123 15.5665 11.2792L17.8617 15.8001C13.9211 18.2489 11.211 22.7856 10.8101 28.1542H38.4637C38.0765 22.8013 35.3803 18.2646 31.4258 15.8158Z" fill="#198907"/>
</svg>
