<svg width="258" height="41" viewBox="0 0 258 41" fill="none" xmlns="http://www.w3.org/2000/svg">
<path d="M3.62738 18H1.88138V5.103H3.62738V18ZM7.91967 10.206C8.11767 9.984 8.32767 9.783 8.54967 9.603C8.77167 9.423 9.00567 9.27 9.25167 9.144C9.50367 9.012 9.76767 8.913 10.0437 8.847C10.3257 8.775 10.6287 8.739 10.9527 8.739C11.4507 8.739 11.8887 8.823 12.2667 8.991C12.6507 9.153 12.9687 9.387 13.2207 9.693C13.4787 9.993 13.6737 10.356 13.8057 10.782C13.9377 11.208 14.0037 11.679 14.0037 12.195V18H12.3927V12.195C12.3927 11.505 12.2337 10.971 11.9157 10.593C11.6037 10.209 11.1267 10.017 10.4847 10.017C10.0107 10.017 9.56667 10.131 9.15267 10.359C8.74467 10.587 8.36667 10.896 8.01867 11.286V18H6.40767V8.883H7.37067C7.59867 8.883 7.73967 8.994 7.79367 9.216L7.91967 10.206ZM22.3848 11.052C22.0848 10.65 21.7608 10.371 21.4128 10.215C21.0648 10.053 20.6748 9.972 20.2428 9.972C19.3968 9.972 18.7458 10.275 18.2898 10.881C17.8338 11.487 17.6058 12.351 17.6058 13.473C17.6058 14.067 17.6568 14.577 17.7588 15.003C17.8608 15.423 18.0108 15.771 18.2088 16.047C18.4068 16.317 18.6498 16.515 18.9378 16.641C19.2258 16.767 19.5528 16.83 19.9188 16.83C20.4468 16.83 20.9058 16.71 21.2958 16.47C21.6918 16.23 22.0548 15.891 22.3848 15.453V11.052ZM23.9868 4.743V18H23.0328C22.8048 18 22.6608 17.889 22.6008 17.667L22.4568 16.56C22.0668 17.028 21.6228 17.406 21.1248 17.694C20.6268 17.982 20.0508 18.126 19.3968 18.126C18.8748 18.126 18.4008 18.027 17.9748 17.829C17.5488 17.625 17.1858 17.328 16.8858 16.938C16.5858 16.548 16.3548 16.062 16.1928 15.48C16.0308 14.898 15.9498 14.229 15.9498 13.473C15.9498 12.801 16.0398 12.177 16.2198 11.601C16.3998 11.019 16.6578 10.515 16.9938 10.089C17.3298 9.663 17.7408 9.33 18.2268 9.09C18.7188 8.844 19.2708 8.721 19.8828 8.721C20.4408 8.721 20.9178 8.817 21.3138 9.009C21.7158 9.195 22.0728 9.456 22.3848 9.792V4.743H23.9868ZM28.209 8.883V18H26.607V8.883H28.209ZM28.551 6.021C28.551 6.177 28.518 6.324 28.452 6.462C28.392 6.594 28.308 6.714 28.2 6.822C28.098 6.924 27.975 7.005 27.831 7.065C27.693 7.125 27.546 7.155 27.39 7.155C27.234 7.155 27.087 7.125 26.949 7.065C26.817 7.005 26.7 6.924 26.598 6.822C26.496 6.714 26.415 6.594 26.355 6.462C26.295 6.324 26.265 6.177 26.265 6.021C26.265 5.865 26.295 5.718 26.355 5.58C26.415 5.436 26.496 5.313 26.598 5.211C26.7 5.103 26.817 5.019 26.949 4.959C27.087 4.899 27.234 4.869 27.39 4.869C27.546 4.869 27.693 4.899 27.831 4.959C27.975 5.019 28.098 5.103 28.2 5.211C28.308 5.313 28.392 5.436 28.452 5.58C28.518 5.718 28.551 5.865 28.551 6.021ZM35.7823 13.896C35.0443 13.92 34.4143 13.98 33.8923 14.076C33.3763 14.166 32.9533 14.286 32.6233 14.436C32.2993 14.586 32.0623 14.763 31.9123 14.967C31.7683 15.171 31.6963 15.399 31.6963 15.651C31.6963 15.891 31.7353 16.098 31.8133 16.272C31.8913 16.446 31.9963 16.59 32.1283 16.704C32.2663 16.812 32.4253 16.893 32.6053 16.947C32.7913 16.995 32.9893 17.019 33.1993 17.019C33.4813 17.019 33.7393 16.992 33.9733 16.938C34.2073 16.878 34.4263 16.794 34.6303 16.686C34.8403 16.578 35.0383 16.449 35.2243 16.299C35.4163 16.149 35.6023 15.978 35.7823 15.786V13.896ZM30.6073 10.17C31.1113 9.684 31.6543 9.321 32.2363 9.081C32.8183 8.841 33.4633 8.721 34.1713 8.721C34.6813 8.721 35.1343 8.805 35.5303 8.973C35.9263 9.141 36.2593 9.375 36.5293 9.675C36.7993 9.975 37.0033 10.338 37.1413 10.764C37.2793 11.19 37.3483 11.658 37.3483 12.168V18H36.6373C36.4813 18 36.3613 17.976 36.2773 17.928C36.1933 17.874 36.1273 17.772 36.0793 17.622L35.8993 16.758C35.6593 16.98 35.4253 17.178 35.1973 17.352C34.9693 17.52 34.7293 17.664 34.4773 17.784C34.2253 17.898 33.9553 17.985 33.6673 18.045C33.3853 18.111 33.0703 18.144 32.7223 18.144C32.3683 18.144 32.0353 18.096 31.7233 18C31.4113 17.898 31.1383 17.748 30.9043 17.55C30.6763 17.352 30.4933 17.103 30.3553 16.803C30.2233 16.497 30.1573 16.137 30.1573 15.723C30.1573 15.363 30.2563 15.018 30.4543 14.688C30.6523 14.352 30.9733 14.055 31.4173 13.797C31.8613 13.539 32.4403 13.329 33.1543 13.167C33.8683 12.999 34.7443 12.903 35.7823 12.879V12.168C35.7823 11.46 35.6293 10.926 35.3233 10.566C35.0173 10.2 34.5703 10.017 33.9823 10.017C33.5863 10.017 33.2533 10.068 32.9833 10.17C32.7193 10.266 32.4883 10.377 32.2903 10.503C32.0983 10.623 31.9303 10.734 31.7863 10.836C31.6483 10.932 31.5103 10.98 31.3723 10.98C31.2643 10.98 31.1713 10.953 31.0933 10.899C31.0153 10.839 30.9493 10.767 30.8953 10.683L30.6073 10.17ZM40.6143 4.239C40.8663 4.665 41.0373 5.115 41.1273 5.589C41.2173 6.063 41.2263 6.531 41.1543 6.993C41.0823 7.455 40.9323 7.899 40.7043 8.325C40.4763 8.751 40.1733 9.129 39.7953 9.459L39.3093 9.144C39.2193 9.09 39.1773 9.021 39.1833 8.937C39.1953 8.847 39.2253 8.775 39.2733 8.721C39.4293 8.529 39.5613 8.298 39.6693 8.028C39.7833 7.752 39.8553 7.458 39.8853 7.146C39.9213 6.828 39.9063 6.501 39.8403 6.165C39.7803 5.829 39.6573 5.505 39.4713 5.193C39.3933 5.067 39.3693 4.956 39.3993 4.86C39.4353 4.758 39.5103 4.683 39.6243 4.635L40.6143 4.239ZM48.2626 10.386C48.1906 10.518 48.0796 10.584 47.9296 10.584C47.8396 10.584 47.7376 10.551 47.6236 10.485C47.5096 10.419 47.3686 10.347 47.2006 10.269C47.0386 10.185 46.8436 10.11 46.6156 10.044C46.3876 9.972 46.1176 9.936 45.8056 9.936C45.5356 9.936 45.2926 9.972 45.0766 10.044C44.8606 10.11 44.6746 10.203 44.5186 10.323C44.3686 10.443 44.2516 10.584 44.1676 10.746C44.0896 10.902 44.0506 11.073 44.0506 11.259C44.0506 11.493 44.1166 11.688 44.2486 11.844C44.3866 12 44.5666 12.135 44.7886 12.249C45.0106 12.363 45.2626 12.465 45.5446 12.555C45.8266 12.639 46.1146 12.732 46.4086 12.834C46.7086 12.93 46.9996 13.038 47.2816 13.158C47.5636 13.278 47.8156 13.428 48.0376 13.608C48.2596 13.788 48.4366 14.01 48.5686 14.274C48.7066 14.532 48.7756 14.844 48.7756 15.21C48.7756 15.63 48.7006 16.02 48.5506 16.38C48.4006 16.734 48.1786 17.043 47.8846 17.307C47.5906 17.565 47.2306 17.769 46.8046 17.919C46.3786 18.069 45.8866 18.144 45.3286 18.144C44.6926 18.144 44.1166 18.042 43.6006 17.838C43.0846 17.628 42.6466 17.361 42.2866 17.037L42.6646 16.425C42.7126 16.347 42.7696 16.287 42.8356 16.245C42.9016 16.203 42.9856 16.182 43.0876 16.182C43.1956 16.182 43.3096 16.224 43.4296 16.308C43.5496 16.392 43.6936 16.485 43.8616 16.587C44.0356 16.689 44.2456 16.782 44.4916 16.866C44.7376 16.95 45.0436 16.992 45.4096 16.992C45.7216 16.992 45.9946 16.953 46.2286 16.875C46.4626 16.791 46.6576 16.68 46.8136 16.542C46.9696 16.404 47.0836 16.245 47.1556 16.065C47.2336 15.885 47.2726 15.693 47.2726 15.489C47.2726 15.237 47.2036 15.03 47.0656 14.868C46.9336 14.7 46.7566 14.559 46.5346 14.445C46.3126 14.325 46.0576 14.223 45.7696 14.139C45.4876 14.049 45.1966 13.956 44.8966 13.86C44.6026 13.764 44.3116 13.656 44.0236 13.536C43.7416 13.41 43.4896 13.254 43.2676 13.068C43.0456 12.882 42.8656 12.654 42.7276 12.384C42.5956 12.108 42.5296 11.775 42.5296 11.385C42.5296 11.037 42.6016 10.704 42.7456 10.386C42.8896 10.062 43.0996 9.78 43.3756 9.54C43.6516 9.294 43.9906 9.099 44.3926 8.955C44.7946 8.811 45.2536 8.739 45.7696 8.739C46.3696 8.739 46.9066 8.835 47.3806 9.027C47.8606 9.213 48.2746 9.471 48.6226 9.801L48.2626 10.386ZM92.4885 16.614C92.9865 16.614 93.4155 16.557 93.7755 16.443C94.1355 16.329 94.4295 16.17 94.6575 15.966C94.8915 15.756 95.0625 15.51 95.1705 15.228C95.2785 14.94 95.3325 14.625 95.3325 14.283C95.3325 13.617 95.0955 13.092 94.6215 12.708C94.1475 12.318 93.4365 12.123 92.4885 12.123H89.6985V16.614H92.4885ZM89.6985 6.48V10.881H92.0025C92.4945 10.881 92.9205 10.827 93.2805 10.719C93.6465 10.611 93.9465 10.461 94.1805 10.269C94.4205 10.077 94.5975 9.846 94.7115 9.576C94.8255 9.3 94.8825 9 94.8825 8.676C94.8825 7.914 94.6545 7.359 94.1985 7.011C93.7425 6.657 93.0345 6.48 92.0745 6.48H89.6985ZM92.0745 5.103C92.8665 5.103 93.5475 5.181 94.1175 5.337C94.6935 5.493 95.1645 5.715 95.5305 6.003C95.9025 6.291 96.1755 6.645 96.3495 7.065C96.5235 7.479 96.6105 7.947 96.6105 8.469C96.6105 8.787 96.5595 9.093 96.4575 9.387C96.3615 9.675 96.2145 9.945 96.0165 10.197C95.8185 10.449 95.5665 10.677 95.2605 10.881C94.9605 11.079 94.6065 11.241 94.1985 11.367C95.1465 11.547 95.8575 11.886 96.3315 12.384C96.8115 12.876 97.0515 13.524 97.0515 14.328C97.0515 14.874 96.9495 15.372 96.7455 15.822C96.5475 16.272 96.2535 16.659 95.8635 16.983C95.4795 17.307 95.0055 17.559 94.4415 17.739C93.8775 17.913 93.2355 18 92.5155 18H87.9615V5.103H92.0745ZM105.182 12.447C105.182 12.075 105.128 11.736 105.02 11.43C104.918 11.118 104.765 10.851 104.561 10.629C104.363 10.401 104.12 10.227 103.832 10.107C103.544 9.981 103.217 9.918 102.851 9.918C102.083 9.918 101.474 10.143 101.024 10.593C100.58 11.037 100.304 11.655 100.196 12.447H105.182ZM106.478 16.722C106.28 16.962 106.043 17.172 105.767 17.352C105.491 17.526 105.194 17.67 104.876 17.784C104.564 17.898 104.24 17.982 103.904 18.036C103.568 18.096 103.235 18.126 102.905 18.126C102.275 18.126 101.693 18.021 101.159 17.811C100.631 17.595 100.172 17.283 99.7815 16.875C99.3975 16.461 99.0975 15.951 98.8815 15.345C98.6655 14.739 98.5575 14.043 98.5575 13.257C98.5575 12.621 98.6535 12.027 98.8455 11.475C99.0435 10.923 99.3255 10.446 99.6915 10.044C100.058 9.636 100.505 9.318 101.033 9.09C101.561 8.856 102.155 8.739 102.815 8.739C103.361 8.739 103.865 8.832 104.327 9.018C104.795 9.198 105.197 9.462 105.533 9.81C105.875 10.152 106.142 10.578 106.334 11.088C106.526 11.592 106.622 12.168 106.622 12.816C106.622 13.068 106.595 13.236 106.541 13.32C106.487 13.404 106.385 13.446 106.235 13.446H100.142C100.16 14.022 100.238 14.523 100.376 14.949C100.52 15.375 100.718 15.732 100.97 16.02C101.222 16.302 101.522 16.515 101.87 16.659C102.218 16.797 102.608 16.866 103.04 16.866C103.442 16.866 103.787 16.821 104.075 16.731C104.369 16.635 104.621 16.533 104.831 16.425C105.041 16.317 105.215 16.218 105.353 16.128C105.497 16.032 105.62 15.984 105.722 15.984C105.854 15.984 105.956 16.035 106.028 16.137L106.478 16.722ZM113.899 10.386C113.827 10.518 113.716 10.584 113.566 10.584C113.476 10.584 113.374 10.551 113.26 10.485C113.146 10.419 113.005 10.347 112.837 10.269C112.675 10.185 112.48 10.11 112.252 10.044C112.024 9.972 111.754 9.936 111.442 9.936C111.172 9.936 110.929 9.972 110.713 10.044C110.497 10.11 110.311 10.203 110.155 10.323C110.005 10.443 109.888 10.584 109.804 10.746C109.726 10.902 109.687 11.073 109.687 11.259C109.687 11.493 109.753 11.688 109.885 11.844C110.023 12 110.203 12.135 110.425 12.249C110.647 12.363 110.899 12.465 111.181 12.555C111.463 12.639 111.751 12.732 112.045 12.834C112.345 12.93 112.636 13.038 112.918 13.158C113.2 13.278 113.452 13.428 113.674 13.608C113.896 13.788 114.073 14.01 114.205 14.274C114.343 14.532 114.412 14.844 114.412 15.21C114.412 15.63 114.337 16.02 114.187 16.38C114.037 16.734 113.815 17.043 113.521 17.307C113.227 17.565 112.867 17.769 112.441 17.919C112.015 18.069 111.523 18.144 110.965 18.144C110.329 18.144 109.753 18.042 109.237 17.838C108.721 17.628 108.283 17.361 107.923 17.037L108.301 16.425C108.349 16.347 108.406 16.287 108.472 16.245C108.538 16.203 108.622 16.182 108.724 16.182C108.832 16.182 108.946 16.224 109.066 16.308C109.186 16.392 109.33 16.485 109.498 16.587C109.672 16.689 109.882 16.782 110.128 16.866C110.374 16.95 110.68 16.992 111.046 16.992C111.358 16.992 111.631 16.953 111.865 16.875C112.099 16.791 112.294 16.68 112.45 16.542C112.606 16.404 112.72 16.245 112.792 16.065C112.87 15.885 112.909 15.693 112.909 15.489C112.909 15.237 112.84 15.03 112.702 14.868C112.57 14.7 112.393 14.559 112.171 14.445C111.949 14.325 111.694 14.223 111.406 14.139C111.124 14.049 110.833 13.956 110.533 13.86C110.239 13.764 109.948 13.656 109.66 13.536C109.378 13.41 109.126 13.254 108.904 13.068C108.682 12.882 108.502 12.654 108.364 12.384C108.232 12.108 108.166 11.775 108.166 11.385C108.166 11.037 108.238 10.704 108.382 10.386C108.526 10.062 108.736 9.78 109.012 9.54C109.288 9.294 109.627 9.099 110.029 8.955C110.431 8.811 110.89 8.739 111.406 8.739C112.006 8.739 112.543 8.835 113.017 9.027C113.497 9.213 113.911 9.471 114.259 9.801L113.899 10.386ZM119.175 18.144C118.455 18.144 117.9 17.943 117.51 17.541C117.126 17.139 116.934 16.56 116.934 15.804V10.224H115.836C115.74 10.224 115.659 10.197 115.593 10.143C115.527 10.083 115.494 9.993 115.494 9.873V9.234L116.988 9.045L117.357 6.228C117.375 6.138 117.414 6.066 117.474 6.012C117.54 5.952 117.624 5.922 117.726 5.922H118.536V9.063H121.173V10.224H118.536V15.696C118.536 16.08 118.629 16.365 118.815 16.551C119.001 16.737 119.241 16.83 119.535 16.83C119.703 16.83 119.847 16.809 119.967 16.767C120.093 16.719 120.201 16.668 120.291 16.614C120.381 16.56 120.456 16.512 120.516 16.47C120.582 16.422 120.639 16.398 120.687 16.398C120.771 16.398 120.846 16.449 120.912 16.551L121.38 17.316C121.104 17.574 120.771 17.778 120.381 17.928C119.991 18.072 119.589 18.144 119.175 18.144ZM135.767 16.578L135.758 18H127.811V5.103H135.758V6.525H129.557V10.809H134.579V12.177H129.557V16.578H135.767ZM143.375 11.052C143.075 10.65 142.751 10.371 142.403 10.215C142.055 10.053 141.665 9.972 141.233 9.972C140.387 9.972 139.736 10.275 139.28 10.881C138.824 11.487 138.596 12.351 138.596 13.473C138.596 14.067 138.647 14.577 138.749 15.003C138.851 15.423 139.001 15.771 139.199 16.047C139.397 16.317 139.64 16.515 139.928 16.641C140.216 16.767 140.543 16.83 140.909 16.83C141.437 16.83 141.896 16.71 142.286 16.47C142.682 16.23 143.045 15.891 143.375 15.453V11.052ZM144.977 4.743V18H144.023C143.795 18 143.651 17.889 143.591 17.667L143.447 16.56C143.057 17.028 142.613 17.406 142.115 17.694C141.617 17.982 141.041 18.126 140.387 18.126C139.865 18.126 139.391 18.027 138.965 17.829C138.539 17.625 138.176 17.328 137.876 16.938C137.576 16.548 137.345 16.062 137.183 15.48C137.021 14.898 136.94 14.229 136.94 13.473C136.94 12.801 137.03 12.177 137.21 11.601C137.39 11.019 137.648 10.515 137.984 10.089C138.32 9.663 138.731 9.33 139.217 9.09C139.709 8.844 140.261 8.721 140.873 8.721C141.431 8.721 141.908 8.817 142.304 9.009C142.706 9.195 143.063 9.456 143.375 9.792V4.743H144.977ZM156.448 6.57H152.272V18H150.535V6.57H146.35V5.103H156.448V6.57ZM161.889 12.447C161.889 12.075 161.835 11.736 161.727 11.43C161.625 11.118 161.472 10.851 161.268 10.629C161.07 10.401 160.827 10.227 160.539 10.107C160.251 9.981 159.924 9.918 159.558 9.918C158.79 9.918 158.181 10.143 157.731 10.593C157.287 11.037 157.011 11.655 156.903 12.447H161.889ZM163.185 16.722C162.987 16.962 162.75 17.172 162.474 17.352C162.198 17.526 161.901 17.67 161.583 17.784C161.271 17.898 160.947 17.982 160.611 18.036C160.275 18.096 159.942 18.126 159.612 18.126C158.982 18.126 158.4 18.021 157.866 17.811C157.338 17.595 156.879 17.283 156.489 16.875C156.105 16.461 155.805 15.951 155.589 15.345C155.373 14.739 155.265 14.043 155.265 13.257C155.265 12.621 155.361 12.027 155.553 11.475C155.751 10.923 156.033 10.446 156.399 10.044C156.765 9.636 157.212 9.318 157.74 9.09C158.268 8.856 158.862 8.739 159.522 8.739C160.068 8.739 160.572 8.832 161.034 9.018C161.502 9.198 161.904 9.462 162.24 9.81C162.582 10.152 162.849 10.578 163.041 11.088C163.233 11.592 163.329 12.168 163.329 12.816C163.329 13.068 163.302 13.236 163.248 13.32C163.194 13.404 163.092 13.446 162.942 13.446H156.849C156.867 14.022 156.945 14.523 157.083 14.949C157.227 15.375 157.425 15.732 157.677 16.02C157.929 16.302 158.229 16.515 158.577 16.659C158.925 16.797 159.315 16.866 159.747 16.866C160.149 16.866 160.494 16.821 160.782 16.731C161.076 16.635 161.328 16.533 161.538 16.425C161.748 16.317 161.922 16.218 162.06 16.128C162.204 16.032 162.327 15.984 162.429 15.984C162.561 15.984 162.663 16.035 162.735 16.137L163.185 16.722ZM171.641 10.503C171.593 10.569 171.545 10.62 171.497 10.656C171.449 10.692 171.383 10.71 171.299 10.71C171.209 10.71 171.11 10.674 171.002 10.602C170.894 10.524 170.759 10.44 170.597 10.35C170.441 10.26 170.246 10.179 170.012 10.107C169.784 10.029 169.502 9.99 169.166 9.99C168.716 9.99 168.32 10.071 167.978 10.233C167.636 10.389 167.348 10.617 167.114 10.917C166.886 11.217 166.712 11.58 166.592 12.006C166.478 12.432 166.421 12.909 166.421 13.437C166.421 13.989 166.484 14.481 166.61 14.913C166.736 15.339 166.913 15.699 167.141 15.993C167.375 16.281 167.654 16.503 167.978 16.659C168.308 16.809 168.677 16.884 169.085 16.884C169.475 16.884 169.796 16.839 170.048 16.749C170.3 16.653 170.507 16.548 170.669 16.434C170.837 16.32 170.975 16.218 171.083 16.128C171.197 16.032 171.308 15.984 171.416 15.984C171.548 15.984 171.65 16.035 171.722 16.137L172.172 16.722C171.974 16.968 171.749 17.178 171.497 17.352C171.245 17.526 170.972 17.673 170.678 17.793C170.39 17.907 170.087 17.991 169.769 18.045C169.451 18.099 169.127 18.126 168.797 18.126C168.227 18.126 167.696 18.021 167.204 17.811C166.718 17.601 166.295 17.298 165.935 16.902C165.575 16.5 165.293 16.008 165.089 15.426C164.885 14.844 164.783 14.181 164.783 13.437C164.783 12.759 164.876 12.132 165.062 11.556C165.254 10.98 165.53 10.485 165.89 10.071C166.256 9.651 166.703 9.324 167.231 9.09C167.765 8.856 168.377 8.739 169.067 8.739C169.709 8.739 170.273 8.844 170.759 9.054C171.251 9.258 171.686 9.549 172.064 9.927L171.641 10.503ZM175.503 10.098C175.893 9.684 176.325 9.354 176.799 9.108C177.273 8.862 177.819 8.739 178.437 8.739C178.935 8.739 179.373 8.823 179.751 8.991C180.135 9.153 180.453 9.387 180.705 9.693C180.963 9.993 181.158 10.356 181.29 10.782C181.422 11.208 181.488 11.679 181.488 12.195V18H179.877V12.195C179.877 11.505 179.718 10.971 179.4 10.593C179.088 10.209 178.611 10.017 177.969 10.017C177.495 10.017 177.051 10.131 176.637 10.359C176.229 10.587 175.851 10.896 175.503 11.286V18H173.892V4.743H175.503V10.098ZM195.51 7.119C195.456 7.209 195.396 7.278 195.33 7.326C195.27 7.368 195.195 7.389 195.105 7.389C195.003 7.389 194.883 7.338 194.745 7.236C194.607 7.134 194.433 7.023 194.223 6.903C194.019 6.777 193.77 6.663 193.476 6.561C193.188 6.459 192.837 6.408 192.423 6.408C192.033 6.408 191.688 6.462 191.388 6.57C191.094 6.672 190.845 6.813 190.641 6.993C190.443 7.173 190.293 7.386 190.191 7.632C190.089 7.872 190.038 8.133 190.038 8.415C190.038 8.775 190.125 9.075 190.299 9.315C190.479 9.549 190.713 9.75 191.001 9.918C191.295 10.086 191.625 10.233 191.991 10.359C192.363 10.479 192.741 10.605 193.125 10.737C193.515 10.869 193.893 11.019 194.259 11.187C194.631 11.349 194.961 11.556 195.249 11.808C195.543 12.06 195.777 12.369 195.951 12.735C196.131 13.101 196.221 13.551 196.221 14.085C196.221 14.649 196.125 15.18 195.933 15.678C195.741 16.17 195.459 16.599 195.087 16.965C194.721 17.331 194.268 17.619 193.728 17.829C193.194 18.039 192.585 18.144 191.901 18.144C191.061 18.144 190.299 17.994 189.615 17.694C188.931 17.388 188.346 16.977 187.86 16.461L188.364 15.633C188.412 15.567 188.469 15.513 188.535 15.471C188.607 15.423 188.685 15.399 188.769 15.399C188.847 15.399 188.934 15.432 189.03 15.498C189.132 15.558 189.246 15.636 189.372 15.732C189.498 15.828 189.642 15.933 189.804 16.047C189.966 16.161 190.149 16.266 190.353 16.362C190.563 16.458 190.8 16.539 191.064 16.605C191.328 16.665 191.625 16.695 191.955 16.695C192.369 16.695 192.738 16.638 193.062 16.524C193.386 16.41 193.659 16.251 193.881 16.047C194.109 15.837 194.283 15.588 194.403 15.3C194.523 15.012 194.583 14.691 194.583 14.337C194.583 13.947 194.493 13.629 194.313 13.383C194.139 13.131 193.908 12.921 193.62 12.753C193.332 12.585 193.002 12.444 192.63 12.33C192.258 12.21 191.88 12.09 191.496 11.97C191.112 11.844 190.734 11.7 190.362 11.538C189.99 11.376 189.66 11.166 189.372 10.908C189.084 10.65 188.85 10.329 188.67 9.945C188.496 9.555 188.409 9.075 188.409 8.505C188.409 8.049 188.496 7.608 188.67 7.182C188.85 6.756 189.108 6.378 189.444 6.048C189.786 5.718 190.203 5.454 190.695 5.256C191.193 5.058 191.763 4.959 192.405 4.959C193.125 4.959 193.779 5.073 194.367 5.301C194.961 5.529 195.483 5.859 195.933 6.291L195.51 7.119ZM202.098 8.739C202.764 8.739 203.364 8.85 203.898 9.072C204.432 9.294 204.888 9.609 205.266 10.017C205.644 10.425 205.932 10.92 206.13 11.502C206.334 12.078 206.436 12.723 206.436 13.437C206.436 14.157 206.334 14.805 206.13 15.381C205.932 15.957 205.644 16.449 205.266 16.857C204.888 17.265 204.432 17.58 203.898 17.802C203.364 18.018 202.764 18.126 202.098 18.126C201.426 18.126 200.82 18.018 200.28 17.802C199.746 17.58 199.29 17.265 198.912 16.857C198.534 16.449 198.243 15.957 198.039 15.381C197.841 14.805 197.742 14.157 197.742 13.437C197.742 12.723 197.841 12.078 198.039 11.502C198.243 10.92 198.534 10.425 198.912 10.017C199.29 9.609 199.746 9.294 200.28 9.072C200.82 8.85 201.426 8.739 202.098 8.739ZM202.098 16.875C202.998 16.875 203.67 16.575 204.114 15.975C204.558 15.369 204.78 14.526 204.78 13.446C204.78 12.36 204.558 11.514 204.114 10.908C203.67 10.302 202.998 9.999 202.098 9.999C201.642 9.999 201.243 10.077 200.901 10.233C200.565 10.389 200.283 10.614 200.055 10.908C199.833 11.202 199.665 11.565 199.551 11.997C199.443 12.423 199.389 12.906 199.389 13.446C199.389 14.526 199.611 15.369 200.055 15.975C200.505 16.575 201.186 16.875 202.098 16.875ZM216.303 10.224V15.696C216.303 16.08 216.396 16.365 216.582 16.551C216.768 16.737 217.005 16.83 217.293 16.83C217.467 16.83 217.614 16.809 217.734 16.767C217.86 16.719 217.968 16.668 218.058 16.614C218.148 16.56 218.223 16.512 218.283 16.47C218.343 16.422 218.397 16.398 218.445 16.398C218.499 16.398 218.541 16.41 218.571 16.434C218.607 16.458 218.643 16.497 218.679 16.551L219.147 17.316C218.871 17.574 218.538 17.778 218.148 17.928C217.758 18.072 217.353 18.144 216.933 18.144C216.219 18.144 215.667 17.943 215.277 17.541C214.893 17.139 214.701 16.56 214.701 15.804V10.224H210.48V18H208.869V10.251L207.861 10.134C207.735 10.104 207.63 10.059 207.546 9.999C207.468 9.933 207.429 9.84 207.429 9.72V9.063H208.869V8.181C208.869 7.659 208.941 7.197 209.085 6.795C209.235 6.387 209.445 6.045 209.715 5.769C209.991 5.487 210.321 5.274 210.705 5.13C211.089 4.986 211.521 4.914 212.001 4.914C212.409 4.914 212.784 4.974 213.126 5.094L213.09 5.895C213.078 6.039 212.997 6.117 212.847 6.129C212.703 6.141 212.508 6.147 212.262 6.147C211.986 6.147 211.734 6.183 211.506 6.255C211.284 6.327 211.092 6.444 210.93 6.606C210.768 6.768 210.642 6.981 210.552 7.245C210.468 7.509 210.426 7.836 210.426 8.226V9.063H214.755L215.115 6.228C215.139 6.138 215.181 6.066 215.241 6.012C215.307 5.952 215.391 5.922 215.493 5.922H216.303V9.063H218.931V10.224H216.303ZM233.17 8.883L230.218 18H228.949C228.793 18 228.685 17.898 228.625 17.694L226.609 11.511C226.561 11.373 226.522 11.235 226.492 11.097C226.462 10.953 226.432 10.812 226.402 10.674C226.372 10.812 226.342 10.953 226.312 11.097C226.282 11.235 226.243 11.376 226.195 11.52L224.143 17.694C224.089 17.898 223.969 18 223.783 18H222.577L219.625 8.883H220.885C221.011 8.883 221.116 8.916 221.2 8.982C221.29 9.048 221.35 9.126 221.38 9.216L223.126 15.084C223.228 15.516 223.309 15.924 223.369 16.308C223.423 16.11 223.477 15.909 223.531 15.705C223.591 15.501 223.654 15.294 223.72 15.084L225.646 9.18C225.676 9.09 225.727 9.015 225.799 8.955C225.877 8.895 225.97 8.865 226.078 8.865H226.78C226.9 8.865 226.999 8.895 227.077 8.955C227.155 9.015 227.209 9.09 227.239 9.18L229.12 15.084C229.186 15.294 229.246 15.501 229.3 15.705C229.354 15.909 229.405 16.11 229.453 16.308C229.483 16.11 229.519 15.912 229.561 15.714C229.609 15.51 229.66 15.3 229.714 15.084L231.496 9.216C231.526 9.12 231.583 9.042 231.667 8.982C231.751 8.916 231.85 8.883 231.964 8.883H233.17ZM239.565 13.896C238.827 13.92 238.197 13.98 237.675 14.076C237.159 14.166 236.736 14.286 236.406 14.436C236.082 14.586 235.845 14.763 235.695 14.967C235.551 15.171 235.479 15.399 235.479 15.651C235.479 15.891 235.518 16.098 235.596 16.272C235.674 16.446 235.779 16.59 235.911 16.704C236.049 16.812 236.208 16.893 236.388 16.947C236.574 16.995 236.772 17.019 236.982 17.019C237.264 17.019 237.522 16.992 237.756 16.938C237.99 16.878 238.209 16.794 238.413 16.686C238.623 16.578 238.821 16.449 239.007 16.299C239.199 16.149 239.385 15.978 239.565 15.786V13.896ZM234.39 10.17C234.894 9.684 235.437 9.321 236.019 9.081C236.601 8.841 237.246 8.721 237.954 8.721C238.464 8.721 238.917 8.805 239.313 8.973C239.709 9.141 240.042 9.375 240.312 9.675C240.582 9.975 240.786 10.338 240.924 10.764C241.062 11.19 241.131 11.658 241.131 12.168V18H240.42C240.264 18 240.144 17.976 240.06 17.928C239.976 17.874 239.91 17.772 239.862 17.622L239.682 16.758C239.442 16.98 239.208 17.178 238.98 17.352C238.752 17.52 238.512 17.664 238.26 17.784C238.008 17.898 237.738 17.985 237.45 18.045C237.168 18.111 236.853 18.144 236.505 18.144C236.151 18.144 235.818 18.096 235.506 18C235.194 17.898 234.921 17.748 234.687 17.55C234.459 17.352 234.276 17.103 234.138 16.803C234.006 16.497 233.94 16.137 233.94 15.723C233.94 15.363 234.039 15.018 234.237 14.688C234.435 14.352 234.756 14.055 235.2 13.797C235.644 13.539 236.223 13.329 236.937 13.167C237.651 12.999 238.527 12.903 239.565 12.879V12.168C239.565 11.46 239.412 10.926 239.106 10.566C238.8 10.2 238.353 10.017 237.765 10.017C237.369 10.017 237.036 10.068 236.766 10.17C236.502 10.266 236.271 10.377 236.073 10.503C235.881 10.623 235.713 10.734 235.569 10.836C235.431 10.932 235.293 10.98 235.155 10.98C235.047 10.98 234.954 10.953 234.876 10.899C234.798 10.839 234.732 10.767 234.678 10.683L234.39 10.17ZM245.093 10.71C245.381 10.086 245.735 9.6 246.155 9.252C246.575 8.898 247.088 8.721 247.694 8.721C247.886 8.721 248.069 8.742 248.243 8.784C248.423 8.826 248.582 8.892 248.72 8.982L248.603 10.179C248.567 10.329 248.477 10.404 248.333 10.404C248.249 10.404 248.126 10.386 247.964 10.35C247.802 10.314 247.619 10.296 247.415 10.296C247.127 10.296 246.869 10.338 246.641 10.422C246.419 10.506 246.218 10.632 246.038 10.8C245.864 10.962 245.705 11.166 245.561 11.412C245.423 11.652 245.297 11.928 245.183 12.24V18H243.572V8.883H244.49C244.664 8.883 244.784 8.916 244.85 8.982C244.916 9.048 244.961 9.162 244.985 9.324L245.093 10.71ZM255.861 12.447C255.861 12.075 255.807 11.736 255.699 11.43C255.597 11.118 255.444 10.851 255.24 10.629C255.042 10.401 254.799 10.227 254.511 10.107C254.223 9.981 253.896 9.918 253.53 9.918C252.762 9.918 252.153 10.143 251.703 10.593C251.259 11.037 250.983 11.655 250.875 12.447H255.861ZM257.157 16.722C256.959 16.962 256.722 17.172 256.446 17.352C256.17 17.526 255.873 17.67 255.555 17.784C255.243 17.898 254.919 17.982 254.583 18.036C254.247 18.096 253.914 18.126 253.584 18.126C252.954 18.126 252.372 18.021 251.838 17.811C251.31 17.595 250.851 17.283 250.461 16.875C250.077 16.461 249.777 15.951 249.561 15.345C249.345 14.739 249.237 14.043 249.237 13.257C249.237 12.621 249.333 12.027 249.525 11.475C249.723 10.923 250.005 10.446 250.371 10.044C250.737 9.636 251.184 9.318 251.712 9.09C252.24 8.856 252.834 8.739 253.494 8.739C254.04 8.739 254.544 8.832 255.006 9.018C255.474 9.198 255.876 9.462 256.212 9.81C256.554 10.152 256.821 10.578 257.013 11.088C257.205 11.592 257.301 12.168 257.301 12.816C257.301 13.068 257.274 13.236 257.22 13.32C257.166 13.404 257.064 13.446 256.914 13.446H250.821C250.839 14.022 250.917 14.523 251.055 14.949C251.199 15.375 251.397 15.732 251.649 16.02C251.901 16.302 252.201 16.515 252.549 16.659C252.897 16.797 253.287 16.866 253.719 16.866C254.121 16.866 254.466 16.821 254.754 16.731C255.048 16.635 255.3 16.533 255.51 16.425C255.72 16.317 255.894 16.218 256.032 16.128C256.176 16.032 256.299 15.984 256.401 15.984C256.533 15.984 256.635 16.035 256.707 16.137L257.157 16.722Z" fill="white"/>
<g clip-path="url(#clip0_943_1477)">
<path d="M58.1775 4H77.3855C78.0347 4.00351 78.5629 4.53521 78.5629 5.18449V17.8155C78.5629 18.4665 78.0295 19 77.3785 19H58.1775C57.5299 18.9965 57 18.4648 57 17.8155V5.18449C57 4.53521 57.5282 4.00351 58.1775 4Z" fill="#FF9933"/>
<path d="M57 8.99942H78.5629V14.0006H57V8.99942Z" fill="white"/>
<path d="M57 14.0006H78.5629V17.8155C78.5629 18.4665 78.0295 19 77.3785 19H58.1775C57.5299 18.9965 57 18.4648 57 17.8155V14.0006Z" fill="#128807"/>
<path d="M69.7822 11.5C69.7822 10.3945 68.8872 9.49954 67.7817 9.49954C66.6762 9.49954 65.7812 10.3945 65.7812 11.5C65.7812 12.6038 66.6762 13.5005 67.7817 13.5005C68.8872 13.5005 69.7822 12.6055 69.7822 11.5Z" fill="#000088"/>
<path d="M69.5303 11.5C69.5303 10.5331 68.7477 9.75046 67.7808 9.75046C66.8139 9.75046 66.0312 10.5331 66.0312 11.5C66.0312 12.4669 66.8139 13.2495 67.7808 13.2495C68.7477 13.2495 69.5303 12.4669 69.5303 11.5Z" fill="white"/>
<path d="M68.13 11.5C68.13 11.307 67.9739 11.149 67.7808 11.149C67.5878 11.149 67.4316 11.3052 67.4316 11.5C67.4316 11.693 67.5878 11.8492 67.7808 11.8492C67.9739 11.8492 68.13 11.693 68.13 11.5Z" fill="#000088"/>
<path d="M69.6024 11.7404C69.6094 11.693 69.5743 11.6492 69.5269 11.6421C69.4795 11.6351 69.4356 11.6702 69.4286 11.7176C69.4216 11.765 69.4567 11.8088 69.5041 11.8159C69.5532 11.8211 69.5971 11.7878 69.6024 11.7404Z" fill="#000088"/>
<path d="M67.7823 13.2495L67.842 12.2002L67.7823 11.7L67.7227 12.2002L67.7823 13.2495Z" fill="#000088"/>
<path d="M69.4789 12.2037C69.4982 12.1598 69.4754 12.1072 69.4315 12.0896C69.3877 12.0703 69.335 12.0931 69.3175 12.137C69.2982 12.1809 69.321 12.2335 69.3648 12.2511C69.4105 12.2686 69.4614 12.2475 69.4789 12.2037Z" fill="white"/>
<path d="M67.3281 13.1899L67.658 12.1914L67.73 11.693L67.5422 12.1616L67.3281 13.1899Z" fill="white"/>
<path d="M69.2391 12.6196C69.269 12.5809 69.262 12.5265 69.2233 12.4967C69.1847 12.4669 69.1303 12.4739 69.1005 12.5125C69.0707 12.5511 69.0777 12.6055 69.1163 12.6353C69.1549 12.6652 69.2093 12.6564 69.2391 12.6196Z" fill="white"/>
<path d="M66.9062 13.0162L67.4836 12.137L67.6819 11.6737L67.38 12.0756L66.9062 13.0162Z" fill="white"/>
<path d="M68.8991 12.9582C68.9377 12.9284 68.9448 12.874 68.9149 12.8354C68.8851 12.7968 68.8307 12.7898 68.7921 12.8196C68.7535 12.8494 68.7465 12.9038 68.7763 12.9424C68.8061 12.9793 68.8623 12.9881 68.8991 12.9582Z" fill="white"/>
<path d="M66.5449 12.7371L67.3293 12.037L67.6399 11.6422L67.2451 11.9527L66.5449 12.7371Z" fill="white"/>
<path d="M68.4843 13.1986C68.5281 13.1793 68.5509 13.1284 68.5316 13.0846C68.5123 13.0407 68.4614 13.0179 68.4176 13.0372C68.3737 13.0547 68.3509 13.1074 68.3702 13.1512C68.3877 13.1951 68.4386 13.2162 68.4843 13.1986Z" fill="white"/>
<path d="M66.2656 12.3757L67.2062 11.9019L67.608 11.6L67.1448 11.7983L66.2656 12.3757Z" fill="white"/>
<path d="M68.0226 13.3215C68.07 13.3145 68.1034 13.2706 68.0981 13.2232C68.0911 13.1758 68.0472 13.1425 67.9998 13.1478C67.9525 13.1548 67.9191 13.1987 67.9244 13.246C67.9296 13.2952 67.9735 13.3285 68.0226 13.3215Z" fill="white"/>
<path d="M66.0918 11.9527L67.1219 11.7387L67.5886 11.5526L67.0903 11.6228L66.0918 11.9527Z" fill="white"/>
<path d="M67.5408 13.3215C67.5882 13.3285 67.6321 13.2934 67.6391 13.246C67.6461 13.1986 67.611 13.1548 67.5637 13.1477C67.5163 13.1407 67.4724 13.1758 67.4654 13.2232C67.4601 13.2723 67.4935 13.3162 67.5408 13.3215Z" fill="white"/>
<path d="M66.0312 11.5L67.0806 11.5597L67.5807 11.5L67.0806 11.4403L66.0312 11.5Z" fill="white"/>
<path d="M67.077 13.1986C67.1209 13.2179 67.1735 13.1951 67.1911 13.1512C67.2086 13.1074 67.1876 13.0547 67.1437 13.0372C67.0998 13.0179 67.0472 13.0407 67.0296 13.0846C67.0121 13.1284 67.0331 13.1793 67.077 13.1986Z" fill="white"/>
<path d="M66.0918 11.0473L67.0903 11.3772L67.5886 11.4491L67.1219 11.2614L66.0918 11.0473Z" fill="white"/>
<path d="M66.6619 12.9582C66.7005 12.9881 66.7549 12.981 66.7847 12.9424C66.8146 12.9038 66.8075 12.8494 66.7689 12.8196C66.7303 12.7898 66.6759 12.7968 66.6461 12.8354C66.618 12.874 66.625 12.9284 66.6619 12.9582Z" fill="white"/>
<path d="M66.2656 10.6244L67.1448 11.2017L67.608 11.4L67.2062 11.0982L66.2656 10.6244Z" fill="white"/>
<path d="M66.3226 12.6196C66.3525 12.6582 66.4069 12.6652 66.4455 12.6353C66.4841 12.6055 66.4911 12.5511 66.4613 12.5125C66.4314 12.4739 66.377 12.4669 66.3384 12.4967C66.3016 12.5248 66.2928 12.5809 66.3226 12.6196Z" fill="white"/>
<path d="M66.5449 10.2629L67.2451 11.0473L67.6399 11.3596L67.3293 10.963L66.5449 10.2629Z" fill="white"/>
<path d="M66.0824 12.2037C66.1017 12.2475 66.1525 12.2704 66.1964 12.2511C66.2403 12.2318 66.2631 12.1809 66.2438 12.137C66.2245 12.0931 66.1736 12.0703 66.1297 12.0896C66.0859 12.1072 66.0648 12.1581 66.0824 12.2037Z" fill="white"/>
<path d="M66.9062 9.98386L67.38 10.9244L67.6819 11.3263L67.4836 10.8648L66.9062 9.98386Z" fill="white"/>
<path d="M65.9599 11.7404C65.9669 11.7878 66.0108 11.8211 66.0582 11.8159C66.1056 11.8089 66.1389 11.765 66.1336 11.7176C66.1266 11.6702 66.0828 11.6369 66.0354 11.6421C65.9862 11.6474 65.9529 11.6913 65.9599 11.7404Z" fill="white"/>
<path d="M67.3281 9.81012L67.5422 10.8402L67.73 11.307L67.658 10.8086L67.3281 9.81012Z" fill="white"/>
<path d="M65.9599 11.2596C65.9529 11.307 65.988 11.3508 66.0353 11.3579C66.0827 11.3649 66.1266 11.3298 66.1336 11.2824C66.1406 11.235 66.1055 11.1912 66.0581 11.1841C66.009 11.1789 65.9651 11.2122 65.9599 11.2596Z" fill="white"/>
<path d="M67.7823 9.75046L67.7227 10.7998L67.7823 11.2999L67.842 10.7998L67.7823 9.75046Z" fill="white"/>
<path d="M66.085 10.7963C66.0657 10.8402 66.0885 10.8928 66.1324 10.9104C66.1763 10.9279 66.2289 10.9069 66.2465 10.863C66.2658 10.8191 66.243 10.7665 66.1991 10.7489C66.1535 10.7314 66.1026 10.7525 66.085 10.7963Z" fill="white"/>
<path d="M68.2339 9.81012L67.904 10.8086L67.832 11.307L68.0198 10.8402L68.2339 9.81012Z" fill="white"/>
<path d="M66.3232 10.3822C66.2933 10.4208 66.3004 10.4752 66.339 10.505C66.3776 10.5349 66.432 10.5278 66.4618 10.4892C66.4916 10.4506 66.4846 10.3962 66.446 10.3664C66.4074 10.3366 66.353 10.3436 66.3232 10.3822Z" fill="white"/>
<path d="M68.6565 9.98386L68.0792 10.8648L67.8809 11.3263L68.1827 10.9244L68.6565 9.98386Z" fill="white"/>
<path d="M66.6632 10.0418C66.6246 10.0716 66.6176 10.126 66.6474 10.1646C66.6772 10.2032 66.7316 10.2102 66.7702 10.1804C66.8088 10.1505 66.8158 10.0961 66.786 10.0575C66.7562 10.0189 66.7 10.0137 66.6632 10.0418Z" fill="white"/>
<path d="M69.0188 10.2629L68.2344 10.963L67.9238 11.3596L68.3187 11.0473L69.0188 10.2629Z" fill="white"/>
<path d="M67.077 9.80312C67.0331 9.82242 67.0121 9.87331 67.0296 9.91718C67.0489 9.96105 67.0998 9.98386 67.1437 9.96456C67.1876 9.94525 67.2104 9.89437 67.1911 9.8505C67.1735 9.80487 67.1226 9.78381 67.077 9.80312Z" fill="white"/>
<path d="M69.2975 10.6244L68.3569 11.0982L67.9551 11.4L68.4183 11.2017L69.2975 10.6244Z" fill="white"/>
<path d="M67.5408 9.67851C67.4935 9.68553 67.4601 9.7294 67.4654 9.77678C67.4724 9.82416 67.5163 9.8575 67.5637 9.85223C67.611 9.84521 67.6461 9.80134 67.6391 9.75396C67.6339 9.70658 67.59 9.67149 67.5408 9.67851Z" fill="white"/>
<path d="M69.4715 11.0473L68.4414 11.2614L67.9746 11.4491L68.473 11.3772L69.4715 11.0473Z" fill="white"/>
<path d="M68.021 9.67851C67.9737 9.67149 67.9298 9.70658 67.9228 9.75396C67.9158 9.80134 67.9508 9.84521 67.9982 9.85223C68.0456 9.85925 68.0895 9.82416 68.0965 9.77678C68.1018 9.7294 68.0684 9.68377 68.021 9.67851Z" fill="white"/>
<path d="M69.5319 11.5L68.4825 11.4403L67.9824 11.5L68.4825 11.5597L69.5319 11.5Z" fill="white"/>
<path d="M68.4843 9.80312C68.4404 9.78381 68.3877 9.80663 68.3702 9.8505C68.3509 9.89437 68.3737 9.94701 68.4176 9.96456C68.4614 9.98211 68.5141 9.96105 68.5316 9.91718C68.5492 9.87155 68.5281 9.82066 68.4843 9.80312Z" fill="white"/>
<path d="M69.4715 11.9527L68.473 11.6228L67.9746 11.5526L68.4414 11.7387L69.4715 11.9527Z" fill="white"/>
<path d="M68.8991 10.0418C68.8605 10.0119 68.8061 10.0189 68.7763 10.0576C68.7465 10.0962 68.7535 10.1506 68.7921 10.1804C68.8307 10.2102 68.8851 10.2032 68.9149 10.1646C68.9448 10.126 68.9377 10.0716 68.8991 10.0418Z" fill="white"/>
<path d="M69.2975 12.3757L68.4183 11.7983L67.9551 11.6L68.3569 11.9019L69.2975 12.3757Z" fill="white"/>
<path d="M69.2391 10.3822C69.2093 10.3436 69.1549 10.3366 69.1163 10.3664C69.0777 10.3962 69.0707 10.4506 69.1005 10.4892C69.1303 10.5278 69.1847 10.5349 69.2233 10.505C69.2602 10.4752 69.269 10.4191 69.2391 10.3822Z" fill="white"/>
<path d="M69.0188 12.7371L68.3187 11.9527L67.9238 11.6422L68.2344 12.037L69.0188 12.7371Z" fill="white"/>
<path d="M69.4809 10.7963C69.4616 10.7525 69.4107 10.7296 69.3668 10.7489C69.3229 10.7683 69.3001 10.8191 69.3194 10.863C69.3387 10.9069 69.3896 10.9279 69.4335 10.9104C69.4773 10.8928 69.4984 10.842 69.4809 10.7963Z" fill="white"/>
<path d="M68.6565 13.0162L68.1827 12.0756L67.8809 11.6737L68.0792 12.137L68.6565 13.0162Z" fill="white"/>
<path d="M69.602 11.2596C69.595 11.2122 69.5511 11.1789 69.5037 11.1841C69.4564 11.1912 69.423 11.235 69.4283 11.2824C69.4353 11.3298 69.4792 11.3631 69.5265 11.3579C69.5757 11.3526 69.609 11.3087 69.602 11.2596Z" fill="white"/>
<path d="M68.2339 13.1899L68.0198 12.1616L67.832 11.693L67.904 12.1914L68.2339 13.1899Z" fill="white"/>
</g>
<path d="M59.6379 36.922C60.0253 36.922 60.3589 36.8777 60.6389 36.789C60.9189 36.7003 61.1476 36.5767 61.3249 36.418C61.5069 36.2547 61.6399 36.0633 61.7239 35.844C61.8079 35.62 61.8499 35.375 61.8499 35.109C61.8499 34.591 61.6656 34.1827 61.2969 33.884C60.9283 33.5807 60.3753 33.429 59.6379 33.429H57.4679V36.922H59.6379ZM57.4679 29.04V32.463H59.2599C59.6426 32.463 59.9739 32.421 60.2539 32.337C60.5386 32.253 60.7719 32.1363 60.9539 31.987C61.1406 31.8377 61.2783 31.658 61.3669 31.448C61.4556 31.2333 61.4999 31 61.4999 30.748C61.4999 30.1553 61.3226 29.7237 60.9679 29.453C60.6133 29.1777 60.0626 29.04 59.3159 29.04H57.4679ZM59.3159 27.969C59.9319 27.969 60.4616 28.0297 60.9049 28.151C61.3529 28.2723 61.7193 28.445 62.0039 28.669C62.2933 28.893 62.5056 29.1683 62.6409 29.495C62.7763 29.817 62.8439 30.181 62.8439 30.587C62.8439 30.8343 62.8043 31.0723 62.7249 31.301C62.6503 31.525 62.5359 31.735 62.3819 31.931C62.2279 32.127 62.0319 32.3043 61.7939 32.463C61.5606 32.617 61.2853 32.743 60.9679 32.841C61.7053 32.981 62.2583 33.2447 62.6269 33.632C63.0003 34.0147 63.1869 34.5187 63.1869 35.144C63.1869 35.5687 63.1076 35.956 62.9489 36.306C62.7949 36.656 62.5663 36.957 62.2629 37.209C61.9643 37.461 61.5956 37.657 61.1569 37.797C60.7183 37.9323 60.2189 38 59.6589 38H56.1169V27.969H59.3159ZM70.814 30.909L66.859 40.093C66.817 40.1863 66.7633 40.261 66.698 40.317C66.6373 40.373 66.5417 40.401 66.411 40.401H65.487L66.782 37.587L63.856 30.909H64.934C65.0413 30.909 65.1253 30.937 65.186 30.993C65.2513 31.0443 65.2957 31.1027 65.319 31.168L67.216 35.634C67.2907 35.83 67.3537 36.0353 67.405 36.25C67.4703 36.0307 67.5403 35.823 67.615 35.627L69.456 31.168C69.484 31.0933 69.5307 31.0327 69.596 30.986C69.666 30.9347 69.743 30.909 69.827 30.909H70.814ZM85.886 27.969V38H84.696V30.629C84.696 30.531 84.6983 30.426 84.703 30.314C84.7123 30.202 84.7216 30.0877 84.731 29.971L81.287 36.243C81.1796 36.453 81.0163 36.558 80.797 36.558H80.601C80.3816 36.558 80.2183 36.453 80.111 36.243L76.597 29.943C76.625 30.1903 76.639 30.419 76.639 30.629V38H75.449V27.969H76.45C76.5713 27.969 76.6646 27.9807 76.73 28.004C76.7953 28.0273 76.8583 28.0927 76.919 28.2L80.384 34.374C80.44 34.486 80.4936 34.6027 80.545 34.724C80.601 34.8453 80.6523 34.969 80.699 35.095C80.7456 34.969 80.7946 34.8453 80.846 34.724C80.8973 34.598 80.9533 34.479 81.014 34.367L84.416 28.2C84.472 28.0927 84.5326 28.0273 84.598 28.004C84.668 27.9807 84.7636 27.969 84.885 27.969H85.886ZM89.3635 30.909V38H88.1175V30.909H89.3635ZM89.6295 28.683C89.6295 28.8043 89.6039 28.9187 89.5525 29.026C89.5059 29.1287 89.4405 29.222 89.3565 29.306C89.2772 29.3853 89.1815 29.4483 89.0695 29.495C88.9622 29.5417 88.8479 29.565 88.7265 29.565C88.6052 29.565 88.4909 29.5417 88.3835 29.495C88.2809 29.4483 88.1899 29.3853 88.1105 29.306C88.0312 29.222 87.9682 29.1287 87.9215 29.026C87.8749 28.9187 87.8515 28.8043 87.8515 28.683C87.8515 28.5617 87.8749 28.4473 87.9215 28.34C87.9682 28.228 88.0312 28.1323 88.1105 28.053C88.1899 27.969 88.2809 27.9037 88.3835 27.857C88.4909 27.8103 88.6052 27.787 88.7265 27.787C88.8479 27.787 88.9622 27.8103 89.0695 27.857C89.1815 27.9037 89.2772 27.969 89.3565 28.053C89.4405 28.1323 89.5059 28.228 89.5525 28.34C89.6039 28.4473 89.6295 28.5617 89.6295 28.683ZM93.5878 38.112C93.0278 38.112 92.5962 37.9557 92.2928 37.643C91.9942 37.3303 91.8448 36.88 91.8448 36.292V31.952H90.9908C90.9162 31.952 90.8532 31.931 90.8018 31.889C90.7505 31.8423 90.7248 31.7723 90.7248 31.679V31.182L91.8868 31.035L92.1738 28.844C92.1878 28.774 92.2182 28.718 92.2648 28.676C92.3162 28.6293 92.3815 28.606 92.4608 28.606H93.0908V31.049H95.1418V31.952H93.0908V36.208C93.0908 36.5067 93.1632 36.7283 93.3078 36.873C93.4525 37.0177 93.6392 37.09 93.8678 37.09C93.9985 37.09 94.1105 37.0737 94.2038 37.041C94.3018 37.0037 94.3858 36.964 94.4558 36.922C94.5258 36.88 94.5842 36.8427 94.6308 36.81C94.6822 36.7727 94.7265 36.754 94.7638 36.754C94.8292 36.754 94.8875 36.7937 94.9388 36.873L95.3028 37.468C95.0882 37.6687 94.8292 37.8273 94.5258 37.944C94.2225 38.056 93.9098 38.112 93.5878 38.112ZM97.6814 31.854C97.9847 31.532 98.3207 31.2753 98.6894 31.084C99.0581 30.8927 99.4827 30.797 99.9634 30.797C100.351 30.797 100.691 30.8623 100.985 30.993C101.284 31.119 101.531 31.301 101.727 31.539C101.928 31.7723 102.08 32.0547 102.182 32.386C102.285 32.7173 102.336 33.0837 102.336 33.485V38H101.083V33.485C101.083 32.9483 100.96 32.533 100.712 32.239C100.47 31.9403 100.099 31.791 99.5994 31.791C99.2307 31.791 98.8854 31.8797 98.5634 32.057C98.2461 32.2343 97.9521 32.4747 97.6814 32.778V38H96.4284V27.689H97.6814V31.854ZM105.488 27.689V33.758H105.81C105.903 33.758 105.98 33.7463 106.041 33.723C106.106 33.695 106.174 33.6413 106.244 33.562L108.484 31.161C108.549 31.0817 108.617 31.021 108.687 30.979C108.762 30.9323 108.86 30.909 108.981 30.909H110.108L107.497 33.688C107.371 33.8467 107.236 33.9703 107.091 34.059C107.175 34.115 107.25 34.1803 107.315 34.255C107.385 34.325 107.45 34.4067 107.511 34.5L110.283 38H109.17C109.063 38 108.969 37.9837 108.89 37.951C108.815 37.9137 108.75 37.8483 108.694 37.755L106.363 34.85C106.293 34.752 106.223 34.689 106.153 34.661C106.088 34.6283 105.985 34.612 105.845 34.612H105.488V38H104.235V27.689H105.488ZM115.187 34.808C114.613 34.8267 114.123 34.8733 113.717 34.948C113.316 35.018 112.987 35.1113 112.73 35.228C112.478 35.3447 112.294 35.4823 112.177 35.641C112.065 35.7997 112.009 35.977 112.009 36.173C112.009 36.3597 112.04 36.5207 112.1 36.656C112.161 36.7913 112.243 36.9033 112.345 36.992C112.453 37.076 112.576 37.139 112.716 37.181C112.861 37.2183 113.015 37.237 113.178 37.237C113.398 37.237 113.598 37.216 113.78 37.174C113.962 37.1273 114.133 37.062 114.291 36.978C114.455 36.894 114.609 36.7937 114.753 36.677C114.903 36.5603 115.047 36.4273 115.187 36.278V34.808ZM111.162 31.91C111.554 31.532 111.977 31.2497 112.429 31.063C112.882 30.8763 113.384 30.783 113.934 30.783C114.331 30.783 114.683 30.8483 114.991 30.979C115.299 31.1097 115.558 31.2917 115.768 31.525C115.978 31.7583 116.137 32.0407 116.244 32.372C116.352 32.7033 116.405 33.0673 116.405 33.464V38H115.852C115.731 38 115.638 37.9813 115.572 37.944C115.507 37.902 115.456 37.8227 115.418 37.706L115.278 37.034C115.092 37.2067 114.91 37.3607 114.732 37.496C114.555 37.6267 114.368 37.7387 114.172 37.832C113.976 37.9207 113.766 37.9883 113.542 38.035C113.323 38.0863 113.078 38.112 112.807 38.112C112.532 38.112 112.273 38.0747 112.03 38C111.788 37.9207 111.575 37.804 111.393 37.65C111.216 37.496 111.074 37.3023 110.966 37.069C110.864 36.831 110.812 36.551 110.812 36.229C110.812 35.949 110.889 35.6807 111.043 35.424C111.197 35.1627 111.447 34.9317 111.792 34.731C112.138 34.5303 112.588 34.367 113.143 34.241C113.699 34.1103 114.38 34.0357 115.187 34.017V33.464C115.187 32.9133 115.068 32.498 114.83 32.218C114.592 31.9333 114.245 31.791 113.787 31.791C113.479 31.791 113.22 31.8307 113.01 31.91C112.805 31.9847 112.625 32.071 112.471 32.169C112.322 32.2623 112.191 32.3487 112.079 32.428C111.972 32.5027 111.865 32.54 111.757 32.54C111.673 32.54 111.601 32.519 111.54 32.477C111.48 32.4303 111.428 32.3743 111.386 32.309L111.162 31.91ZM119.591 27.689V38H118.345V27.689H119.591ZM135.925 27.969V38H134.735V30.629C134.735 30.531 134.737 30.426 134.742 30.314C134.751 30.202 134.761 30.0877 134.77 29.971L131.326 36.243C131.219 36.453 131.055 36.558 130.836 36.558H130.64C130.421 36.558 130.257 36.453 130.15 36.243L126.636 29.943C126.664 30.1903 126.678 30.419 126.678 30.629V38H125.488V27.969H126.489C126.61 27.969 126.704 27.9807 126.769 28.004C126.834 28.0273 126.897 28.0927 126.958 28.2L130.423 34.374C130.479 34.486 130.533 34.6027 130.584 34.724C130.64 34.8453 130.691 34.969 130.738 35.095C130.785 34.969 130.834 34.8453 130.885 34.724C130.936 34.598 130.992 34.479 131.053 34.367L134.455 28.2C134.511 28.0927 134.572 28.0273 134.637 28.004C134.707 27.9807 134.803 27.969 134.924 27.969H135.925ZM139.403 30.909V38H138.157V30.909H139.403ZM139.669 28.683C139.669 28.8043 139.643 28.9187 139.592 29.026C139.545 29.1287 139.48 29.222 139.396 29.306C139.316 29.3853 139.221 29.4483 139.109 29.495C139.001 29.5417 138.887 29.565 138.766 29.565C138.644 29.565 138.53 29.5417 138.423 29.495C138.32 29.4483 138.229 29.3853 138.15 29.306C138.07 29.222 138.007 29.1287 137.961 29.026C137.914 28.9187 137.891 28.8043 137.891 28.683C137.891 28.5617 137.914 28.4473 137.961 28.34C138.007 28.228 138.07 28.1323 138.15 28.053C138.229 27.969 138.32 27.9037 138.423 27.857C138.53 27.8103 138.644 27.787 138.766 27.787C138.887 27.787 139.001 27.8103 139.109 27.857C139.221 27.9037 139.316 27.969 139.396 28.053C139.48 28.1323 139.545 28.228 139.592 28.34C139.643 28.4473 139.669 28.5617 139.669 28.683ZM142.626 31.938C142.78 31.7653 142.943 31.609 143.116 31.469C143.289 31.329 143.471 31.21 143.662 31.112C143.858 31.0093 144.063 30.9323 144.278 30.881C144.497 30.825 144.733 30.797 144.985 30.797C145.372 30.797 145.713 30.8623 146.007 30.993C146.306 31.119 146.553 31.301 146.749 31.539C146.95 31.7723 147.101 32.0547 147.204 32.386C147.307 32.7173 147.358 33.0837 147.358 33.485V38H146.105V33.485C146.105 32.9483 145.981 32.533 145.734 32.239C145.491 31.9403 145.12 31.791 144.621 31.791C144.252 31.791 143.907 31.8797 143.585 32.057C143.268 32.2343 142.974 32.4747 142.703 32.778V38H141.45V30.909H142.199C142.376 30.909 142.486 30.9953 142.528 31.168L142.626 31.938ZM153.877 32.596C153.643 32.2833 153.391 32.0663 153.121 31.945C152.85 31.819 152.547 31.756 152.211 31.756C151.553 31.756 151.046 31.9917 150.692 32.463C150.337 32.9343 150.16 33.6063 150.16 34.479C150.16 34.941 150.199 35.3377 150.279 35.669C150.358 35.9957 150.475 36.2663 150.629 36.481C150.783 36.691 150.972 36.845 151.196 36.943C151.42 37.041 151.674 37.09 151.959 37.09C152.369 37.09 152.726 36.9967 153.03 36.81C153.338 36.6233 153.62 36.3597 153.877 36.019V32.596ZM155.123 27.689V38H154.381C154.203 38 154.091 37.9137 154.045 37.741L153.933 36.88C153.629 37.244 153.284 37.538 152.897 37.762C152.509 37.986 152.061 38.098 151.553 38.098C151.147 38.098 150.778 38.021 150.447 37.867C150.115 37.7083 149.833 37.4773 149.6 37.174C149.366 36.8707 149.187 36.4927 149.061 36.04C148.935 35.5873 148.872 35.067 148.872 34.479C148.872 33.9563 148.942 33.471 149.082 33.023C149.222 32.5703 149.422 32.1783 149.684 31.847C149.945 31.5157 150.265 31.2567 150.643 31.07C151.025 30.8787 151.455 30.783 151.931 30.783C152.365 30.783 152.736 30.8577 153.044 31.007C153.356 31.1517 153.634 31.3547 153.877 31.616V27.689H155.123ZM161.221 32.078C161.165 32.1807 161.078 32.232 160.962 32.232C160.892 32.232 160.812 32.2063 160.724 32.155C160.635 32.1037 160.525 32.0477 160.395 31.987C160.269 31.9217 160.117 31.8633 159.94 31.812C159.762 31.756 159.552 31.728 159.31 31.728C159.1 31.728 158.911 31.756 158.743 31.812C158.575 31.8633 158.43 31.9357 158.309 32.029C158.192 32.1223 158.101 32.232 158.036 32.358C157.975 32.4793 157.945 32.6123 157.945 32.757C157.945 32.939 157.996 33.0907 158.099 33.212C158.206 33.3333 158.346 33.4383 158.519 33.527C158.691 33.6157 158.887 33.695 159.107 33.765C159.326 33.8303 159.55 33.9027 159.779 33.982C160.012 34.0567 160.238 34.1407 160.458 34.234C160.677 34.3273 160.873 34.444 161.046 34.584C161.218 34.724 161.356 34.8967 161.459 35.102C161.566 35.3027 161.62 35.5453 161.62 35.83C161.62 36.1567 161.561 36.46 161.445 36.74C161.328 37.0153 161.155 37.2557 160.927 37.461C160.698 37.6617 160.418 37.8203 160.087 37.937C159.755 38.0537 159.373 38.112 158.939 38.112C158.444 38.112 157.996 38.0327 157.595 37.874C157.193 37.7107 156.853 37.503 156.573 37.251L156.867 36.775C156.904 36.7143 156.948 36.6677 157 36.635C157.051 36.6023 157.116 36.586 157.196 36.586C157.28 36.586 157.368 36.6187 157.462 36.684C157.555 36.7493 157.667 36.8217 157.798 36.901C157.933 36.9803 158.096 37.0527 158.288 37.118C158.479 37.1833 158.717 37.216 159.002 37.216C159.244 37.216 159.457 37.1857 159.639 37.125C159.821 37.0597 159.972 36.9733 160.094 36.866C160.215 36.7587 160.304 36.635 160.36 36.495C160.42 36.355 160.451 36.2057 160.451 36.047C160.451 35.851 160.397 35.69 160.29 35.564C160.187 35.4333 160.049 35.3237 159.877 35.235C159.704 35.1417 159.506 35.0623 159.282 34.997C159.062 34.927 158.836 34.8547 158.603 34.78C158.374 34.7053 158.148 34.6213 157.924 34.528C157.704 34.43 157.508 34.3087 157.336 34.164C157.163 34.0193 157.023 33.842 156.916 33.632C156.813 33.4173 156.762 33.1583 156.762 32.855C156.762 32.5843 156.818 32.3253 156.93 32.078C157.042 31.826 157.205 31.6067 157.42 31.42C157.634 31.2287 157.898 31.077 158.211 30.965C158.523 30.853 158.88 30.797 159.282 30.797C159.748 30.797 160.166 30.8717 160.535 31.021C160.908 31.1657 161.23 31.3663 161.501 31.623L161.221 32.078ZM169.984 33.17C170.372 33.17 170.712 33.1187 171.006 33.016C171.305 32.9133 171.555 32.771 171.755 32.589C171.961 32.4023 172.115 32.1807 172.217 31.924C172.32 31.6673 172.371 31.385 172.371 31.077C172.371 30.4377 172.173 29.9383 171.776 29.579C171.384 29.2197 170.787 29.04 169.984 29.04H168.374V33.17H169.984ZM169.984 27.969C170.619 27.969 171.17 28.0437 171.636 28.193C172.108 28.3377 172.497 28.5453 172.805 28.816C173.113 29.0867 173.342 29.4133 173.491 29.796C173.645 30.1787 173.722 30.6057 173.722 31.077C173.722 31.5437 173.641 31.9707 173.477 32.358C173.314 32.7453 173.074 33.079 172.756 33.359C172.444 33.639 172.054 33.8583 171.587 34.017C171.125 34.171 170.591 34.248 169.984 34.248H168.374V38H167.023V27.969H169.984ZM176.184 32.33C176.408 31.8447 176.683 31.4667 177.01 31.196C177.336 30.9207 177.735 30.783 178.207 30.783C178.356 30.783 178.498 30.7993 178.634 30.832C178.774 30.8647 178.897 30.916 179.005 30.986L178.914 31.917C178.886 32.0337 178.816 32.092 178.704 32.092C178.638 32.092 178.543 32.078 178.417 32.05C178.291 32.022 178.148 32.008 177.99 32.008C177.766 32.008 177.565 32.0407 177.388 32.106C177.215 32.1713 177.059 32.2693 176.919 32.4C176.783 32.526 176.66 32.6847 176.548 32.876C176.44 33.0627 176.342 33.2773 176.254 33.52V38H175.001V30.909H175.715C175.85 30.909 175.943 30.9347 175.995 30.986C176.046 31.0373 176.081 31.126 176.1 31.252L176.184 32.33ZM181.416 30.909V38H180.17V30.909H181.416ZM181.682 28.683C181.682 28.8043 181.657 28.9187 181.605 29.026C181.559 29.1287 181.493 29.222 181.409 29.306C181.33 29.3853 181.234 29.4483 181.122 29.495C181.015 29.5417 180.901 29.565 180.779 29.565C180.658 29.565 180.544 29.5417 180.436 29.495C180.334 29.4483 180.243 29.3853 180.163 29.306C180.084 29.222 180.021 29.1287 179.974 29.026C179.928 28.9187 179.904 28.8043 179.904 28.683C179.904 28.5617 179.928 28.4473 179.974 28.34C180.021 28.228 180.084 28.1323 180.163 28.053C180.243 27.969 180.334 27.9037 180.436 27.857C180.544 27.8103 180.658 27.787 180.779 27.787C180.901 27.787 181.015 27.8103 181.122 27.857C181.234 27.9037 181.33 27.969 181.409 28.053C181.493 28.1323 181.559 28.228 181.605 28.34C181.657 28.4473 181.682 28.5617 181.682 28.683ZM189.54 30.909L186.649 38H185.529L182.638 30.909H183.653C183.755 30.909 183.839 30.9347 183.905 30.986C183.97 31.0373 184.014 31.098 184.038 31.168L185.837 35.732C185.893 35.9047 185.942 36.0727 185.984 36.236C186.026 36.3993 186.065 36.5627 186.103 36.726C186.14 36.5627 186.18 36.3993 186.222 36.236C186.264 36.0727 186.315 35.9047 186.376 35.732L188.196 31.168C188.224 31.0933 188.27 31.0327 188.336 30.986C188.401 30.9347 188.478 30.909 188.567 30.909H189.54ZM194.375 34.808C193.801 34.8267 193.311 34.8733 192.905 34.948C192.504 35.018 192.175 35.1113 191.918 35.228C191.666 35.3447 191.482 35.4823 191.365 35.641C191.253 35.7997 191.197 35.977 191.197 36.173C191.197 36.3597 191.227 36.5207 191.288 36.656C191.349 36.7913 191.43 36.9033 191.533 36.992C191.64 37.076 191.764 37.139 191.904 37.181C192.049 37.2183 192.203 37.237 192.366 37.237C192.585 37.237 192.786 37.216 192.968 37.174C193.15 37.1273 193.32 37.062 193.479 36.978C193.642 36.894 193.796 36.7937 193.941 36.677C194.09 36.5603 194.235 36.4273 194.375 36.278V34.808ZM190.35 31.91C190.742 31.532 191.164 31.2497 191.617 31.063C192.07 30.8763 192.571 30.783 193.122 30.783C193.519 30.783 193.871 30.8483 194.179 30.979C194.487 31.1097 194.746 31.2917 194.956 31.525C195.166 31.7583 195.325 32.0407 195.432 32.372C195.539 32.7033 195.593 33.0673 195.593 33.464V38H195.04C194.919 38 194.825 37.9813 194.76 37.944C194.695 37.902 194.643 37.8227 194.606 37.706L194.466 37.034C194.279 37.2067 194.097 37.3607 193.92 37.496C193.743 37.6267 193.556 37.7387 193.36 37.832C193.164 37.9207 192.954 37.9883 192.73 38.035C192.511 38.0863 192.266 38.112 191.995 38.112C191.72 38.112 191.461 38.0747 191.218 38C190.975 37.9207 190.763 37.804 190.581 37.65C190.404 37.496 190.261 37.3023 190.154 37.069C190.051 36.831 190 36.551 190 36.229C190 35.949 190.077 35.6807 190.231 35.424C190.385 35.1627 190.635 34.9317 190.98 34.731C191.325 34.5303 191.776 34.367 192.331 34.241C192.886 34.1103 193.568 34.0357 194.375 34.017V33.464C194.375 32.9133 194.256 32.498 194.018 32.218C193.78 31.9333 193.432 31.791 192.975 31.791C192.667 31.791 192.408 31.8307 192.198 31.91C191.993 31.9847 191.813 32.071 191.659 32.169C191.51 32.2623 191.379 32.3487 191.267 32.428C191.16 32.5027 191.052 32.54 190.945 32.54C190.861 32.54 190.789 32.519 190.728 32.477C190.667 32.4303 190.616 32.3743 190.574 32.309L190.35 31.91ZM199.572 38.112C199.012 38.112 198.581 37.9557 198.277 37.643C197.979 37.3303 197.829 36.88 197.829 36.292V31.952H196.975C196.901 31.952 196.838 31.931 196.786 31.889C196.735 31.8423 196.709 31.7723 196.709 31.679V31.182L197.871 31.035L198.158 28.844C198.172 28.774 198.203 28.718 198.249 28.676C198.301 28.6293 198.366 28.606 198.445 28.606H199.075V31.049H201.126V31.952H199.075V36.208C199.075 36.5067 199.148 36.7283 199.292 36.873C199.437 37.0177 199.624 37.09 199.852 37.09C199.983 37.09 200.095 37.0737 200.188 37.041C200.286 37.0037 200.37 36.964 200.44 36.922C200.51 36.88 200.569 36.8427 200.615 36.81C200.667 36.7727 200.711 36.754 200.748 36.754C200.814 36.754 200.872 36.7937 200.923 36.873L201.287 37.468C201.073 37.6687 200.814 37.8273 200.51 37.944C200.207 38.056 199.894 38.112 199.572 38.112ZM207.118 33.681C207.118 33.3917 207.076 33.128 206.992 32.89C206.912 32.6473 206.793 32.4397 206.635 32.267C206.481 32.0897 206.292 31.9543 206.068 31.861C205.844 31.763 205.589 31.714 205.305 31.714C204.707 31.714 204.234 31.889 203.884 32.239C203.538 32.5843 203.324 33.065 203.24 33.681H207.118ZM208.126 37.006C207.972 37.1927 207.787 37.356 207.573 37.496C207.358 37.6313 207.127 37.7433 206.88 37.832C206.637 37.9207 206.385 37.986 206.124 38.028C205.862 38.0747 205.603 38.098 205.347 38.098C204.857 38.098 204.404 38.0163 203.989 37.853C203.578 37.685 203.221 37.4423 202.918 37.125C202.619 36.803 202.386 36.4063 202.218 35.935C202.05 35.4637 201.966 34.9223 201.966 34.311C201.966 33.8163 202.04 33.3543 202.19 32.925C202.344 32.4957 202.563 32.1247 202.848 31.812C203.132 31.4947 203.48 31.2473 203.891 31.07C204.301 30.888 204.763 30.797 205.277 30.797C205.701 30.797 206.093 30.8693 206.453 31.014C206.817 31.154 207.129 31.3593 207.391 31.63C207.657 31.896 207.864 32.2273 208.014 32.624C208.163 33.016 208.238 33.464 208.238 33.968C208.238 34.164 208.217 34.2947 208.175 34.36C208.133 34.4253 208.053 34.458 207.937 34.458H203.198C203.212 34.906 203.272 35.2957 203.38 35.627C203.492 35.9583 203.646 36.236 203.842 36.46C204.038 36.6793 204.271 36.845 204.542 36.957C204.812 37.0643 205.116 37.118 205.452 37.118C205.764 37.118 206.033 37.083 206.257 37.013C206.485 36.9383 206.681 36.859 206.845 36.775C207.008 36.691 207.143 36.614 207.251 36.544C207.363 36.4693 207.458 36.432 207.538 36.432C207.64 36.432 207.72 36.4717 207.776 36.551L208.126 37.006ZM219.335 36.859V38H213.644V27.969H214.995V36.859H219.335ZM221.858 30.909V38H220.612V30.909H221.858ZM222.124 28.683C222.124 28.8043 222.098 28.9187 222.047 29.026C222 29.1287 221.935 29.222 221.851 29.306C221.771 29.3853 221.676 29.4483 221.564 29.495C221.456 29.5417 221.342 29.565 221.221 29.565C221.099 29.565 220.985 29.5417 220.878 29.495C220.775 29.4483 220.684 29.3853 220.605 29.306C220.525 29.222 220.462 29.1287 220.416 29.026C220.369 28.9187 220.346 28.8043 220.346 28.683C220.346 28.5617 220.369 28.4473 220.416 28.34C220.462 28.228 220.525 28.1323 220.605 28.053C220.684 27.969 220.775 27.9037 220.878 27.857C220.985 27.8103 221.099 27.787 221.221 27.787C221.342 27.787 221.456 27.8103 221.564 27.857C221.676 27.9037 221.771 27.969 221.851 28.053C221.935 28.1323 222 28.228 222.047 28.34C222.098 28.4473 222.124 28.5617 222.124 28.683ZM223.905 38V30.909H224.654C224.831 30.909 224.941 30.9953 224.983 31.168L225.074 31.896C225.335 31.574 225.629 31.3103 225.956 31.105C226.283 30.8997 226.661 30.797 227.09 30.797C227.566 30.797 227.951 30.93 228.245 31.196C228.544 31.462 228.758 31.8213 228.889 32.274C228.992 32.0173 229.122 31.7957 229.281 31.609C229.444 31.4223 229.626 31.2683 229.827 31.147C230.028 31.0257 230.24 30.937 230.464 30.881C230.693 30.825 230.924 30.797 231.157 30.797C231.53 30.797 231.862 30.8577 232.151 30.979C232.445 31.0957 232.692 31.2683 232.893 31.497C233.098 31.7257 233.255 32.008 233.362 32.344C233.469 32.6753 233.523 33.0557 233.523 33.485V38H232.27V33.485C232.27 32.9297 232.149 32.5097 231.906 32.225C231.663 31.9357 231.313 31.791 230.856 31.791C230.651 31.791 230.455 31.8283 230.268 31.903C230.086 31.973 229.925 32.078 229.785 32.218C229.645 32.358 229.533 32.5353 229.449 32.75C229.37 32.96 229.33 33.205 229.33 33.485V38H228.077V33.485C228.077 32.9157 227.963 32.491 227.734 32.211C227.505 31.931 227.172 31.791 226.733 31.791C226.425 31.791 226.14 31.875 225.879 32.043C225.618 32.2063 225.377 32.4303 225.158 32.715V38H223.905ZM236.733 30.909V38H235.487V30.909H236.733ZM236.999 28.683C236.999 28.8043 236.973 28.9187 236.922 29.026C236.875 29.1287 236.81 29.222 236.726 29.306C236.646 29.3853 236.551 29.4483 236.439 29.495C236.331 29.5417 236.217 29.565 236.096 29.565C235.974 29.565 235.86 29.5417 235.753 29.495C235.65 29.4483 235.559 29.3853 235.48 29.306C235.4 29.222 235.337 29.1287 235.291 29.026C235.244 28.9187 235.221 28.8043 235.221 28.683C235.221 28.5617 235.244 28.4473 235.291 28.34C235.337 28.228 235.4 28.1323 235.48 28.053C235.559 27.969 235.65 27.9037 235.753 27.857C235.86 27.8103 235.974 27.787 236.096 27.787C236.217 27.787 236.331 27.8103 236.439 27.857C236.551 27.9037 236.646 27.969 236.726 28.053C236.81 28.1323 236.875 28.228 236.922 28.34C236.973 28.4473 236.999 28.5617 236.999 28.683ZM240.957 38.112C240.397 38.112 239.965 37.9557 239.662 37.643C239.363 37.3303 239.214 36.88 239.214 36.292V31.952H238.36C238.285 31.952 238.222 31.931 238.171 31.889C238.12 31.8423 238.094 31.7723 238.094 31.679V31.182L239.256 31.035L239.543 28.844C239.557 28.774 239.587 28.718 239.634 28.676C239.685 28.6293 239.751 28.606 239.83 28.606H240.46V31.049H242.511V31.952H240.46V36.208C240.46 36.5067 240.532 36.7283 240.677 36.873C240.822 37.0177 241.008 37.09 241.237 37.09C241.368 37.09 241.48 37.0737 241.573 37.041C241.671 37.0037 241.755 36.964 241.825 36.922C241.895 36.88 241.953 36.8427 242 36.81C242.051 36.7727 242.096 36.754 242.133 36.754C242.198 36.754 242.257 36.7937 242.308 36.873L242.672 37.468C242.457 37.6687 242.198 37.8273 241.895 37.944C241.592 38.056 241.279 38.112 240.957 38.112ZM248.503 33.681C248.503 33.3917 248.461 33.128 248.377 32.89C248.297 32.6473 248.178 32.4397 248.02 32.267C247.866 32.0897 247.677 31.9543 247.453 31.861C247.229 31.763 246.974 31.714 246.69 31.714C246.092 31.714 245.619 31.889 245.269 32.239C244.923 32.5843 244.709 33.065 244.625 33.681H248.503ZM249.511 37.006C249.357 37.1927 249.172 37.356 248.958 37.496C248.743 37.6313 248.512 37.7433 248.265 37.832C248.022 37.9207 247.77 37.986 247.509 38.028C247.247 38.0747 246.988 38.098 246.732 38.098C246.242 38.098 245.789 38.0163 245.374 37.853C244.963 37.685 244.606 37.4423 244.303 37.125C244.004 36.803 243.771 36.4063 243.603 35.935C243.435 35.4637 243.351 34.9223 243.351 34.311C243.351 33.8163 243.425 33.3543 243.575 32.925C243.729 32.4957 243.948 32.1247 244.233 31.812C244.517 31.4947 244.865 31.2473 245.276 31.07C245.686 30.888 246.148 30.797 246.662 30.797C247.086 30.797 247.478 30.8693 247.838 31.014C248.202 31.154 248.514 31.3593 248.776 31.63C249.042 31.896 249.249 32.2273 249.399 32.624C249.548 33.016 249.623 33.464 249.623 33.968C249.623 34.164 249.602 34.2947 249.56 34.36C249.518 34.4253 249.438 34.458 249.322 34.458H244.583C244.597 34.906 244.657 35.2957 244.765 35.627C244.877 35.9583 245.031 36.236 245.227 36.46C245.423 36.6793 245.656 36.845 245.927 36.957C246.197 37.0643 246.501 37.118 246.837 37.118C247.149 37.118 247.418 37.083 247.642 37.013C247.87 36.9383 248.066 36.859 248.23 36.775C248.393 36.691 248.528 36.614 248.636 36.544C248.748 36.4693 248.843 36.432 248.923 36.432C249.025 36.432 249.105 36.4717 249.161 36.551L249.511 37.006ZM255.773 32.596C255.54 32.2833 255.288 32.0663 255.017 31.945C254.746 31.819 254.443 31.756 254.107 31.756C253.449 31.756 252.943 31.9917 252.588 32.463C252.233 32.9343 252.056 33.6063 252.056 34.479C252.056 34.941 252.096 35.3377 252.175 35.669C252.254 35.9957 252.371 36.2663 252.525 36.481C252.679 36.691 252.868 36.845 253.092 36.943C253.316 37.041 253.57 37.09 253.855 37.09C254.266 37.09 254.623 36.9967 254.926 36.81C255.234 36.6233 255.516 36.3597 255.773 36.019V32.596ZM257.019 27.689V38H256.277C256.1 38 255.988 37.9137 255.941 37.741L255.829 36.88C255.526 37.244 255.18 37.538 254.793 37.762C254.406 37.986 253.958 38.098 253.449 38.098C253.043 38.098 252.674 38.021 252.343 37.867C252.012 37.7083 251.729 37.4773 251.496 37.174C251.263 36.8707 251.083 36.4927 250.957 36.04C250.831 35.5873 250.768 35.067 250.768 34.479C250.768 33.9563 250.838 33.471 250.978 33.023C251.118 32.5703 251.319 32.1783 251.58 31.847C251.841 31.5157 252.161 31.2567 252.539 31.07C252.922 30.8787 253.351 30.783 253.827 30.783C254.261 30.783 254.632 30.8577 254.94 31.007C255.253 31.1517 255.53 31.3547 255.773 31.616V27.689H257.019Z" fill="white"/>
<defs>
<clipPath id="clip0_943_1477">
<rect width="21.5629" height="15" fill="white" transform="translate(57 4)"/>
</clipPath>
</defs>
</svg>
