<svg width="48" height="28" viewBox="0 0 48 28" fill="none" xmlns="http://www.w3.org/2000/svg">
<path d="M23.984 8.47475C23.7067 8.47475 23.472 8.37875 23.28 8.18675C23.088 7.99475 22.992 7.76008 22.992 7.48275C22.992 7.20541 23.088 6.97075 23.28 6.77875C23.472 6.58675 23.7067 6.49075 23.984 6.49075C24.2507 6.49075 24.4747 6.58675 24.656 6.77875C24.848 6.97075 24.944 7.20541 24.944 7.48275C24.944 7.76008 24.848 7.99475 24.656 8.18675C24.4747 8.37875 24.2507 8.47475 23.984 8.47475ZM24.688 9.89875V18.6667H23.232V9.89875H24.688ZM32.2255 18.7787C31.1908 18.7787 30.2468 18.5387 29.3935 18.0587C28.5402 17.5681 27.8628 16.8907 27.3615 16.0267C26.8708 15.1521 26.6255 14.1707 26.6255 13.0827C26.6255 11.9947 26.8708 11.0187 27.3615 10.1547C27.8628 9.28008 28.5402 8.60275 29.3935 8.12275C30.2468 7.63208 31.1908 7.38675 32.2255 7.38675C33.2708 7.38675 34.2202 7.63208 35.0735 8.12275C35.9268 8.60275 36.5988 9.27475 37.0895 10.1387C37.5802 11.0027 37.8255 11.9841 37.8255 13.0827C37.8255 14.1814 37.5802 15.1627 37.0895 16.0267C36.5988 16.8907 35.9268 17.5681 35.0735 18.0587C34.2202 18.5387 33.2708 18.7787 32.2255 18.7787ZM32.2255 17.5147C33.0042 17.5147 33.7028 17.3334 34.3215 16.9707C34.9508 16.6081 35.4415 16.0907 35.7935 15.4187C36.1562 14.7467 36.3375 13.9681 36.3375 13.0827C36.3375 12.1867 36.1562 11.4081 35.7935 10.7467C35.4415 10.0747 34.9562 9.55741 34.3375 9.19475C33.7188 8.83208 33.0148 8.65075 32.2255 8.65075C31.4362 8.65075 30.7322 8.83208 30.1135 9.19475C29.4948 9.55741 29.0042 10.0747 28.6415 10.7467C28.2895 11.4081 28.1135 12.1867 28.1135 13.0827C28.1135 13.9681 28.2895 14.7467 28.6415 15.4187C29.0042 16.0907 29.4948 16.6081 30.1135 16.9707C30.7428 17.3334 31.4468 17.5147 32.2255 17.5147ZM43.2836 18.7787C42.5476 18.7787 41.8863 18.6507 41.2996 18.3947C40.7236 18.1281 40.2703 17.7654 39.9396 17.3067C39.609 16.8374 39.4383 16.2987 39.4276 15.6907H40.9796C41.033 16.2134 41.2463 16.6561 41.6196 17.0187C42.0036 17.3707 42.5583 17.5467 43.2836 17.5467C43.977 17.5467 44.521 17.3761 44.9156 17.0347C45.321 16.6827 45.5236 16.2347 45.5236 15.6907C45.5236 15.2641 45.4063 14.9174 45.1716 14.6507C44.937 14.3841 44.6436 14.1814 44.2916 14.0427C43.9396 13.9041 43.465 13.7547 42.8676 13.5947C42.1316 13.4027 41.5396 13.2107 41.0916 13.0187C40.6543 12.8267 40.2756 12.5281 39.9556 12.1227C39.6463 11.7067 39.4916 11.1521 39.4916 10.4587C39.4916 9.85075 39.6463 9.31208 39.9556 8.84275C40.265 8.37341 40.697 8.01075 41.2516 7.75475C41.817 7.49875 42.4623 7.37075 43.1876 7.37075C44.233 7.37075 45.0863 7.63208 45.7476 8.15475C46.4196 8.67741 46.7983 9.37075 46.8836 10.2347H45.2836C45.2303 9.80808 45.0063 9.43475 44.6116 9.11475C44.217 8.78408 43.6943 8.61875 43.0436 8.61875C42.4356 8.61875 41.9396 8.77875 41.5556 9.09875C41.1716 9.40808 40.9796 9.84541 40.9796 10.4107C40.9796 10.8161 41.0916 11.1467 41.3156 11.4027C41.5503 11.6587 41.833 11.8561 42.1636 11.9947C42.505 12.1227 42.9796 12.2721 43.5876 12.4427C44.3236 12.6454 44.9156 12.8481 45.3636 13.0507C45.8116 13.2427 46.1956 13.5467 46.5156 13.9627C46.8356 14.3681 46.9956 14.9227 46.9956 15.6267C46.9956 16.1707 46.8516 16.6827 46.5636 17.1627C46.2756 17.6427 45.849 18.0321 45.2836 18.3307C44.7183 18.6294 44.0516 18.7787 43.2836 18.7787Z" fill="#1E2849"/>
<path d="M14.8456 20.1112C14.0156 21.489 13.1356 22.8334 11.7956 22.8556C10.4556 22.889 10.0256 21.9779 8.50559 21.9779C6.97559 21.9779 6.50559 22.8334 5.23559 22.889C3.92559 22.9445 2.93559 21.4223 2.09559 20.0779C0.38559 17.3334 -0.92441 12.2779 0.83559 8.87786C1.70559 7.18897 3.26559 6.1223 4.95559 6.08897C6.23559 6.06675 7.45559 7.05564 8.24559 7.05564C9.02559 7.05564 10.5056 5.86675 12.0556 6.04453C12.7056 6.07786 14.5256 6.33341 15.6956 8.24453C15.6056 8.31119 13.5256 9.66675 13.5456 12.4779C13.5756 15.8334 16.1956 16.9556 16.2256 16.9667C16.1956 17.0445 15.8056 18.5667 14.8456 20.1112ZM9.13559 2.33341C9.86559 1.41119 11.0756 0.711192 12.0756 0.666748C12.2056 1.96675 11.7356 3.27786 11.0356 4.21119C10.3456 5.15564 9.20559 5.88897 8.08559 5.78897C7.93559 4.51119 8.49559 3.17786 9.13559 2.33341Z" fill="#1E2849"/>
</svg>
