<svg width="65" height="65" viewBox="0 0 65 65" fill="none" xmlns="http://www.w3.org/2000/svg">
<rect width="65" height="65" rx="6" fill="#001A72" fill-opacity="0.1"/>
<path d="M21.2158 51C20.8053 51 20.4421 50.8816 20.1263 50.6447C19.8105 50.4079 19.6526 50.1 19.6526 49.7211V45.7421C18.7368 45.2368 18.0658 44.5105 17.6395 43.5632C17.2132 42.6158 17 41.6053 17 40.5316V21.7263C17 19.3895 18.2079 17.6842 20.6237 16.6105C23.0395 15.5368 26.9 15 32.2053 15C37.4474 15 41.2763 15.5368 43.6921 16.6105C46.1079 17.6842 47.3158 19.3895 47.3158 21.7263V40.5316C47.3158 41.6053 47.1026 42.6158 46.6763 43.5632C46.25 44.5105 45.5789 45.2368 44.6632 45.7421V49.7211C44.6632 50.1 44.5053 50.4079 44.1895 50.6447C43.8737 50.8816 43.5105 51 43.1 51H42.2C41.7579 51 41.3789 50.8816 41.0632 50.6447C40.7474 50.4079 40.5895 50.1 40.5895 49.7211V47.1158H23.7263V49.7211C23.7263 50.1 23.5684 50.4079 23.2526 50.6447C22.9368 50.8816 22.5579 51 22.1158 51H21.2158ZM32.2053 20.4947H44.4737H19.8421H32.2053ZM40.5895 34.3737H19.8421H44.4737H40.5895ZM19.8421 31.5316H44.4737V23.3368H19.8421V31.5316ZM24.8632 41.9053C25.5895 41.9053 26.2053 41.6526 26.7105 41.1474C27.2158 40.6421 27.4684 40.0263 27.4684 39.3C27.4684 38.5737 27.2158 37.9579 26.7105 37.4526C26.2053 36.9474 25.5895 36.6947 24.8632 36.6947C24.1368 36.6947 23.5211 36.9474 23.0158 37.4526C22.5105 37.9579 22.2579 38.5737 22.2579 39.3C22.2579 40.0263 22.5105 40.6421 23.0158 41.1474C23.5211 41.6526 24.1368 41.9053 24.8632 41.9053ZM39.4526 41.9053C40.1789 41.9053 40.7947 41.6526 41.3 41.1474C41.8053 40.6421 42.0579 40.0263 42.0579 39.3C42.0579 38.5737 41.8053 37.9579 41.3 37.4526C40.7947 36.9474 40.1789 36.6947 39.4526 36.6947C38.7263 36.6947 38.1105 36.9474 37.6053 37.4526C37.1 37.9579 36.8474 38.5737 36.8474 39.3C36.8474 40.0263 37.1 40.6421 37.6053 41.1474C38.1105 41.6526 38.7263 41.9053 39.4526 41.9053ZM19.8421 20.4947H44.4737C43.7158 19.6737 42.2632 19.0263 40.1158 18.5526C37.9684 18.0789 35.3316 17.8421 32.2053 17.8421C28.4789 17.8421 25.6211 18.0553 23.6316 18.4816C21.6421 18.9079 20.3789 19.5789 19.8421 20.4947ZM23.7263 44.2737H40.5895C41.6947 44.2737 42.6184 43.8474 43.3605 42.9947C44.1026 42.1421 44.4737 41.1632 44.4737 40.0579V34.3737H19.8421V40.0579C19.8421 41.1632 20.2132 42.1421 20.9553 42.9947C21.6974 43.8474 22.6211 44.2737 23.7263 44.2737Z" fill="#1C023B"/>
</svg>
