<svg width="42" height="42" viewBox="0 0 42 42" fill="none" xmlns="http://www.w3.org/2000/svg">
<circle cx="21" cy="21" r="21" fill="#001A72" fill-opacity="0.15"/>
<path d="M28 22.1668H27.2067L24.8733 24.5002H27.1017L29.1667 26.8335H12.8333L14.91 24.5002H17.3017L14.9683 22.1668H14L10.5 25.6668V30.3335C10.5 30.9523 10.7458 31.5458 11.1834 31.9834C11.621 32.421 12.2145 32.6668 12.8333 32.6668H29.1667C29.7855 32.6668 30.379 32.421 30.8166 31.9834C31.2542 31.5458 31.5 30.9523 31.5 30.3335V25.6668L28 22.1668ZM26.8333 16.2752L21.0583 22.0502L16.9167 17.9202L22.7033 12.1452L26.8333 16.2752ZM21.8867 9.67184L14.455 17.1035C14 17.5585 14 18.2935 14.455 18.7485L20.23 24.5002C20.685 24.9785 21.42 24.9785 21.875 24.5002L29.295 17.1035C29.75 16.6485 29.75 15.9135 29.295 15.4585L23.52 9.6835C23.0767 9.21684 22.3417 9.21684 21.8867 9.67184Z" fill="#001A72"/>
</svg>
