<svg width="20" height="20" viewBox="0 0 20 20" fill="none" xmlns="http://www.w3.org/2000/svg">
<path d="M9.64999 9.8333C9.291 9.8333 8.99999 10.1243 8.99999 10.4833C8.99999 10.8423 9.291 11.1333 9.64999 11.1333C10.009 11.1333 10.3 10.8423 10.3 10.4833C10.3 10.1243 10.009 9.8333 9.64999 9.8333Z" fill="#A0A0A0" stroke="#A0A0A0" stroke-width="1.8" stroke-linecap="round" stroke-linejoin="round"/>
<path d="M9.64999 15.6663C9.291 15.6663 8.99999 15.9573 8.99999 16.3163C8.99999 16.6753 9.291 16.9663 9.64999 16.9663C10.009 16.9663 10.3 16.6753 10.3 16.3163C10.3 15.9573 10.009 15.6663 9.64999 15.6663Z" fill="#A0A0A0" stroke="#A0A0A0" stroke-width="1.8" stroke-linecap="round" stroke-linejoin="round"/>
<path d="M9.64999 3.99981C9.291 3.99981 8.99999 4.29082 8.99999 4.64981C8.99999 5.00879 9.291 5.2998 9.64999 5.2998C10.009 5.2998 10.3 5.00879 10.3 4.64981C10.3 4.29082 10.009 3.99981 9.64999 3.99981Z" fill="#A0A0A0" stroke="#A0A0A0" stroke-width="1.8" stroke-linecap="round" stroke-linejoin="round"/>
</svg>
