<svg width="42" height="42" viewBox="0 0 42 42" fill="none" xmlns="http://www.w3.org/2000/svg">
<circle cx="21" cy="21" r="21" fill="#001A72" fill-opacity="0.15"/>
<path d="M29.1667 29.167H12.8333V16.3337H29.1667V29.167ZM25.6667 8.16699V10.5003H16.3333V8.16699H14V10.5003H12.8333C11.55 10.5003 10.5 11.5503 10.5 12.8337V29.167C10.5 30.462 11.55 31.5003 12.8333 31.5003H29.1667C30.4617 31.5003 31.5 30.462 31.5 29.167V12.8337C31.5 11.5503 30.4617 10.5003 29.1667 10.5003H28V8.16699H25.6667ZM19.6933 21.0003H15.4817L18.8883 23.462L17.5933 27.487L21 25.002L24.4067 27.487L23.1 23.4737L26.5067 21.0003H22.3067L21 16.987L19.6933 21.0003Z" fill="#001A72"/>
</svg>
