<svg width="65" height="65" viewBox="0 0 65 65" fill="none" xmlns="http://www.w3.org/2000/svg">
<rect width="65" height="65" rx="6" fill="#001A72" fill-opacity="0.1"/>
<path d="M17.8421 48C17.0842 48 16.4211 47.7158 15.8526 47.1474C15.2842 46.5789 15 45.9158 15 45.1579V21.9947C15 21.2368 15.2842 20.5737 15.8526 20.0053C16.4211 19.4368 17.0842 19.1526 17.8421 19.1526H26.8421V14.8421C26.8421 14.0842 27.1263 13.4211 27.6947 12.8526C28.2632 12.2842 28.9263 12 29.6842 12H38.2105C38.9684 12 39.6316 12.2842 40.2 12.8526C40.7684 13.4211 41.0526 14.0842 41.0526 14.8421V19.1526H50.0526C50.8105 19.1526 51.4737 19.4368 52.0421 20.0053C52.6105 20.5737 52.8947 21.2368 52.8947 21.9947V45.1579C52.8947 45.9158 52.6105 46.5789 52.0421 47.1474C51.4737 47.7158 50.8105 48 50.0526 48H17.8421ZM29.6842 19.1526H38.2105V14.8421H29.6842V19.1526ZM50.0526 36.1105H38.2579V38.9526H29.7316V36.1105H17.8421V45.1579H50.0526V36.1105ZM32.5737 36.1105H35.4158V33.2684H32.5737V36.1105ZM17.8421 33.2684H29.7316V30.4263H38.2579V33.2684H50.0526V21.9947H17.8421V33.2684Z" fill="#1C023B"/>
</svg>
