<svg width="44" height="32" viewBox="0 0 44 32" fill="none" xmlns="http://www.w3.org/2000/svg">
<path d="M10.55 32C7.61667 32 5.125 30.975 3.075 28.925C1.025 26.875 0 24.3834 0 21.45C0 18.85 0.833333 16.5667 2.5 14.6C4.16667 12.6334 6.28333 11.45 8.85 11.05C9.45 8.05002 10.8333 5.55002 13 3.55002C15.1667 1.55002 17.6833 0.416691 20.55 0.150024V17.6L16.4 13.45L14.25 15.6L22.05 23.4L29.85 15.6L27.7 13.45L23.55 17.6V0.150024C26.9167 0.516691 29.7333 2.01669 32 4.65002C34.2667 7.28336 35.4 10.3667 35.4 13.9V15.1C37.8 15.0334 39.8333 15.8084 41.5 17.425C43.1667 19.0417 44 21.0834 44 23.55C44 25.85 43.1667 27.8334 41.5 29.5C39.8333 31.1667 37.85 32 35.55 32H10.55Z" fill="#436DFA"/>
</svg>
