<svg width="34" height="24" viewBox="0 0 34 24" fill="none" xmlns="http://www.w3.org/2000/svg">
<path d="M8.4125 24C6.2125 24 4.34375 23.2312 2.80625 21.6937C1.26875 20.1562 0.5 18.2875 0.5 16.0875C0.5 14.1375 1.125 12.425 2.375 10.95C3.625 9.47499 5.2125 8.58749 7.1375 8.28749C7.5875 6.03749 8.625 4.16249 10.25 2.66249C11.875 1.16249 13.7625 0.312488 15.9125 0.112488V13.2L12.8 10.0875L11.1875 11.7L17.0375 17.55L22.8875 11.7L21.275 10.0875L18.1625 13.2V0.112488C20.6875 0.387488 22.8 1.51249 24.5 3.48749C26.2 5.46249 27.05 7.77499 27.05 10.425V11.325C28.85 11.275 30.375 11.8562 31.625 13.0687C32.875 14.2812 33.5 15.8125 33.5 17.6625C33.5 19.3875 32.875 20.875 31.625 22.125C30.375 23.375 28.8875 24 27.1625 24H8.4125Z" fill="#008000"/>
</svg>
