<svg width="65" height="65" viewBox="0 0 65 65" fill="none" xmlns="http://www.w3.org/2000/svg">
<rect width="65" height="65" rx="6" fill="#001A72" fill-opacity="0.1"/>
<path d="M25.2 31.55V28.85H39.6V31.55H25.2ZM25.2 24.35V21.65H39.6V24.35H25.2ZM20.7 36.05H35.1C35.8929 36.05 36.6311 36.23 37.3147 36.59C37.9982 36.95 38.58 37.43 39.06 38.03L44.1 44.6V16.7H20.7V36.05ZM20.7 47.3H42.75L36.945 39.695C36.7181 39.3985 36.4438 39.1669 36.1223 39.0002C35.8008 38.8334 35.46 38.75 35.1 38.75H20.7V47.3ZM44.1 50H20.7C19.98 50 19.35 49.73 18.81 49.19C18.27 48.65 18 48.02 18 47.3V16.7C18 15.98 18.27 15.35 18.81 14.81C19.35 14.27 19.98 14 20.7 14H44.1C44.82 14 45.45 14.27 45.99 14.81C46.53 15.35 46.8 15.98 46.8 16.7V47.3C46.8 48.02 46.53 48.65 45.99 49.19C45.45 49.73 44.82 50 44.1 50Z" fill="#1C023B"/>
</svg>
