<svg width="100" height="100" viewBox="0 0 100 100" fill="none" xmlns="http://www.w3.org/2000/svg">
<path d="M0 12C0 5.37258 5.37258 0 12 0H100V100H12C5.37258 100 0 94.6274 0 88V12Z" fill="#D9D9D9"/>
<path d="M63 62H43C41.9391 62 40.9217 61.5786 40.1716 60.8284C39.4214 60.0783 39 59.0609 39 58V34C39 32.9391 39.4214 31.9217 40.1716 31.1716C40.9217 30.4214 41.9391 30 43 30H45V40L49 37L53 40V30H63C64.0609 30 65.0783 30.4214 65.8284 31.1716C66.5786 31.9217 67 32.9391 67 34V58C67 59.0609 66.5786 60.0783 65.8284 60.8284C65.0783 61.5786 64.0609 62 63 62ZM59 66V70H35C33.9391 70 32.9217 69.5786 32.1716 68.8284C31.4214 68.0783 31 67.0609 31 66V38H35V66H59Z" fill="#121212" fill-opacity="0.6"/>
</svg>
