<svg width="60" height="61" viewBox="0 0 60 61" fill="none" xmlns="http://www.w3.org/2000/svg">
<path d="M54.45 23.075C53 18.225 50.2875 14.1375 46.3125 10.8125C42.3375 7.4875 37.65 5.575 32.25 5.075V10.25L54.45 23.075ZM16.275 35.6L27.75 28.85V5.075C25.7 5.325 23.7125 5.75 21.7875 6.35C19.8625 6.95 18.025 7.825 16.275 8.975V35.6ZM6.825 41.225L11.775 38.3V12.575C9.425 14.975 7.625 17.7375 6.375 20.8625C5.125 23.9875 4.5 27.2 4.5 30.5C4.5 32.45 4.7 34.2875 5.1 36.0125C5.5 37.7375 6.075 39.475 6.825 41.225ZM18.3 53.225L41.775 39.65L30 32.75L9 45.125C10.2 46.775 11.5875 48.3125 13.1625 49.7375C14.7375 51.1625 16.45 52.325 18.3 53.225ZM30 56C34.3 56 38.275 55.0375 41.925 53.1125C45.575 51.1875 48.6 48.525 51 45.125L46.125 42.275L23.85 55.25C24.85 55.5 25.875 55.6875 26.925 55.8125C27.975 55.9375 29 56 30 56ZM53.175 41.15C54.075 39.25 54.7 37.325 55.05 35.375C55.4 33.425 55.55 31.35 55.5 29.15L32.25 15.575V28.85L53.175 41.15ZM30 60.5C25.85 60.5 21.95 59.7125 18.3 58.1375C14.65 56.5625 11.475 54.425 8.775 51.725C6.075 49.025 3.9375 45.85 2.3625 42.2C0.7875 38.55 0 34.65 0 30.5C0 26.35 0.7875 22.45 2.3625 18.8C3.9375 15.15 6.075 11.975 8.775 9.275C11.475 6.575 14.65 4.4375 18.3 2.8625C21.95 1.2875 25.85 0.5 30 0.5C34.15 0.5 38.05 1.2875 41.7 2.8625C45.35 4.4375 48.525 6.575 51.225 9.275C53.925 11.975 56.0625 15.15 57.6375 18.8C59.2125 22.45 60 26.35 60 30.5C60 34.65 59.2125 38.55 57.6375 42.2C56.0625 45.85 53.925 49.025 51.225 51.725C48.525 54.425 45.35 56.5625 41.7 58.1375C38.05 59.7125 34.15 60.5 30 60.5Z" fill="black" fill-opacity="0.6"/>
</svg>
