<svg width="54" height="59" viewBox="0 0 54 59" fill="none" xmlns="http://www.w3.org/2000/svg">
<path d="M4.5 58.7981C3.3 58.7981 2.25 58.3481 1.35 57.4481C0.45 56.5481 0 55.4981 0 54.2981V39.4481L10.125 28.2731L13.35 31.4981L4.5 41.1731H49.5L41.175 31.7231L44.4 28.4981L54 39.4481V54.2981C54 55.4981 53.55 56.5481 52.65 57.4481C51.75 58.3481 50.7 58.7981 49.5 58.7981H4.5ZM4.5 54.2981H49.5V45.6731H4.5V54.2981ZM24.15 35.9231L12.225 23.9981C11.275 23.0481 10.85 21.9856 10.95 20.8106C11.05 19.6356 11.55 18.5981 12.45 17.6981L28.35 1.79808C29.1967 0.970077 30.2459 0.538077 31.4975 0.502077C32.7492 0.466077 33.825 0.898077 34.725 1.79808L46.65 13.7231C47.5 14.5731 47.9375 15.5856 47.9625 16.7606C47.9875 17.9356 47.5 19.0231 46.5 20.0231L30.6 35.9231C29.75 36.7731 28.7 37.2231 27.45 37.2731C26.2 37.3231 25.1 36.8731 24.15 35.9231ZM42.825 16.6481L31.575 5.39808L15.975 20.9981L27.225 32.2481L42.825 16.6481Z" fill="black" fill-opacity="0.6"/>
</svg>
