<svg width="55" height="60" viewBox="0 0 55 60" fill="none" xmlns="http://www.w3.org/2000/svg">
<path d="M5 60C3.8 60 2.75 59.55 1.85 58.65C0.95 57.75 0.5 56.7 0.5 55.5V9C0.5 7.8 0.95 6.75 1.85 5.85C2.75 4.95 3.8 4.5 5 4.5H9.875V0H14.75V4.5H40.25V0H45.125V4.5H50C51.2 4.5 52.25 4.95 53.15 5.85C54.05 6.75 54.5 7.8 54.5 9V55.5C54.5 56.7 54.05 57.75 53.15 58.65C52.25 59.55 51.2 60 50 60H5ZM5 55.5H50V23.25H5V55.5ZM5 18.75H50V9H5V18.75ZM27.5 36C26.65 36 25.9375 35.7125 25.3625 35.1375C24.7875 34.5625 24.5 33.85 24.5 33C24.5 32.15 24.7875 31.4375 25.3625 30.8625C25.9375 30.2875 26.65 30 27.5 30C28.35 30 29.0625 30.2875 29.6375 30.8625C30.2125 31.4375 30.5 32.15 30.5 33C30.5 33.85 30.2125 34.5625 29.6375 35.1375C29.0625 35.7125 28.35 36 27.5 36ZM15.5 36C14.65 36 13.9375 35.7125 13.3625 35.1375C12.7875 34.5625 12.5 33.85 12.5 33C12.5 32.15 12.7875 31.4375 13.3625 30.8625C13.9375 30.2875 14.65 30 15.5 30C16.35 30 17.0625 30.2875 17.6375 30.8625C18.2125 31.4375 18.5 32.15 18.5 33C18.5 33.85 18.2125 34.5625 17.6375 35.1375C17.0625 35.7125 16.35 36 15.5 36ZM39.5 36C38.65 36 37.9375 35.7125 37.3625 35.1375C36.7875 34.5625 36.5 33.85 36.5 33C36.5 32.15 36.7875 31.4375 37.3625 30.8625C37.9375 30.2875 38.65 30 39.5 30C40.35 30 41.0625 30.2875 41.6375 30.8625C42.2125 31.4375 42.5 32.15 42.5 33C42.5 33.85 42.2125 34.5625 41.6375 35.1375C41.0625 35.7125 40.35 36 39.5 36ZM27.5 48C26.65 48 25.9375 47.7125 25.3625 47.1375C24.7875 46.5625 24.5 45.85 24.5 45C24.5 44.15 24.7875 43.4375 25.3625 42.8625C25.9375 42.2875 26.65 42 27.5 42C28.35 42 29.0625 42.2875 29.6375 42.8625C30.2125 43.4375 30.5 44.15 30.5 45C30.5 45.85 30.2125 46.5625 29.6375 47.1375C29.0625 47.7125 28.35 48 27.5 48ZM15.5 48C14.65 48 13.9375 47.7125 13.3625 47.1375C12.7875 46.5625 12.5 45.85 12.5 45C12.5 44.15 12.7875 43.4375 13.3625 42.8625C13.9375 42.2875 14.65 42 15.5 42C16.35 42 17.0625 42.2875 17.6375 42.8625C18.2125 43.4375 18.5 44.15 18.5 45C18.5 45.85 18.2125 46.5625 17.6375 47.1375C17.0625 47.7125 16.35 48 15.5 48ZM39.5 48C38.65 48 37.9375 47.7125 37.3625 47.1375C36.7875 46.5625 36.5 45.85 36.5 45C36.5 44.15 36.7875 43.4375 37.3625 42.8625C37.9375 42.2875 38.65 42 39.5 42C40.35 42 41.0625 42.2875 41.6375 42.8625C42.2125 43.4375 42.5 44.15 42.5 45C42.5 45.85 42.2125 46.5625 41.6375 47.1375C41.0625 47.7125 40.35 48 39.5 48Z" fill="black" fill-opacity="0.6"/>
</svg>
