<svg width="60" height="50" viewBox="0 0 60 50" fill="none" xmlns="http://www.w3.org/2000/svg">
<path d="M24 22.5C20.7 22.5 18 21.45 15.9 19.35C13.8 17.25 12.75 14.55 12.75 11.25C12.75 7.95 13.8 5.25 15.9 3.15C18 1.05 20.7 0 24 0C27.3 0 30 1.05 32.1 3.15C34.2 5.25 35.25 7.95 35.25 11.25C35.25 14.55 34.2 17.25 32.1 19.35C30 21.45 27.3 22.5 24 22.5ZM0 46.575V39.525C0 37.775 0.4375 36.2 1.3125 34.8C2.1875 33.4 3.45 32.325 5.1 31.575C8.7 29.975 12.0375 28.825 15.1125 28.125C18.1875 27.425 21.15 27.075 24 27.075H25.725C25.425 27.775 25.2 28.4625 25.05 29.1375C24.9 29.8125 24.775 30.625 24.675 31.575H24C21.1 31.575 18.2625 31.8875 15.4875 32.5125C12.7125 33.1375 9.85 34.175 6.9 35.625C6.1 36.025 5.5 36.5875 5.1 37.3125C4.7 38.0375 4.5 38.775 4.5 39.525V42.075H24.675C24.925 42.975 25.225 43.7875 25.575 44.5125C25.925 45.2375 26.35 45.925 26.85 46.575H0ZM44.025 49.875L43.275 44.925C42.425 44.675 41.5625 44.3125 40.6875 43.8375C39.8125 43.3625 39.075 42.825 38.475 42.225L34.35 43.125L32.475 39.975L36 36.675C35.9 36.225 35.85 35.6 35.85 34.8C35.85 34 35.9 33.375 36 32.925L32.475 29.625L34.35 26.475L38.475 27.375C39.075 26.775 39.8125 26.2375 40.6875 25.7625C41.5625 25.2875 42.425 24.925 43.275 24.675L44.025 19.725H48.075L48.825 24.675C49.675 24.925 50.5375 25.2875 51.4125 25.7625C52.2875 26.2375 53.025 26.775 53.625 27.375L57.75 26.475L59.625 29.625L56.1 32.925C56.2 33.375 56.25 34 56.25 34.8C56.25 35.6 56.2 36.225 56.1 36.675L59.625 39.975L57.75 43.125L53.625 42.225C53.025 42.825 52.2875 43.3625 51.4125 43.8375C50.5375 44.3125 49.675 44.675 48.825 44.925L48.075 49.875H44.025ZM46.05 40.8C47.85 40.8 49.3 40.25 50.4 39.15C51.5 38.05 52.05 36.6 52.05 34.8C52.05 33 51.5 31.55 50.4 30.45C49.3 29.35 47.85 28.8 46.05 28.8C44.25 28.8 42.8 29.35 41.7 30.45C40.6 31.55 40.05 33 40.05 34.8C40.05 36.6 40.6 38.05 41.7 39.15C42.8 40.25 44.25 40.8 46.05 40.8ZM24 18C25.95 18 27.5625 17.3625 28.8375 16.0875C30.1125 14.8125 30.75 13.2 30.75 11.25C30.75 9.3 30.1125 7.6875 28.8375 6.4125C27.5625 5.1375 25.95 4.5 24 4.5C22.05 4.5 20.4375 5.1375 19.1625 6.4125C17.8875 7.6875 17.25 9.3 17.25 11.25C17.25 13.2 17.8875 14.8125 19.1625 16.0875C20.4375 17.3625 22.05 18 24 18Z" fill="black" fill-opacity="0.6"/>
</svg>
