<svg width="60" height="60" viewBox="0 0 60 60" fill="none" xmlns="http://www.w3.org/2000/svg">
<path d="M13.95 33.75C15 33.75 15.8875 33.3875 16.6125 32.6625C17.3375 31.9375 17.7 31.05 17.7 30C17.7 28.95 17.3375 28.0625 16.6125 27.3375C15.8875 26.6125 15 26.25 13.95 26.25C12.9 26.25 12.0125 26.6125 11.2875 27.3375C10.5625 28.0625 10.2 28.95 10.2 30C10.2 31.05 10.5625 31.9375 11.2875 32.6625C12.0125 33.3875 12.9 33.75 13.95 33.75ZM30 33.75C31.05 33.75 31.9375 33.3875 32.6625 32.6625C33.3875 31.9375 33.75 31.05 33.75 30C33.75 28.95 33.3875 28.0625 32.6625 27.3375C31.9375 26.6125 31.05 26.25 30 26.25C28.95 26.25 28.0625 26.6125 27.3375 27.3375C26.6125 28.0625 26.25 28.95 26.25 30C26.25 31.05 26.6125 31.9375 27.3375 32.6625C28.0625 33.3875 28.95 33.75 30 33.75ZM45.975 33.75C47.025 33.75 47.9125 33.3875 48.6375 32.6625C49.3625 31.9375 49.725 31.05 49.725 30C49.725 28.95 49.3625 28.0625 48.6375 27.3375C47.9125 26.6125 47.025 26.25 45.975 26.25C44.925 26.25 44.0375 26.6125 43.3125 27.3375C42.5875 28.0625 42.225 28.95 42.225 30C42.225 31.05 42.5875 31.9375 43.3125 32.6625C44.0375 33.3875 44.925 33.75 45.975 33.75ZM30 60C25.9 60 22.025 59.2125 18.375 57.6375C14.725 56.0625 11.5375 53.9125 8.8125 51.1875C6.0875 48.4625 3.9375 45.275 2.3625 41.625C0.7875 37.975 0 34.075 0 29.925C0 25.825 0.7875 21.95 2.3625 18.3C3.9375 14.65 6.0875 11.475 8.8125 8.775C11.5375 6.075 14.725 3.9375 18.375 2.3625C22.025 0.7875 25.925 0 30.075 0C34.175 0 38.05 0.7875 41.7 2.3625C45.35 3.9375 48.525 6.075 51.225 8.775C53.925 11.475 56.0625 14.65 57.6375 18.3C59.2125 21.95 60 25.85 60 30C60 34.1 59.2125 37.975 57.6375 41.625C56.0625 45.275 53.925 48.4625 51.225 51.1875C48.525 53.9125 45.35 56.0625 41.7 57.6375C38.05 59.2125 34.15 60 30 60Z" fill="black" fill-opacity="0.6"/>
</svg>
