<svg width="55" height="56" viewBox="0 0 55 56" fill="none" xmlns="http://www.w3.org/2000/svg">
<path d="M28.25 5.75C28.25 7.2 27.7375 8.4375 26.7125 9.4625C25.6875 10.4875 24.45 11 23 11C22.35 11 21.7375 10.8875 21.1625 10.6625C20.5875 10.4375 20.05 10.125 19.55 9.725C18.2 10.525 17.075 11.55 16.175 12.8C15.275 14.05 14.8 15.45 14.75 17H54.5L51.5 38H38.45V33.5H47.825C48.125 31.5 48.4125 29.5 48.6875 27.5C48.9625 25.5 49.25 23.5 49.55 21.5H5.45C5.75 23.5 6.0375 25.5 6.3125 27.5C6.5875 29.5 6.875 31.5 7.175 33.5H16.55V38H3.5L0.5 17H10.25C10.3 14.55 11.0125 12.325 12.3875 10.325C13.7625 8.325 15.55 6.75 17.75 5.6C17.8 4.15 18.325 2.9375 19.325 1.9625C20.325 0.9875 21.55 0.5 23 0.5C24.45 0.5 25.6875 1.0125 26.7125 2.0375C27.7375 3.0625 28.25 4.3 28.25 5.75ZM19.55 51.5H35.45L37.55 30.5H17.45L19.55 51.5ZM15.5 56L13.025 30.95C12.925 29.65 13.325 28.5 14.225 27.5C15.125 26.5 16.225 26 17.525 26H37.475C38.775 26 39.875 26.5 40.775 27.5C41.675 28.5 42.075 29.65 41.975 30.95L39.5 56H15.5Z" fill="black" fill-opacity="0.6"/>
</svg>
